<?xml version="1.0" encoding="utf-8"?>
<!-- Generator: Adobe Illustrator 22.0.1, SVG Export Plug-In . SVG Version: 6.00 Build 0)  -->
<svg version="1.1" xmlns="http://www.w3.org/2000/svg" xmlns:xlink="http://www.w3.org/1999/xlink" x="0px" y="0px"
	 viewBox="0 0 250 250" style="enable-background:new 0 0 250 250;" xml:space="preserve">
<style type="text/css">
	.st0{fill:#5763AB;}
	.st1{fill:#9B268F;}
	.st2{fill:#007CA9;}
	.st3{fill:#FFFFFF;}
</style>
<g id="Layer_4">
</g>
<g id="Layer_3">
</g>
<g id="Layer_2">
</g>
<g id="Layer_1">
	<g>
		<path class="st0" d="M81.4,86.5C81.4,86.5,81.4,86.5,81.4,86.5C81.4,86.5,81.4,86.5,81.4,86.5z"/>
		<path class="st0" d="M102.5,133.4C102.5,133.4,102.6,133.4,102.5,133.4C102.6,133.4,102.5,133.4,102.5,133.4z"/>
		<path class="st0" d="M93.4,142C93.4,142,93.4,142,93.4,142C93.4,142,93.4,142,93.4,142z"/>
		<path class="st0" d="M70.3,149.1c0.1,0,0.2,0.1,0.3,0.1l-0.1,0.1l-0.2-0.1L70.3,149.1z"/>
		<path class="st0" d="M79.7,149.2c0.1,0,0.2-0.1,0.3-0.1c0,0.1-0.1,0.2-0.2,0.2L79.7,149.2z"/>
		<g>
			<path class="st1" d="M44.3,174.4c0,0.2-0.2,4.8-5.4,4.8c-5.1,0-5.3-4.5-5.3-4.8v-16c0-0.1-0.1-5.1,6.2-5.1H46
				c7.6,0,12.6,2.9,12.6,9.5c0,6.3-4.2,9.1-12.6,9.1h-1.8V174.4z M44.3,165.3h2.5c1.9,0,2.6-1.7,2.6-2.8c0-1.2-0.6-2.9-2.6-2.9h-2.5
				V165.3z"/>
			<path class="st1" d="M71.4,156.4v18.7c0,0.2,0,4-5.4,4c-5.3,0-5.3-3.9-5.3-4v-18.7c0-0.2,0-4,5.3-4
				C71.4,152.4,71.4,156.3,71.4,156.4z"/>
			<path class="st1" d="M83.6,159.9c6.4,0,10.8,2.2,10.8,8.5v6.5c0,4-4.5,4.2-5.8,4.2c-4.8,0-5-2.6-5-2.6c-0.8,1.6-2.3,2.6-5,2.6
				c-3.8,0-5.5-2.2-5.5-5.4s3-5.4,7.1-5.4c1.1,0,2.3,0.1,3.4,0.4c0-1.8-1.6-3-3.9-3c-1.4,0-2.5,0.6-3.7,0.6c-1.5,0-1.9-1.3-1.9-2.3
				C74.1,160.4,81.4,159.9,83.6,159.9z M82.4,174.7c1.1,0,1.8-0.8,1.8-1.9c0-1.1-0.6-1.9-1.8-1.9c-1.2,0-1.8,0.9-1.8,1.9
				C80.6,173.9,81.2,174.7,82.4,174.7z"/>
			<path class="st1" d="M111.5,175c-0.9,1.1-3.4,4.1-8.2,4.1c-4.2,0-6.8-2.5-6.8-6.4v-8.9c0-0.2,0-4,5.3-4c5.3,0,5.3,3.9,5.3,4v5.1
				c0,0.6,0,2.7,2.2,2.7c2.1,0,2.2-1.9,2.2-2.5v-5.3c0-0.2,0-4,5.4-4c5.3,0,5.3,3.9,5.3,4v16c0,6.3-4.3,10.1-10.7,10.1
				c-2.2,0-9.6-0.8-9.6-4.5c0-1,0.4-2.2,1.9-2.2c1.2,0,2.3,0.6,3.7,0.6c2.4,0,4-1.2,4-3V175z"/>
			<path class="st1" d="M124.5,160.6c8.5-6.5,10.6-8.3,11.2-8.3c0.6,0,0.8,0.5,0.8,2.2v3.8h2.3c0.5,0,2.4,0.2,2.4,2.4
				c0,2.4-1.9,2.5-2.4,2.5h-2.3v6.7c0,1.2,0,2.4,1.5,2.4h1.4c1.7,0,2.2,1.5,2.2,2.6c0,3.6-3.5,4.3-7.1,4.3c-5.5,0-8.9-2.7-8.9-9.3
				v-6.7H125c-1.1,0-1.9-0.1-1.9-0.9C123,161.6,124.5,160.6,124.5,160.6z"/>
			<path class="st1" d="M153.8,163.9v11.2c0,0.2,0,4-5.4,4c-5.3,0-5.3-3.9-5.3-4v-11.2c0-0.2,0-4,5.3-4
				C153.8,159.9,153.8,163.7,153.8,163.9z M148.4,159.1c-2.4,0-4.3-1.3-4.3-3.5c0-2.2,1.9-3.5,4.3-3.5c2.4,0,4.3,1.3,4.3,3.5
				C152.7,157.9,150.8,159.1,148.4,159.1z"/>
			<path class="st1" d="M166.6,164c0.8-1.8,3.2-4.2,6.6-4.2c4.1,0,5.9,2.1,6.5,4.8c1.2-2.8,3.7-4.8,6.7-4.8c5,0,6.7,2.5,6.7,6.4v8.9
				c0,0.2,0,4-5.3,4c-5.3,0-5.3-3.9-5.3-4V169c0-0.6,0-1.8-1.2-1.8c-1,0-1.3,0.7-1.3,1.3v6.5c0,0.2,0,4-5.3,4c-5.3,0-5.3-3.9-5.3-4
				V169c0-0.6,0-1.8-1.2-1.8c-1.1,0-1.3,0.9-1.3,1.5v6.3c0,0.2,0,4-5.4,4c-5.3,0-5.3-3.9-5.3-4v-11.3c0-0.2,0-4,5.3-4
				C165.1,159.8,166.4,162.4,166.6,164z"/>
			<path class="st1" d="M205.2,170.9c0.5,2.4,2.2,3.5,5.4,3.5c2,0,2.9-0.7,4.2-0.7c0.6,0,1.3,0.4,1.3,1.1c0,0.2-0.1,0.4-0.2,0.6
				c-1.2,3.1-5.6,4.2-9.1,4.2c-7.1,0-12.2-3.2-12.2-10.1c0-5.8,4.7-9.8,11-9.8c7.4,0,11.1,5.5,11.1,9.4c0,1-0.6,1.8-2.6,1.8H205.2z
				 M210.5,167.5c0-1.9-1.2-3.1-2.6-3.1c-1.3,0-2.4,1.3-2.4,3.1H210.5z"/>
		</g>
		<g>
			<g>
				<path class="st2" d="M27.2,186.6c0-0.3,1.1-0.5,3.3-0.5c0.5,0,1.1,0,1.9,0.1c0.8,0,1.2,0.1,1.2,0.2c0,0.3-0.3,0.4-0.8,0.4
					c-0.1,0-0.4,0-0.7,0c-0.3,0-0.6,0-0.9,0c-0.2,0-0.4,0.1-0.4,0.2c0,1.4,0,3.4-0.1,6.1c-0.1,0.1-0.3,0.1-0.6,0.1c0-0.3,0-0.6,0-1
					l0-4.1c0-0.5,0-0.9,0-1.2c-0.1,0-0.3,0-0.5,0c-0.2,0-0.5,0-1,0.1c-0.5,0-0.8,0.1-1,0.1C27.4,186.8,27.2,186.7,27.2,186.6z"/>
				<path class="st2" d="M38.8,186.4c0.1-0.2,0.2-0.2,0.4-0.2c0.1,0,0.1,0,0.2,0.1c0,0.7,0.1,1.4,0.1,2c0,0.7,0,1.5,0,2.6
					c0,1,0,1.7-0.1,2c-0.2,0.1-0.3,0.2-0.4,0.2c-0.1,0-0.2,0-0.2,0c0-0.3-0.1-0.7-0.1-1l0.1-2.2c-0.5-0.1-1.2-0.1-1.8-0.1
					c-0.7,0-1.4,0.1-2.1,0.2c-0.1,1.3-0.1,2.2-0.1,2.8c-0.2,0.1-0.3,0.2-0.4,0.2c-0.1,0-0.2,0-0.2,0c0-0.3,0-0.7,0-1.3
					c0-0.6,0-1.5,0.1-2.8c0.1-1.3,0.1-2.1,0.1-2.3c0.1-0.1,0.2-0.2,0.4-0.2c0.1,0,0.1,0,0.2,0c0,0.2,0,0.4,0,0.7s0,0.7-0.1,1.3
					c0,0.6-0.1,1-0.1,1.2c0.8-0.1,1.5-0.2,2.1-0.2c0.7,0,1.2,0,1.7,0.1c0-0.2,0-0.6,0-1C38.9,187.8,38.9,187.2,38.8,186.4z"/>
				<path class="st2" d="M43.5,186.1l1.5,0c0.5,0,0.8,0.1,1,0.2c0,0.2-0.1,0.3-0.2,0.4c-0.1,0.1-0.3,0.1-0.5,0.1l-2.1,0
					c-0.5,0-1,0-1.3,0c-0.1,0.4-0.1,0.9-0.1,1.5l0,0.4c0,0.2,0,0.4,0,0.6c0.3,0.1,0.7,0.1,1.1,0.1l1.1,0c0.4,0,0.7,0,0.7,0.1
					c0.1,0,0.1,0.1,0.1,0.1c0,0.2-0.3,0.4-0.9,0.4l-2.2-0.1c0,0.2,0,0.4,0,0.8c0,0.8,0,1.4-0.1,1.7c0.4,0,0.7,0,0.9,0
					c0.2,0,0.4,0,0.6,0c0.2,0,0.5,0,1.1-0.1c0.5,0,0.9,0,1.2,0s0.4,0,0.5,0.1c0.1,0,0.1,0.1,0.1,0.2c0,0.1,0,0.1-0.1,0.2
					c0,0-0.1,0.1-0.1,0.1c0,0-0.1,0-0.1,0c0,0-0.1,0-0.1,0c0,0-0.1,0-0.1,0c-0.1,0-0.1,0-0.1,0c0,0-0.1,0-0.1,0h-0.1
					c-1.2,0.1-2,0.1-2.4,0.1c-1,0-1.6-0.1-1.6-0.4c0-0.6,0-1.2,0-1.7c0-1.8,0.1-3.2,0.2-4.4c0.1-0.2,0.5-0.3,1.2-0.4
					C42.9,186.1,43.2,186.1,43.5,186.1z"/>
				<path class="st2" d="M53.9,186.4c0.1-0.2,0.2-0.2,0.4-0.2c0.1,0,0.1,0,0.2,0.1c0,0.7,0.1,1.4,0.1,2c0,0.7,0,1.5,0,2.6
					c0,1,0,1.7-0.1,2c-0.2,0.1-0.3,0.2-0.4,0.2c-0.1,0-0.2,0-0.2,0c0-0.3-0.1-0.7-0.1-1l0.1-2.2c-0.5-0.1-1.2-0.1-1.8-0.1
					c-0.7,0-1.4,0.1-2.1,0.2c-0.1,1.3-0.1,2.2-0.1,2.8c-0.2,0.1-0.3,0.2-0.4,0.2c-0.1,0-0.2,0-0.2,0c0-0.3,0-0.7,0-1.3
					c0-0.6,0-1.5,0.1-2.8c0.1-1.3,0.1-2.1,0.1-2.3c0.1-0.1,0.2-0.2,0.4-0.2c0.1,0,0.1,0,0.2,0c0,0.2,0,0.4,0,0.7s0,0.7-0.1,1.3
					c0,0.6-0.1,1-0.1,1.2c0.8-0.1,1.5-0.2,2.1-0.2c0.7,0,1.2,0,1.7,0.1c0-0.2,0-0.6,0-1C53.9,187.8,53.9,187.2,53.9,186.4z"/>
				<path class="st2" d="M62.4,188.2c0.2,0.4,0.3,0.9,0.3,1.4s-0.1,1.1-0.3,1.5c-0.2,0.5-0.5,0.9-0.9,1.1c-0.7,0.6-1.5,0.9-2.4,0.9
					c-0.9,0-1.6-0.3-2.3-0.9c-0.6-0.6-0.9-1.4-0.9-2.4c0-0.6,0.1-1.1,0.3-1.5c0.2-0.5,0.4-0.8,0.8-1.1c0.7-0.6,1.4-0.9,2.3-0.9
					c0.9,0,1.7,0.3,2.4,0.8C61.9,187.4,62.2,187.7,62.4,188.2z M56.5,189.9c0,0.8,0.2,1.5,0.7,2c0.5,0.5,1.1,0.7,1.9,0.7
					c0.9,0,1.6-0.3,2.2-0.8c0.5-0.5,0.8-1.2,0.8-2.1c0-0.8-0.3-1.5-0.8-2c-0.5-0.5-1.2-0.8-2-0.8c-0.8,0-1.4,0.3-1.9,0.8
					C56.7,188.2,56.5,189,56.5,189.9z"/>
				<path class="st2" d="M64,189.1c0-1-0.1-2-0.2-2.8c0-0.1,0.1-0.2,0.3-0.2c0.2,0,0.4,0.2,0.7,0.5c0.3,0.4,0.6,0.7,0.9,1.2
					c0.3,0.4,0.6,0.8,0.8,1.2c0.3,0.4,0.5,0.5,0.6,0.5c0.1,0,0.3-0.2,0.6-0.6c0.3-0.4,0.5-0.8,0.8-1.2c0.3-0.4,0.5-0.8,0.9-1.2
					c0.3-0.4,0.6-0.6,0.7-0.6c0.2,0,0.3,0.1,0.3,0.2c0.1,0.8,0.1,1.5,0.1,2.1c0,0.6,0,1.1,0,1.5c0,0.4,0,0.7,0,0.8
					c0,0.2,0,0.6,0,1.2c0,0.6,0,1,0,1.1c-0.1,0.1-0.2,0.2-0.4,0.2c-0.1,0-0.1,0-0.2-0.1c0-0.8-0.1-1.7-0.1-2.8c0-1.1,0-2.2,0-3.3
					c-0.1,0.1-0.3,0.3-0.5,0.7c-0.2,0.4-0.5,0.7-0.7,1.1c-0.2,0.4-0.5,0.7-0.7,1c-0.3,0.3-0.5,0.4-0.8,0.4s-0.5-0.2-0.8-0.5
					c-0.3-0.3-0.6-0.8-1-1.4c-0.4-0.6-0.6-1-0.7-1.1c0,0.5,0,1.1,0,1.7c0,0.6,0,1,0,1.2c0,1,0,1.9-0.1,2.8c-0.1,0.1-0.3,0.2-0.5,0.2
					c-0.1,0-0.1,0-0.2,0L64,189.1z"/>
				<path class="st2" d="M74.5,186.1l1.5,0c0.5,0,0.8,0.1,1,0.2c0,0.2-0.1,0.3-0.2,0.4c-0.1,0.1-0.3,0.1-0.5,0.1l-2.1,0
					c-0.5,0-1,0-1.3,0c-0.1,0.4-0.1,0.9-0.1,1.5l0,0.4c0,0.2,0,0.4,0,0.6c0.3,0.1,0.7,0.1,1.1,0.1l1.1,0c0.4,0,0.7,0,0.7,0.1
					c0.1,0,0.1,0.1,0.1,0.1c0,0.2-0.3,0.4-0.9,0.4l-2.2-0.1c0,0.2,0,0.4,0,0.8c0,0.8,0,1.4-0.1,1.7c0.4,0,0.7,0,0.9,0
					c0.2,0,0.4,0,0.6,0c0.2,0,0.5,0,1.1-0.1c0.5,0,0.9,0,1.2,0c0.3,0,0.4,0,0.5,0.1c0.1,0,0.1,0.1,0.1,0.2c0,0.1,0,0.1-0.1,0.2
					c0,0-0.1,0.1-0.1,0.1c0,0-0.1,0-0.1,0c0,0-0.1,0-0.1,0c0,0-0.1,0-0.1,0c-0.1,0-0.1,0-0.1,0c0,0-0.1,0-0.1,0h-0.1
					c-1.2,0.1-2,0.1-2.4,0.1c-1,0-1.6-0.1-1.6-0.4c0-0.6,0-1.2,0-1.7c0-1.8,0.1-3.2,0.2-4.4c0.1-0.2,0.5-0.3,1.2-0.4
					C73.9,186.1,74.2,186.1,74.5,186.1z"/>
				<path class="st2" d="M78.9,186.4l0,4.2c0,0.7,0,1.3,0.1,1.9c0.4,0,0.7,0,1,0l2,0c0.3,0,0.5,0.1,0.5,0.3c0,0.2-0.7,0.3-2,0.3
					c-0.3,0-0.7,0-1.2,0c-0.5,0-0.8-0.1-0.9-0.2c0-0.7,0-1.8,0-3.3l0-3.4c0.2-0.1,0.3-0.2,0.4-0.2C78.8,186.1,78.9,186.2,78.9,186.4
					z"/>
				<path class="st2" d="M85.6,186.1l1.5,0c0.5,0,0.8,0.1,1,0.2c0,0.2-0.1,0.3-0.2,0.4c-0.1,0.1-0.3,0.1-0.5,0.1l-2.1,0
					c-0.5,0-1,0-1.3,0c-0.1,0.4-0.1,0.9-0.1,1.5l0,0.4c0,0.2,0,0.4,0,0.6c0.3,0.1,0.7,0.1,1.1,0.1l1.1,0c0.4,0,0.7,0,0.7,0.1
					c0.1,0,0.1,0.1,0.1,0.1c0,0.2-0.3,0.4-0.9,0.4l-2.2-0.1c0,0.2,0,0.4,0,0.8c0,0.8,0,1.4-0.1,1.7c0.4,0,0.7,0,0.9,0
					c0.2,0,0.4,0,0.6,0c0.2,0,0.5,0,1.1-0.1c0.5,0,0.9,0,1.2,0s0.4,0,0.5,0.1c0.1,0,0.1,0.1,0.1,0.2c0,0.1,0,0.1-0.1,0.2
					c0,0-0.1,0.1-0.1,0.1c0,0-0.1,0-0.1,0c0,0-0.1,0-0.1,0c0,0-0.1,0-0.1,0c-0.1,0-0.1,0-0.1,0c0,0-0.1,0-0.1,0h-0.1
					c-1.2,0.1-2,0.1-2.4,0.1c-1,0-1.6-0.1-1.6-0.4c0-0.6,0-1.2,0-1.7c0-1.8,0.1-3.2,0.2-4.4c0.1-0.2,0.5-0.3,1.2-0.4
					C85,186.1,85.3,186.1,85.6,186.1z"/>
				<path class="st2" d="M89.7,186.5c0.2-0.2,0.5-0.3,0.8-0.3c0.3-0.1,0.6-0.1,0.8-0.1c0.3,0,0.5,0,0.8,0.1c0.2,0,0.5,0.1,0.8,0.2
					c0.3,0.1,0.5,0.2,0.6,0.4c0.2,0.2,0.3,0.4,0.3,0.6c0,0.1,0,0.2-0.1,0.2c-0.1,0-0.2,0.1-0.3,0.1c-0.1,0-0.2,0-0.2-0.1
					c0,0-0.1-0.1-0.1-0.2c-0.2-0.5-0.8-0.7-1.6-0.7c-0.6,0-1,0.1-1.4,0.4c-0.4,0.2-0.5,0.6-0.5,1c0,0.3,0.1,0.5,0.2,0.7
					c0.2,0.2,0.4,0.3,0.6,0.4c0.3,0.1,0.5,0.2,0.8,0.3c0.3,0.1,0.6,0.2,0.9,0.3s0.6,0.2,0.8,0.4c0.3,0.1,0.5,0.3,0.6,0.6
					c0.2,0.3,0.2,0.6,0.2,0.9c0,0.5-0.2,0.9-0.7,1.3c-0.5,0.4-1.1,0.5-1.9,0.5c-0.6,0-1.2-0.1-1.7-0.4c-0.6-0.2-0.8-0.5-0.8-0.8
					c0-0.1,0-0.1,0.1-0.2c0.1-0.1,0.2-0.1,0.2-0.1s0.2,0,0.2,0.1c0.1,0,0.1,0.1,0.2,0.2c0.1,0.1,0.2,0.1,0.2,0.2
					c0.5,0.3,1,0.5,1.6,0.5c0.4,0,0.8-0.1,1.2-0.4c0.4-0.3,0.6-0.6,0.6-1c0-0.3-0.1-0.5-0.3-0.7c-0.2-0.2-0.5-0.3-0.8-0.4
					c-0.3-0.1-0.7-0.2-1.1-0.3c-0.4-0.1-0.7-0.2-1.1-0.3c-0.3-0.1-0.6-0.3-0.8-0.6c-0.2-0.3-0.3-0.6-0.3-0.9c0-0.4,0.1-0.7,0.2-0.9
					C89.3,186.9,89.5,186.7,89.7,186.5z"/>
				<path class="st2" d="M95.7,186.5c0.2-0.2,0.5-0.3,0.8-0.3c0.3-0.1,0.6-0.1,0.8-0.1c0.3,0,0.5,0,0.8,0.1c0.2,0,0.5,0.1,0.8,0.2
					c0.3,0.1,0.5,0.2,0.6,0.4c0.2,0.2,0.3,0.4,0.3,0.6c0,0.1,0,0.2-0.1,0.2c-0.1,0-0.2,0.1-0.3,0.1c-0.1,0-0.2,0-0.2-0.1
					c0,0-0.1-0.1-0.1-0.2c-0.2-0.5-0.8-0.7-1.6-0.7c-0.6,0-1,0.1-1.4,0.4c-0.4,0.2-0.5,0.6-0.5,1c0,0.3,0.1,0.5,0.2,0.7
					c0.2,0.2,0.4,0.3,0.6,0.4c0.3,0.1,0.5,0.2,0.8,0.3c0.3,0.1,0.6,0.2,0.9,0.3c0.3,0.1,0.6,0.2,0.8,0.4c0.3,0.1,0.5,0.3,0.6,0.6
					c0.2,0.3,0.2,0.6,0.2,0.9c0,0.5-0.2,0.9-0.7,1.3c-0.5,0.4-1.1,0.5-1.9,0.5c-0.6,0-1.2-0.1-1.7-0.4c-0.6-0.2-0.8-0.5-0.8-0.8
					c0-0.1,0-0.1,0.1-0.2c0.1-0.1,0.2-0.1,0.2-0.1c0.1,0,0.2,0,0.2,0.1c0.1,0,0.1,0.1,0.2,0.2c0.1,0.1,0.2,0.1,0.2,0.2
					c0.5,0.3,1,0.5,1.6,0.5c0.4,0,0.8-0.1,1.2-0.4c0.4-0.3,0.6-0.6,0.6-1c0-0.3-0.1-0.5-0.3-0.7c-0.2-0.2-0.5-0.3-0.8-0.4
					c-0.3-0.1-0.7-0.2-1.1-0.3c-0.4-0.1-0.7-0.2-1.1-0.3c-0.3-0.1-0.6-0.3-0.8-0.6c-0.2-0.3-0.3-0.6-0.3-0.9c0-0.4,0.1-0.7,0.2-0.9
					C95.3,186.9,95.5,186.7,95.7,186.5z"/>
			</g>
			<g>
				<path class="st2" d="M127,187.5c-0.1,0.1-0.2,0.2-0.2,0.2c-0.1,0-0.1,0-0.2,0c-0.1,0-0.1-0.1-0.1-0.1c0,0-0.1-0.1-0.1-0.2
					c-0.1-0.1-0.1-0.2-0.1-0.2c-0.3-0.4-0.7-0.6-1.3-0.6c-0.5,0-1,0.2-1.4,0.5c-0.4,0.3-0.8,0.8-1.1,1.3c-0.3,0.5-0.4,1.1-0.4,1.7
					c0,0.7,0.2,1.3,0.7,1.7c0.5,0.5,1.1,0.7,1.9,0.7c0.8,0,1.5-0.2,2.1-0.7c0.1-0.1,0.2-0.2,0.3-0.3c0.1-0.1,0.2-0.2,0.3-0.3
					c0.1-0.1,0.2-0.1,0.2-0.1c0.1,0,0.2,0,0.3,0.1c-0.3,0.5-0.7,0.9-1.4,1.2c-0.6,0.3-1.4,0.4-2.2,0.4c-0.8,0-1.5-0.2-2-0.7
					c-0.6-0.5-0.8-1.1-0.8-2c0-0.5,0.1-1.1,0.3-1.5c0.2-0.5,0.4-0.9,0.7-1.3c0.3-0.4,0.7-0.7,1.2-0.9c0.5-0.2,1-0.3,1.5-0.3
					C126,186.2,126.6,186.7,127,187.5z"/>
				<path class="st2" d="M133.2,186.4c0.1-0.2,0.2-0.2,0.4-0.2c0.1,0,0.1,0,0.2,0.1c0,0.7,0.1,1.4,0.1,2c0,0.7,0,1.5,0,2.6
					c0,1,0,1.7-0.1,2c-0.2,0.1-0.3,0.2-0.4,0.2c-0.1,0-0.2,0-0.2,0c0-0.3-0.1-0.7-0.1-1l0.1-2.2c-0.5-0.1-1.2-0.1-1.8-0.1
					c-0.7,0-1.4,0.1-2.1,0.2c-0.1,1.3-0.1,2.2-0.1,2.8c-0.2,0.1-0.3,0.2-0.4,0.2c-0.1,0-0.2,0-0.2,0c0-0.3,0-0.7,0-1.3
					c0-0.6,0-1.5,0.1-2.8c0.1-1.3,0.1-2.1,0.1-2.3c0.1-0.1,0.2-0.2,0.4-0.2c0.1,0,0.1,0,0.2,0c0,0.2,0,0.4,0,0.7s0,0.7-0.1,1.3
					c0,0.6-0.1,1-0.1,1.2c0.8-0.1,1.5-0.2,2.1-0.2c0.7,0,1.2,0,1.7,0.1c0-0.2,0-0.6,0-1C133.2,187.8,133.2,187.2,133.2,186.4z"/>
				<path class="st2" d="M136.3,186.2c-0.1,2.9-0.1,5.1-0.1,6.7c-0.1,0.1-0.2,0.2-0.3,0.2c-0.1,0-0.1,0-0.2,0
					c-0.1-0.1-0.2-0.3-0.2-0.5c0-3.1,0-4.8,0.1-5.4c0-0.5,0.1-0.8,0.1-0.9c0.1-0.1,0.1-0.1,0.2-0.1
					C136,186.1,136.1,186.2,136.3,186.2z"/>
				<path class="st2" d="M138.6,186.4l0,4.2c0,0.7,0,1.3,0.1,1.9c0.4,0,0.7,0,1,0l2,0c0.3,0,0.5,0.1,0.5,0.3c0,0.2-0.7,0.3-2,0.3
					c-0.3,0-0.7,0-1.2,0c-0.5,0-0.8-0.1-0.9-0.2c0-0.7,0-1.8,0-3.3l0-3.4c0.2-0.1,0.3-0.2,0.4-0.2
					C138.5,186.1,138.6,186.2,138.6,186.4z"/>
				<path class="st2" d="M144.7,193l-0.8,0c-0.4,0-0.7-0.1-0.9-0.2c-0.1-0.1-0.1-0.2-0.1-0.3c0-0.7,0-1.7,0.1-2.8
					c0.1-1.2,0.1-2.1,0.1-2.7c0-0.3,0.2-0.5,0.7-0.6c0.5-0.2,1-0.2,1.6-0.2c1,0,1.9,0.3,2.6,0.9c0.7,0.6,1,1.3,1,2.3
					c0,0.5-0.1,0.9-0.2,1.3c-0.2,0.4-0.4,0.7-0.7,1c-0.3,0.3-0.6,0.5-1,0.7C146.3,192.8,145.5,193,144.7,193z M148.2,189.5
					c0-0.8-0.3-1.5-0.8-2.1c-0.6-0.6-1.3-0.8-2.2-0.8c-0.4,0-0.9,0.1-1.5,0.4c0,0.5,0,1.3-0.1,2.3c-0.1,1-0.1,1.7-0.1,2.1
					c0,0.4,0,0.7,0,0.8c0.4,0.1,0.7,0.1,1.1,0.1c1,0,1.9-0.3,2.5-0.8C147.9,191.2,148.2,190.5,148.2,189.5z"/>
				<path class="st2" d="M150.8,191.1l0,1.4c0,0.2,0,0.3-0.1,0.4c-0.1,0.1-0.2,0.1-0.2,0.1c-0.1,0-0.1,0-0.2,0
					c-0.1-0.7-0.1-1.3-0.1-2c0-0.6,0-1.4,0.1-2.2c0-0.8,0.1-1.5,0.1-1.9c0-0.5,0.7-0.8,2-0.8c0.7,0,1.4,0.1,2,0.4
					c0.3,0.2,0.6,0.4,0.8,0.6c0.2,0.3,0.3,0.6,0.3,0.9c0,0.3-0.1,0.6-0.2,0.9c-0.2,0.3-0.3,0.5-0.6,0.7c-0.2,0.2-0.5,0.3-0.8,0.5
					c-0.5,0.2-1.1,0.4-1.7,0.5c0.3,0.2,0.8,0.6,1.5,1.2c0.2,0.2,0.5,0.4,0.8,0.5c0.3,0.2,0.6,0.2,1,0.2c0,0,0.1,0,0.2,0
					c0.1,0,0.2,0,0.3,0c0.1,0,0.1,0,0.2,0c0.1,0,0.1,0.1,0.1,0.2c0,0.2-0.3,0.3-0.8,0.3c-0.6,0-1.3-0.2-1.9-0.7
					c-0.3-0.2-0.5-0.4-0.8-0.6c-0.6-0.5-1.2-0.9-1.8-1C150.8,190.8,150.8,190.9,150.8,191.1z M154.7,188.2c0-0.5-0.2-0.9-0.7-1.2
					c-0.5-0.3-1.1-0.4-1.8-0.4c-0.5,0-0.9,0.1-1.3,0.2c0,0.5,0,1.1,0,1.7c0,0.6,0,1,0,1.3c0,0.2,0,0.4,0,0.5
					c0.9-0.1,1.7-0.2,2.2-0.3c0.6-0.2,1-0.4,1.2-0.6C154.5,189,154.7,188.7,154.7,188.2z"/>
				<path class="st2" d="M159.1,186.1l1.5,0c0.5,0,0.8,0.1,1,0.2c0,0.2-0.1,0.3-0.2,0.4c-0.1,0.1-0.3,0.1-0.5,0.1l-2.1,0
					c-0.5,0-1,0-1.3,0c-0.1,0.4-0.1,0.9-0.1,1.5l0,0.4c0,0.2,0,0.4,0,0.6c0.3,0.1,0.7,0.1,1.1,0.1l1.1,0c0.4,0,0.7,0,0.7,0.1
					c0.1,0,0.1,0.1,0.1,0.1c0,0.2-0.3,0.4-0.9,0.4l-2.2-0.1c0,0.2,0,0.4,0,0.8c0,0.8,0,1.4-0.1,1.7c0.4,0,0.7,0,0.9,0s0.4,0,0.6,0
					c0.2,0,0.5,0,1.1-0.1c0.5,0,0.9,0,1.2,0s0.4,0,0.5,0.1c0.1,0,0.1,0.1,0.1,0.2c0,0.1,0,0.1-0.1,0.2c0,0-0.1,0.1-0.1,0.1
					c0,0-0.1,0-0.1,0c0,0-0.1,0-0.1,0c0,0-0.1,0-0.1,0c-0.1,0-0.1,0-0.1,0c0,0-0.1,0-0.1,0h-0.1c-1.2,0.1-2,0.1-2.4,0.1
					c-1,0-1.6-0.1-1.6-0.4c0-0.6,0-1.2,0-1.7c0-1.8,0.1-3.2,0.2-4.4c0.1-0.2,0.5-0.3,1.2-0.4C158.5,186.1,158.8,186.1,159.1,186.1z"
					/>
				<path class="st2" d="M167.9,192.2l0.1-5.9c0.1-0.1,0.2-0.2,0.3-0.2c0.1,0,0.2,0,0.3,0.1c0,0.8,0.1,1.5,0.1,2.1l-0.1,4.4
					c0,0.1,0,0.2,0,0.4c-0.2,0.1-0.4,0.2-0.5,0.2l-0.1,0c-0.1,0-0.1-0.1-0.1-0.1c0,0-0.1-0.1-0.1-0.1c-0.1-0.1-0.1-0.1-0.1-0.2
					c0,0-0.1-0.1-0.1-0.2c-0.1-0.1-0.1-0.2-0.1-0.2c0,0-0.2-0.3-0.5-0.9s-0.5-0.9-0.6-1c-0.1-0.1-0.3-0.4-0.6-0.8
					c-0.3-0.4-0.5-0.8-0.7-1c-0.5-0.6-0.9-1.1-1.4-1.5c0,0.8,0,1.7,0,2.7c0,0.9,0,2-0.1,3c-0.1,0.1-0.3,0.2-0.6,0.2
					c0-3.6,0-5.8,0-6.6c0.1-0.1,0.2-0.2,0.4-0.2c0.1,0,0.2,0,0.3,0.1c0.2,0.1,0.3,0.3,0.6,0.5c0.7,0.7,1.3,1.4,1.9,2.3
					C166.5,190,167.2,191,167.9,192.2z"/>
				<path class="st2" d="M170.8,186.5c0,0.2,0,0.4-0.1,0.8c-0.1,0.3-0.1,0.6-0.1,0.7c0,0.2-0.1,0.3-0.3,0.3l-0.2,0
					c-0.1-0.1-0.2-0.1-0.2-0.2c0-0.2,0-0.4,0.1-0.8c0.1-0.3,0.1-0.6,0.1-0.8c0-0.1,0.1-0.2,0.3-0.2l0.2,0
					C170.7,186.3,170.8,186.4,170.8,186.5z"/>
				<path class="st2" d="M172.5,186.5c0.2-0.2,0.5-0.3,0.8-0.3c0.3-0.1,0.6-0.1,0.8-0.1c0.3,0,0.5,0,0.8,0.1c0.2,0,0.5,0.1,0.8,0.2
					c0.3,0.1,0.5,0.2,0.6,0.4c0.2,0.2,0.3,0.4,0.3,0.6c0,0.1,0,0.2-0.1,0.2c-0.1,0-0.2,0.1-0.3,0.1c-0.1,0-0.2,0-0.2-0.1
					c0,0-0.1-0.1-0.1-0.2c-0.2-0.5-0.8-0.7-1.6-0.7c-0.6,0-1,0.1-1.4,0.4c-0.4,0.2-0.5,0.6-0.5,1c0,0.3,0.1,0.5,0.2,0.7
					c0.2,0.2,0.4,0.3,0.6,0.4c0.3,0.1,0.5,0.2,0.8,0.3c0.3,0.1,0.6,0.2,0.9,0.3s0.6,0.2,0.8,0.4c0.3,0.1,0.5,0.3,0.6,0.6
					c0.2,0.3,0.2,0.6,0.2,0.9c0,0.5-0.2,0.9-0.7,1.3c-0.5,0.4-1.1,0.5-1.9,0.5c-0.6,0-1.2-0.1-1.7-0.4c-0.6-0.2-0.8-0.5-0.8-0.8
					c0-0.1,0-0.1,0.1-0.2c0.1-0.1,0.2-0.1,0.2-0.1c0.1,0,0.2,0,0.2,0.1c0.1,0,0.1,0.1,0.2,0.2c0.1,0.1,0.2,0.1,0.2,0.2
					c0.5,0.3,1,0.5,1.6,0.5c0.4,0,0.8-0.1,1.2-0.4c0.4-0.3,0.6-0.6,0.6-1c0-0.3-0.1-0.5-0.3-0.7c-0.2-0.2-0.5-0.3-0.8-0.4
					c-0.3-0.1-0.7-0.2-1.1-0.3c-0.4-0.1-0.7-0.2-1.1-0.3c-0.3-0.1-0.6-0.3-0.8-0.6c-0.2-0.3-0.3-0.6-0.3-0.9c0-0.4,0.1-0.7,0.2-0.9
					C172.1,186.9,172.3,186.7,172.5,186.5z"/>
				<path class="st2" d="M180.2,189.9c0-1,0-1.9-0.1-2.6c0-0.2,0.1-0.4,0.2-0.5c0.2-0.1,0.4-0.3,0.7-0.3c0.5-0.1,1.1-0.2,1.8-0.2
					c0.8,0,1.5,0.2,2,0.6c0.5,0.4,0.7,0.9,0.7,1.7c0,0.8-0.3,1.4-0.9,1.8c-0.6,0.5-1.4,0.7-2.3,0.7c-0.5,0-0.9-0.1-1.4-0.3
					c0,0.3,0,0.7,0,1.2l0,0.5c0,0.2,0,0.3,0,0.5c0,0-0.1,0.1-0.1,0.1c0,0-0.1,0-0.1,0c0,0,0,0-0.1,0c0,0-0.1,0-0.1,0
					c0,0-0.1,0-0.1,0h-0.2c0-0.5,0-0.9,0-1.3L180.2,189.9z M180.8,190c0.5,0.3,1,0.5,1.7,0.5c0.6,0,1.2-0.2,1.6-0.6
					c0.4-0.4,0.7-0.9,0.7-1.5c0-0.6-0.2-1-0.7-1.3c-0.5-0.3-1-0.4-1.6-0.4c-0.6,0-1.2,0.1-1.7,0.4
					C180.8,187.5,180.8,188.5,180.8,190z"/>
				<path class="st2" d="M187.2,191.1l0,1.4c0,0.2,0,0.3-0.1,0.4c-0.1,0.1-0.2,0.1-0.2,0.1s-0.1,0-0.2,0c-0.1-0.7-0.1-1.3-0.1-2
					c0-0.6,0-1.4,0.1-2.2c0-0.8,0.1-1.5,0.1-1.9c0-0.5,0.7-0.8,2-0.8c0.7,0,1.4,0.1,2,0.4c0.3,0.2,0.6,0.4,0.8,0.6
					c0.2,0.3,0.3,0.6,0.3,0.9c0,0.3-0.1,0.6-0.2,0.9c-0.2,0.3-0.3,0.5-0.6,0.7c-0.2,0.2-0.5,0.3-0.8,0.5c-0.5,0.2-1.1,0.4-1.7,0.5
					c0.3,0.2,0.8,0.6,1.5,1.2c0.2,0.2,0.5,0.4,0.8,0.5c0.3,0.2,0.6,0.2,1,0.2c0,0,0.1,0,0.2,0c0.1,0,0.2,0,0.3,0c0.1,0,0.1,0,0.2,0
					c0.1,0,0.1,0.1,0.1,0.2c0,0.2-0.3,0.3-0.8,0.3c-0.6,0-1.3-0.2-1.9-0.7c-0.3-0.2-0.5-0.4-0.8-0.6c-0.6-0.5-1.2-0.9-1.8-1
					C187.2,190.8,187.2,190.9,187.2,191.1z M191.1,188.2c0-0.5-0.2-0.9-0.7-1.2c-0.5-0.3-1.1-0.4-1.8-0.4c-0.5,0-0.9,0.1-1.3,0.2
					c0,0.5,0,1.1,0,1.7c0,0.6,0,1,0,1.3c0,0.2,0,0.4,0,0.5c0.9-0.1,1.7-0.2,2.2-0.3c0.6-0.2,1-0.4,1.2-0.6
					C190.9,189,191.1,188.7,191.1,188.2z"/>
				<path class="st2" d="M199.3,188.2c0.2,0.4,0.3,0.9,0.3,1.4s-0.1,1.1-0.3,1.5c-0.2,0.5-0.5,0.9-0.9,1.1c-0.7,0.6-1.5,0.9-2.4,0.9
					c-0.9,0-1.6-0.3-2.3-0.9c-0.6-0.6-0.9-1.4-0.9-2.4c0-0.6,0.1-1.1,0.3-1.5c0.2-0.5,0.4-0.8,0.8-1.1c0.7-0.6,1.4-0.9,2.3-0.9
					c0.9,0,1.7,0.3,2.4,0.8C198.9,187.4,199.1,187.7,199.3,188.2z M193.4,189.9c0,0.8,0.2,1.5,0.7,2c0.5,0.5,1.1,0.7,1.9,0.7
					c0.9,0,1.6-0.3,2.2-0.8c0.5-0.5,0.8-1.2,0.8-2.1c0-0.8-0.3-1.5-0.8-2c-0.5-0.5-1.2-0.8-2-0.8c-0.8,0-1.4,0.3-1.9,0.8
					C193.7,188.2,193.4,189,193.4,189.9z"/>
				<path class="st2" d="M203.6,186.3c0,0.5,0,1.2,0.1,2.2c0.1,1,0.1,1.7,0.1,2.2c0,0.7-0.1,1.3-0.4,1.7c-0.3,0.4-0.7,0.6-1.4,0.6
					c-0.4,0-0.8-0.1-1.2-0.3c-0.4-0.2-0.6-0.4-0.8-0.7c0.2-0.1,0.3-0.2,0.4-0.2c0.1,0,0.2,0,0.3,0.1c0.1,0.1,0.2,0.2,0.3,0.3
					c0.1,0.1,0.2,0.2,0.4,0.3c0.2,0.1,0.5,0.1,0.8,0.1c0.3,0,0.6-0.1,0.7-0.4c0.1-0.3,0.2-0.7,0.2-1.2c0-0.5,0-1.2-0.1-2
					c-0.1-0.8-0.1-1.4-0.1-1.8c0-0.4,0-0.6,0.1-0.7c0.1-0.1,0.1-0.2,0.3-0.2C203.4,186.2,203.5,186.2,203.6,186.3z"/>
				<path class="st2" d="M207.7,186.1l1.5,0c0.5,0,0.8,0.1,1,0.2c0,0.2-0.1,0.3-0.2,0.4c-0.1,0.1-0.3,0.1-0.5,0.1l-2.1,0
					c-0.5,0-1,0-1.3,0c-0.1,0.4-0.1,0.9-0.1,1.5l0,0.4c0,0.2,0,0.4,0,0.6c0.3,0.1,0.7,0.1,1.1,0.1l1.1,0c0.4,0,0.7,0,0.7,0.1
					c0.1,0,0.1,0.1,0.1,0.1c0,0.2-0.3,0.4-0.9,0.4l-2.2-0.1c0,0.2,0,0.4,0,0.8c0,0.8,0,1.4-0.1,1.7c0.4,0,0.7,0,0.9,0
					c0.2,0,0.4,0,0.6,0c0.2,0,0.5,0,1.1-0.1c0.5,0,0.9,0,1.2,0c0.3,0,0.4,0,0.5,0.1c0.1,0,0.1,0.1,0.1,0.2c0,0.1,0,0.1-0.1,0.2
					c0,0-0.1,0.1-0.1,0.1c0,0-0.1,0-0.1,0c0,0-0.1,0-0.1,0c0,0-0.1,0-0.1,0c-0.1,0-0.1,0-0.1,0c0,0-0.1,0-0.1,0h-0.1
					c-1.2,0.1-2,0.1-2.4,0.1c-1,0-1.6-0.1-1.6-0.4c0-0.6,0-1.2,0-1.7c0-1.8,0.1-3.2,0.2-4.4c0.1-0.2,0.5-0.3,1.2-0.4
					C207,186.1,207.4,186.1,207.7,186.1z"/>
				<path class="st2" d="M216.4,187.5c-0.1,0.1-0.2,0.2-0.2,0.2c-0.1,0-0.1,0-0.2,0c-0.1,0-0.1-0.1-0.1-0.1c0,0-0.1-0.1-0.1-0.2
					c-0.1-0.1-0.1-0.2-0.1-0.2c-0.3-0.4-0.7-0.6-1.3-0.6c-0.5,0-1,0.2-1.4,0.5c-0.4,0.3-0.8,0.8-1.1,1.3c-0.3,0.5-0.4,1.1-0.4,1.7
					c0,0.7,0.2,1.3,0.7,1.7c0.5,0.5,1.1,0.7,1.9,0.7c0.8,0,1.5-0.2,2.1-0.7c0.1-0.1,0.2-0.2,0.3-0.3c0.1-0.1,0.2-0.2,0.3-0.3
					c0.1-0.1,0.2-0.1,0.2-0.1c0.1,0,0.2,0,0.3,0.1c-0.3,0.5-0.7,0.9-1.4,1.2c-0.6,0.3-1.4,0.4-2.2,0.4c-0.8,0-1.5-0.2-2-0.7
					c-0.6-0.5-0.8-1.1-0.8-2c0-0.5,0.1-1.1,0.3-1.5c0.2-0.5,0.4-0.9,0.7-1.3c0.3-0.4,0.7-0.7,1.2-0.9c0.5-0.2,1-0.3,1.5-0.3
					C215.5,186.2,216.1,186.7,216.4,187.5z"/>
				<path class="st2" d="M216.8,186.6c0-0.3,1.1-0.5,3.3-0.5c0.5,0,1.1,0,1.9,0.1c0.8,0,1.2,0.1,1.2,0.2c0,0.3-0.3,0.4-0.8,0.4
					c-0.1,0-0.4,0-0.7,0c-0.3,0-0.6,0-0.9,0c-0.2,0-0.4,0.1-0.4,0.2c0,1.4,0,3.4-0.1,6.1c-0.1,0.1-0.3,0.1-0.6,0.1c0-0.3,0-0.6,0-1
					l0-4.1c0-0.5,0-0.9,0-1.2c-0.1,0-0.3,0-0.5,0c-0.2,0-0.5,0-1,0.1c-0.5,0-0.8,0.1-1,0.1C217,186.8,216.8,186.7,216.8,186.6z"/>
			</g>
		</g>
		<g>
			<path class="st1" d="M83.9,93.4c0.6-2.1-0.4-4.4,0.2-5.1c0.2-0.2,0-0.5-0.2-0.6c-0.9-0.3-1.7,0.2-2.1,0.5
				c-0.2,0.1-0.4,0.1-0.5-0.1c-0.5-0.9-0.5-3.1,0.4-4.2c0.2-0.2,0.1-0.6-0.3-0.6c-5.1-0.1-6.5,4.9-7.2,6.2c-0.1,0.2-0.4,0.3-0.6,0.1
				c-0.3-0.4-0.6-0.9-0.7-1.5c-0.1-0.3-0.5-0.4-0.7-0.1c-1.2,1.9-1.1,4.2-0.3,5.9c-9.9,2.9-17.1,12-17.1,22.8
				c0,13.1,10.6,23.7,23.7,23.7c13.1,0,23.7-10.6,23.7-23.7C102.3,105.3,94.4,95.8,83.9,93.4z M78.6,137.7
				c-11.7,0-21.2-9.5-21.2-21.2c0-10,7-18.4,16.3-20.6c0,0,0,0,0,0c2.3,1.6,5.6,1.3,7,0.7c0.7-0.3,1.3-0.6,1.7-1
				c9.9,1.8,17.4,10.5,17.4,20.9C99.8,128.2,90.3,137.7,78.6,137.7z"/>
			<path class="st1" d="M90.5,121.6c-0.6-0.4-1.4-0.2-1.7,0.3c-2.4,3.5-6.3,5.6-10.5,5.6c-4.1,0-7.9-2-10.3-5.3
				c-0.4-0.6-1.2-0.7-1.8-0.3c-0.6,0.4-0.7,1.2-0.3,1.8c2.8,4,7.5,6.4,12.4,6.4c5.1,0,9.8-2.5,12.6-6.8
				C91.3,122.7,91.1,121.9,90.5,121.6z"/>
			<path class="st1" d="M68.1,115.5c0.6,0.1,1.2-0.3,1.7-0.6c0.8-0.6,1.1-1.8,0.7-2.7c-0.2,0.3-0.5,0.6-0.9,0.6
				c-0.6,0-1.1-0.5-1.1-1.1c0-0.4,0.2-0.7,0.6-0.9c-1.4-0.6-3.2,0.6-3.1,2.2c0,0.1,0,0.2,0,0.3C65.9,114.4,67,115.4,68.1,115.5z"/>
			<path class="st1" d="M90.3,112.8c-0.6,0-1.1-0.5-1.1-1.1c0-0.4,0.2-0.7,0.6-0.9c-1.4-0.6-3.2,0.6-3.1,2.2c0,0.1,0,0.2,0,0.3
				c-0.1,1.2,1,2.2,2.2,2.3c0.6,0.1,1.2-0.3,1.7-0.6c0.8-0.6,1.1-1.8,0.7-2.7C91.1,112.6,90.7,112.8,90.3,112.8z"/>
		</g>
		<g>
			<path class="st1" d="M165.4,114c-0.6-0.4-1.3-0.5-2-0.7c-1.8-0.6-3.6-1.1-5.4-1.7c-0.2,0-0.4,0.2-0.5,0.4
				c-0.3,0.4,0.1,0.8,0.5,0.9c1.5,0.5,2.9,1,4.4,1.4c0,0.1,0,0.2,0,0.3c-0.8,0.2-1.5,0.4-2.3,0.7c-0.8,0.3-1.7,0.4-2.5,0.8
				c-0.5,0.4-0.1,1.1,0.4,1.1c2.4-0.8,4.9-1.4,7.4-2.2C165.4,114.6,165.5,114.3,165.4,114z"/>
			<path class="st1" d="M184.1,116c-0.8-0.4-1.7-0.5-2.5-0.8c-0.8-0.2-1.5-0.5-2.3-0.7c0-0.1,0-0.2,0-0.3c1.5-0.4,3-0.9,4.4-1.4
				c0.4-0.1,0.8-0.6,0.5-0.9c-0.1-0.2-0.3-0.3-0.5-0.4c-1.8,0.6-3.6,1.1-5.4,1.7c-0.7,0.2-1.4,0.3-2,0.7c-0.1,0.3,0,0.6,0,0.9
				c2.4,0.8,4.9,1.5,7.4,2.2C184.2,117.1,184.6,116.4,184.1,116z"/>
			<path class="st1" d="M184.9,97.3c0.1-0.2,0.2-0.5,0.2-0.7V83c0-0.1,0-0.1,0-0.2c-0.1-0.8-1.2-1.1-1.8-0.6l-11.5,7
				c-0.5-0.3-1-0.4-1.5-0.4c-0.6,0-1.1,0.2-1.6,0.4l-11.5-7c-0.6-0.5-1.7-0.2-1.8,0.6c0,0.1,0,0.1,0,0.2v13.5c0,0.6,0.5,1.2,1.1,1.2
				c-5.6,4.3-9.2,11.1-9.2,18.7c0,13.1,10.6,23.7,23.7,23.7s23.7-10.6,23.7-23.7C194.8,108.6,190.9,101.6,184.9,97.3z M171,137.7
				c-11.7,0-21.2-9.5-21.2-21.2c0-9.8,6.7-18.1,15.7-20.5c-0.9,2,0.2,4.4-0.4,5.1c-0.1,0.2,0,0.4,0.2,0.5c0.8,0.3,1.5-0.1,1.9-0.4
				c0.2-0.1,0.4-0.1,0.5,0.1c0.4,0.8,0.4,2.8-0.4,3.8c-0.2,0.2-0.1,0.5,0.2,0.6c4.5,0.1,5.8-4.3,6.4-5.5c0.1-0.2,0.4-0.2,0.5-0.1
				c0.3,0.3,0.5,0.8,0.6,1.4c0.1,0.3,0.4,0.4,0.6,0.1c1.2-1.9,1-4.1,0-5.7c9.4,2.1,16.5,10.6,16.5,20.7
				C192.3,128.2,182.7,137.7,171,137.7z"/>
			<path class="st1" d="M182,123.5l-20.8,0.4c-0.3,0-0.6,0.1-0.8,0.4c-0.2,0.2-0.2,0.5-0.2,0.8c1.3,4.6,6.7,7.4,11.2,7.4
				c5,0,10.8-3.2,11.5-8c0-0.3,0-0.6-0.2-0.8C182.6,123.6,182.3,123.5,182,123.5z M171.5,130.7c-3.3,0-7.3-1.8-8.9-4.8l18.1-0.4
				C179.5,128.6,175.2,130.7,171.5,130.7z"/>
		</g>
		<g>
			<path class="st1" d="M136.9,96.1c0.1-0.3,0.2-0.7,0.2-1.1c0.1-1.8-1.2-3.2-2.9-3.3c-0.7,0-1.3,0.2-1.8,0.6
				c-0.2-1.5-1.4-2.7-2.9-2.7c-1.2-0.1-2.3,0.7-2.8,1.7c-0.3-1.4-1.4-2.4-2.8-2.5c-1.4-0.1-2.6,0.9-3,2.2c-0.5-0.7-1.3-1.1-2.2-1.2
				c-1.7-0.1-3.1,1.3-3.2,3c0,0,0,0,0,0c-0.4-0.3-0.9-0.5-1.5-0.5c-1.7-0.1-3.1,1.3-3.2,3c0,0.6,0.1,1.2,0.4,1.6
				c-6.1,4.3-10.1,11.4-10.1,19.4c0,13.1,10.6,23.7,23.7,23.7c13.1,0,23.7-10.6,23.7-23.7C148.5,107.9,143.8,100.3,136.9,96.1z
				 M124.8,137.7c-11.7,0-21.2-9.5-21.2-21.2c0-7.4,3.9-14,9.7-17.8c0.1,0,0.3,0.1,0.4,0.1c1.1,0,2.1-0.6,2.7-1.5
				c0,0.2-0.1,0.3-0.1,0.5c-0.1,1.8,1.2,3.2,2.9,3.3c0.8,0,1.6-0.3,2.2-0.8c0.5,0.9,1.4,1.4,2.5,1.5c1.2,0.1,2.4-0.7,2.9-1.8
				c0.5,0.5,1.2,0.9,2,0.9c1.7,0.1,3.1-1.3,3.2-3c0-0.3,0-0.6-0.1-0.8c0.5,0.6,1.3,1,2.1,1.1c0.4,0,0.7,0,1-0.1
				c6.6,3.6,11,10.6,11,18.6C146,128.2,136.5,137.7,124.8,137.7z"/>
			<path class="st1" d="M124.9,118.9c-3.1,0-5.6,2.5-5.6,5.6c0,3.1,2.5,5.6,5.6,5.6c3.1,0,5.6-2.5,5.6-5.6
				C130.5,121.4,128,118.9,124.9,118.9z M124.9,127.9c-1.9,0-3.4-1.5-3.4-3.4c0-1.9,1.5-3.4,3.4-3.4s3.4,1.5,3.4,3.4
				C128.3,126.3,126.8,127.9,124.9,127.9z"/>
			<path class="st1" d="M115.5,112.8c-0.6,0-1.1-0.5-1.1-1.1c0-0.4,0.3-0.8,0.6-1c-1.4-0.4-3.1,0.7-3,2.2c0,0.1,0,0.2,0,0.3
				c-0.1,1.2,1,2.2,2.2,2.3c0.6,0.1,1.2-0.3,1.7-0.6c0.9-0.7,1.1-2,0.6-3C116.5,112.5,116,112.8,115.5,112.8z"/>
			<path class="st1" d="M136.3,112.8c-0.6,0-1.1-0.5-1.1-1.1c0-0.4,0.3-0.8,0.6-1c-1.4-0.4-3.1,0.7-3,2.2c0,0.1,0,0.2,0,0.3
				c-0.1,1.2,1,2.2,2.2,2.3c0.6,0.1,1.2-0.3,1.7-0.6c0.9-0.7,1.1-2,0.6-3C137.2,112.5,136.8,112.8,136.3,112.8z"/>
		</g>
		<path class="st1" d="M224.7,89.8L129.1,45c-0.8-0.4-1.7-0.4-2.4,0L25.4,89.6c-1.1,0.5-1.8,1.5-1.8,2.7l0,23c0,1.6,1.3,3,3,3l9.7,0
			l0,27c0,1.6,1.3,3,3,3c1.6,0,3-1.3,3-3l0-30c0-1.6-1.3-3-3-3l-9.7,0l0-18.1L127.8,51l92.7,43.4l0,19.2l-9.1,0c-1.6,0-3,1.3-3,3
			l0,28.6h-38.3c-2.7,0-5,2.2-5,5v0.3c0,2.7,2.2,5,5,5h41c0.1,0,0.1,0,0.2,0c0,0,0.1,0,0.1,0c1.6,0,3-1.3,3-3l0-32.8l9.1,0
			c1.6,0,3-1.3,3-3l0-24C226.4,91.4,225.7,90.3,224.7,89.8z"/>
		<g>
			<path class="st3" d="M173,153.3c-0.5,0-0.8-0.2-1-0.5c-0.2-0.3-0.3-0.7-0.4-1.2c0-0.2,0-0.4,0-0.7c0-0.8,0.1-1.9,0.4-3.2
				c0,0,0-0.1,0.1-0.1c0.2-0.1,0.3-0.1,0.4-0.1c0.1,0,0.2,0,0.2,0c0.1,0,0.1,0.1,0.1,0.2c0,0.1,0,0.4-0.1,0.7c0,0.3-0.1,0.6-0.1,0.8
				c-0.1,0.6-0.1,1.1-0.1,1.5c0,0.4,0,0.7,0,0.9c0,0.2,0.1,0.4,0.1,0.6c0.1,0.2,0.1,0.3,0.2,0.4c0.1,0.1,0.2,0.1,0.3,0.1
				c0.2,0,0.3-0.1,0.5-0.3c0.2-0.2,0.3-0.5,0.4-0.9c0.1-0.4,0.2-0.8,0.3-1.2l0.2-1.2c0.1-0.4,0.1-0.7,0.2-0.8c0,0,0,0,0.1-0.1
				c0.2-0.1,0.3-0.2,0.4-0.2c0.1,0,0.2,0,0.2,0c0,0,0.1,0.1,0.1,0.1c0,0.2,0.1,0.7,0.1,1.3c0,0.6,0.1,1.1,0.1,1.5
				c0.1,0.3,0.1,0.6,0.2,0.9c0.1,0.2,0.2,0.4,0.4,0.6c0.2,0.1,0.3,0.2,0.5,0.2c0.2,0,0.3-0.1,0.5-0.3c0.1-0.2,0.2-0.5,0.3-0.8
				c0.1-0.7,0.2-1.4,0.2-2.1c0-0.7-0.1-1.2-0.2-1.6c0-0.1,0-0.1,0.1-0.2c0.1-0.1,0.3-0.2,0.4-0.2c0.2,0,0.3,0.1,0.4,0.3
				c0.1,0.2,0.1,0.4,0.2,0.7c0.1,0.5,0.1,0.9,0.1,1.3c0,0.4,0,0.8-0.1,1.2c-0.1,0.4-0.2,0.8-0.3,1.1c-0.2,0.4-0.4,0.6-0.7,0.8
				c-0.3,0.2-0.6,0.3-1,0.3c-0.3,0-0.5-0.1-0.7-0.2c-0.2-0.1-0.4-0.3-0.5-0.4c-0.1-0.2-0.2-0.4-0.3-0.6c-0.1-0.2-0.2-0.5-0.2-0.8
				c-0.1,0.4-0.3,0.8-0.4,1C174.3,152.9,173.7,153.3,173,153.3C173,153.3,173,153.3,173,153.3z"/>
			<path class="st3" d="M180.5,153.2c-0.1,0-0.2,0-0.2-0.1c-0.2-0.1-0.2-0.3-0.2-0.5c0-2.4,0-3.8,0.1-4.2c0-0.6,0.1-0.7,0.1-0.8
				c0.1-0.1,0.2-0.2,0.3-0.2c0.1,0,0.2,0,0.3,0.1c0.1,0,0.1,0.1,0.1,0.1c0,2.3-0.1,4-0.1,5.3c0,0,0,0.1,0,0.1
				C180.7,153.2,180.6,153.2,180.5,153.2z"/>
			<path class="st3" d="M184.1,153.3c-0.5,0-1-0.1-1.4-0.3c-0.5-0.2-0.7-0.5-0.7-0.7c0-0.1,0-0.2,0.2-0.3c0.1-0.1,0.2-0.1,0.3-0.1
				c0.1,0,0.2,0,0.3,0.1c0.1,0,0.1,0.1,0.2,0.2c0.1,0.1,0.1,0.1,0.2,0.1c0.4,0.2,0.8,0.3,1.2,0.3c0.3,0,0.6-0.1,0.9-0.3
				c0.3-0.2,0.4-0.4,0.4-0.7c0-0.2-0.1-0.3-0.2-0.5c-0.2-0.1-0.3-0.2-0.6-0.3c-0.3-0.1-0.5-0.1-0.8-0.2c-0.3-0.1-0.6-0.2-0.8-0.3
				c-0.3-0.1-0.5-0.3-0.7-0.5c-0.2-0.2-0.3-0.5-0.3-0.8c0-0.3,0.1-0.6,0.2-0.8c0.1-0.2,0.3-0.4,0.5-0.5c0.2-0.1,0.4-0.2,0.7-0.3
				c0.2-0.1,0.5-0.1,0.7-0.1c0.2,0,0.4,0,0.6,0c0.2,0,0.4,0.1,0.6,0.1c0.2,0.1,0.4,0.2,0.6,0.3c0.2,0.2,0.2,0.4,0.3,0.6
				c0,0.1,0,0.2-0.2,0.3c-0.1,0.1-0.2,0.1-0.3,0.1c-0.1,0-0.2,0-0.3-0.1c-0.1-0.1-0.1-0.1-0.1-0.2c-0.2-0.3-0.5-0.5-1.1-0.5
				c-0.4,0-0.7,0.1-1,0.3c-0.2,0.2-0.4,0.4-0.4,0.7c0,0.2,0,0.3,0.2,0.4c0.1,0.1,0.3,0.2,0.4,0.3c0.2,0.1,0.4,0.1,0.7,0.2
				c0.2,0.1,0.5,0.1,0.7,0.2c0.2,0.1,0.5,0.2,0.7,0.3c0.2,0.1,0.4,0.3,0.5,0.5c0.1,0.2,0.2,0.5,0.2,0.8c0,0.5-0.2,0.8-0.7,1.1
				C185.3,153.2,184.7,153.3,184.1,153.3z"/>
			<path class="st3" d="M191.3,153.2c-0.1,0-0.2,0-0.2,0c-0.1,0-0.1-0.1-0.1-0.1c0-0.3,0-0.5,0-0.8l0-1.6c-0.4,0-0.8,0-1.3,0
				c-0.5,0-1,0-1.5,0.1c0,0.9-0.1,1.6-0.1,2.1c0,0,0,0.1-0.1,0.1c-0.2,0.1-0.3,0.2-0.4,0.2c-0.1,0-0.2,0-0.3-0.1
				c0,0-0.1-0.1-0.1-0.1c0-0.2,0-0.6,0-1c0-0.5,0-1.2,0.1-2.2c0.1-1,0.1-1.6,0.1-1.8c0,0,0-0.1,0-0.1c0.1-0.1,0.2-0.2,0.5-0.2
				c0.1,0,0.1,0,0.2,0c0,0,0.1,0.1,0.1,0.1c0,0.1,0,0.3,0,0.6c0,0.2,0,0.6,0,1c0,0.3,0,0.6,0,0.7c0.5-0.1,1.1-0.1,1.5-0.1
				c0.5,0,0.9,0,1.2,0c0-0.2,0-0.4,0-0.7c0-0.4,0-0.8,0-1.4c0,0,0-0.1,0-0.1c0.1-0.2,0.3-0.2,0.5-0.2c0.1,0,0.2,0,0.2,0.1
				c0,0,0.1,0.1,0.1,0.1c0,0.5,0.1,1.1,0.1,1.6c0,0.5,0,1.2,0,2c0,0.8,0,1.3,0,1.6c0,0,0,0.1-0.1,0.1
				C191.5,153.1,191.4,153.2,191.3,153.2z"/>
			<path class="st3" d="M195.1,153.2c-0.3,0-0.6,0-1,0c-0.6,0-0.7-0.1-0.8-0.1c0,0-0.1-0.1-0.1-0.1c0-0.5,0-1.4,0-2.6l0-2.6
				c0,0,0-0.1,0.1-0.1c0.2-0.1,0.3-0.2,0.4-0.2c0.1,0,0.4,0,0.4,0.4l0,3.3c0,0.5,0,0.9,0,1.3c0.2,0,0.5,0,0.7,0l1.6,0
				c0.5,0,0.5,0.2,0.5,0.4C196.8,153.1,196.5,153.2,195.1,153.2z"/>
			<path class="st3" d="M198.1,153.2c-0.1,0-0.2,0-0.2-0.1c-0.2-0.1-0.2-0.3-0.2-0.5c0-2.4,0-3.8,0.1-4.2c0-0.6,0.1-0.7,0.1-0.8
				c0.1-0.1,0.2-0.2,0.3-0.2c0.1,0,0.2,0,0.3,0.1c0.1,0,0.1,0.1,0.1,0.1c0,2.3-0.1,4-0.1,5.3c0,0,0,0.1,0,0.1
				C198.3,153.2,198.2,153.2,198.1,153.2z"/>
			<path class="st3" d="M201.7,153.3c-0.5,0-1-0.1-1.4-0.3c-0.5-0.2-0.7-0.5-0.7-0.7c0-0.1,0-0.2,0.2-0.3c0.1-0.1,0.2-0.1,0.3-0.1
				c0.1,0,0.2,0,0.3,0.1c0.1,0,0.1,0.1,0.2,0.2c0.1,0.1,0.1,0.1,0.2,0.1c0.4,0.2,0.8,0.3,1.2,0.3c0.3,0,0.6-0.1,0.9-0.3
				c0.3-0.2,0.4-0.4,0.4-0.7c0-0.2-0.1-0.3-0.2-0.5c-0.2-0.1-0.3-0.2-0.6-0.3c-0.3-0.1-0.5-0.1-0.8-0.2c-0.3-0.1-0.6-0.2-0.8-0.3
				c-0.3-0.1-0.5-0.3-0.7-0.5c-0.2-0.2-0.3-0.5-0.3-0.8c0-0.3,0.1-0.6,0.2-0.8c0.1-0.2,0.3-0.4,0.5-0.5c0.2-0.1,0.4-0.2,0.7-0.3
				c0.2-0.1,0.5-0.1,0.7-0.1c0.2,0,0.4,0,0.6,0c0.2,0,0.4,0.1,0.6,0.1c0.2,0.1,0.4,0.2,0.6,0.3c0.2,0.2,0.2,0.4,0.3,0.6
				c0,0.1,0,0.2-0.2,0.3c-0.1,0.1-0.2,0.1-0.3,0.1c-0.1,0-0.2,0-0.3-0.1c-0.1-0.1-0.1-0.1-0.1-0.2c-0.2-0.3-0.5-0.5-1.1-0.5
				c-0.4,0-0.7,0.1-1,0.3c-0.2,0.2-0.4,0.4-0.4,0.7c0,0.2,0,0.3,0.2,0.4c0.1,0.1,0.3,0.2,0.4,0.3c0.2,0.1,0.4,0.1,0.7,0.2
				c0.2,0.1,0.5,0.1,0.7,0.2c0.2,0.1,0.5,0.2,0.7,0.3c0.2,0.1,0.4,0.3,0.5,0.5c0.1,0.2,0.2,0.5,0.2,0.8c0,0.5-0.2,0.8-0.7,1.1
				C202.8,153.2,202.3,153.3,201.7,153.3z"/>
			<path class="st3" d="M206.7,153.2c-0.1,0-0.1-0.1-0.1-0.1c0-0.2,0-0.5,0-0.8l0-3.3c0-0.3,0-0.6,0-0.8c-0.1,0-0.2,0-0.3,0
				c-0.2,0-0.4,0-0.8,0c-0.4,0-0.6,0-0.8,0c-0.5,0-0.6-0.2-0.6-0.3c0-0.3,0.2-0.5,2.7-0.5c0.4,0,0.9,0,1.5,0c1,0.1,1.1,0.1,1.1,0.2
				c0,0.3-0.1,0.5-0.8,0.5c-0.1,0-0.3,0-0.6,0c-0.3,0-0.5,0-0.7,0c-0.1,0-0.2,0-0.2,0c0,1,0,2.7-0.1,4.8c0,0,0,0.1-0.1,0.1
				C207.1,153.2,207,153.2,206.7,153.2z"/>
		</g>
	</g>
</g>
</svg>
