<?xml version="1.0" encoding="utf-8"?>
<!-- Generator: Adobe Illustrator 22.0.1, SVG Export Plug-In . SVG Version: 6.00 Build 0)  -->
<svg version="1.1" xmlns="http://www.w3.org/2000/svg" xmlns:xlink="http://www.w3.org/1999/xlink" x="0px" y="0px"
	 viewBox="0 0 250 250" style="enable-background:new 0 0 250 250;" xml:space="preserve">
<style type="text/css">
	.st0{fill:url(#SVGID_1_);}
	.st1{fill:#5763AB;}
	.st2{fill:#FFFFFF;}
</style>
<g id="Layer_4">
	<g>
		<radialGradient id="SVGID_1_" cx="125" cy="125" r="95.2663" gradientUnits="userSpaceOnUse">
			<stop  offset="0" style="stop-color:#BF3DB1"/>
			<stop  offset="0.9973" style="stop-color:#9B268F"/>
		</radialGradient>
		<path class="st0" d="M178.3,208.3H71.8c-16.6,0-30-13.4-30-30V71.8c0-16.6,13.4-30,30-30h106.5c16.6,0,30,13.4,30,30v106.5
			C208.3,194.8,194.8,208.3,178.3,208.3z"/>
		<g>
			<path class="st1" d="M92.5,100.5C92.5,100.5,92.5,100.5,92.5,100.5C92.5,100.5,92.5,100.5,92.5,100.5z"/>
			<path class="st1" d="M108.3,135.5C108.3,135.5,108.3,135.4,108.3,135.5C108.3,135.4,108.3,135.5,108.3,135.5z"/>
			<path class="st1" d="M101.4,141.9C101.5,141.9,101.5,141.8,101.4,141.9C101.5,141.8,101.5,141.9,101.4,141.9z"/>
			<path class="st1" d="M84.3,147.1c0.1,0,0.2,0.1,0.2,0.1l-0.1,0.1l-0.1-0.1L84.3,147.1z"/>
			<path class="st1" d="M91.2,147.3c0.1,0,0.2-0.1,0.2-0.1C91.4,147.2,91.4,147.3,91.2,147.3L91.2,147.3z"/>
			<g>
				<path class="st2" d="M64.9,166c0,0.2-0.1,3.6-4,3.6c-3.8,0-4-3.4-4-3.6v-12c0-0.1-0.1-3.8,4.6-3.8h4.7c5.7,0,9.4,2.2,9.4,7.1
					c0,4.7-3.2,6.8-9.4,6.8h-1.3V166z M64.8,159.2h1.8c1.4,0,1.9-1.2,1.9-2.1c0-0.9-0.5-2.1-1.9-2.1h-1.8V159.2z"/>
				<path class="st2" d="M85.1,152.6v13.9c0,0.1,0,3-4,3c-4,0-3.9-2.9-3.9-3v-13.9c0-0.1,0-3,3.9-3
					C85.1,149.6,85.1,152.5,85.1,152.6z"/>
				<path class="st2" d="M94.2,155.2c4.8,0,8,1.6,8,6.3v4.9c0,3-3.4,3.2-4.3,3.2c-3.6,0-3.7-2-3.7-2c-0.6,1.2-1.7,2-3.7,2
					c-2.8,0-4.1-1.6-4.1-4c0-2.4,2.2-4,5.3-4c0.8,0,1.7,0.1,2.6,0.3c0-1.4-1.2-2.2-2.9-2.2c-1,0-1.8,0.5-2.8,0.5
					c-1.1,0-1.4-1-1.4-1.7C87.1,155.6,92.5,155.2,94.2,155.2z M93.3,166.2c0.9,0,1.3-0.6,1.3-1.4c0-0.8-0.5-1.4-1.3-1.4
					c-0.9,0-1.4,0.7-1.4,1.4C91.9,165.6,92.4,166.2,93.3,166.2z"/>
				<path class="st2" d="M115,166.4c-0.7,0.8-2.5,3.1-6.1,3.1c-3.1,0-5.1-1.9-5.1-4.7v-6.6c0-0.1,0-3,4-3c3.9,0,4,2.9,4,3v3.8
					c0,0.4,0,2,1.6,2c1.6,0,1.6-1.4,1.6-1.9v-4c0-0.1,0-3,4-3c4,0,3.9,2.9,3.9,3V170c0,4.7-3.2,7.5-8,7.5c-1.6,0-7.1-0.6-7.1-3.3
					c0-0.7,0.3-1.6,1.4-1.6c0.9,0,1.7,0.5,2.8,0.5c1.8,0,3-0.9,3-2.2V166.4z"/>
				<path class="st2" d="M124.6,155.7c6.4-4.8,7.9-6.2,8.4-6.2c0.5,0,0.6,0.3,0.6,1.6v2.8h1.7c0.4,0,1.8,0.1,1.8,1.8
					c0,1.8-1.4,1.9-1.8,1.9h-1.7v5c0,0.9,0,1.8,1.1,1.8h1.1c1.3,0,1.7,1.1,1.7,2c0,2.7-2.6,3.2-5.3,3.2c-4.1,0-6.6-2-6.6-7v-5H125
					c-0.9,0-1.4-0.1-1.4-0.7C123.5,156.4,124.6,155.7,124.6,155.7z"/>
				<path class="st2" d="M146.4,158.1v8.4c0,0.1,0,3-4,3c-4,0-3.9-2.9-3.9-3v-8.4c0-0.1,0-3,3.9-3
					C146.4,155.2,146.4,158,146.4,158.1z M142.4,154.6c-1.8,0-3.2-1-3.2-2.6c0-1.6,1.4-2.6,3.2-2.6s3.2,0.9,3.2,2.6
					C145.7,153.7,144.2,154.6,142.4,154.6z"/>
				<path class="st2" d="M156,158.3c0.6-1.4,2.4-3.1,4.9-3.1c3,0,4.4,1.6,4.8,3.6c0.9-2.1,2.7-3.6,5-3.6c3.7,0,5,1.9,5,4.7v6.6
					c0,0.1,0,3-4,3c-3.9,0-4-2.9-4-3V162c0-0.4,0-1.3-0.9-1.3c-0.8,0-1,0.5-1,1v4.9c0,0.1,0,3-4,3c-3.9,0-4-2.9-4-3V162
					c0-0.4,0-1.3-0.9-1.3c-0.9,0-1,0.7-1,1.1v4.7c0,0.1,0,3-4,3c-4,0-3.9-2.9-3.9-3v-8.4c0-0.1,0-3,3.9-3
					C154.9,155.1,155.8,157,156,158.3z"/>
				<path class="st2" d="M184.8,163.4c0.4,1.8,1.7,2.6,4,2.6c1.5,0,2.2-0.5,3.2-0.5c0.5,0,1,0.3,1,0.8c0,0.1-0.1,0.3-0.1,0.5
					c-0.9,2.3-4.1,3.1-6.8,3.1c-5.3,0-9.1-2.4-9.1-7.5c0-4.3,3.5-7.3,8.2-7.3c5.5,0,8.2,4.1,8.2,7c0,0.8-0.5,1.4-2,1.4H184.8z
					 M188.7,160.9c0-1.4-0.9-2.3-2-2.3c-0.9,0-1.8,1-1.8,2.3H188.7z"/>
			</g>
			<g>
				<g>
					<path class="st2" d="M52.2,175.1c0-0.2,0.8-0.3,2.4-0.3c0.4,0,0.9,0,1.4,0c0.6,0,0.9,0.1,0.9,0.1c0,0.2-0.2,0.3-0.6,0.3
						c-0.1,0-0.3,0-0.5,0c-0.3,0-0.5,0-0.7,0c-0.2,0-0.3,0-0.3,0.1c0,1,0,2.5-0.1,4.6c-0.1,0.1-0.2,0.1-0.4,0.1c0-0.2,0-0.5,0-0.7
						l0-3.1c0-0.4,0-0.7,0-0.9c-0.1,0-0.2,0-0.4,0c-0.2,0-0.4,0-0.7,0c-0.3,0-0.6,0-0.7,0C52.3,175.2,52.2,175.2,52.2,175.1z"/>
					<path class="st2" d="M60.8,174.9c0.1-0.1,0.2-0.2,0.3-0.2c0.1,0,0.1,0,0.2,0c0,0.5,0,1,0,1.5c0,0.5,0,1.1,0,1.9
						c0,0.8,0,1.3,0,1.5c-0.1,0.1-0.2,0.1-0.3,0.1c-0.1,0-0.1,0-0.2,0c0-0.3,0-0.5,0-0.8l0-1.6c-0.4,0-0.9-0.1-1.4-0.1s-1,0-1.6,0.1
						c0,0.9-0.1,1.6-0.1,2.1c-0.1,0.1-0.2,0.1-0.3,0.1c-0.1,0-0.1,0-0.2,0c0-0.2,0-0.6,0-1c0-0.4,0-1.1,0.1-2.1s0.1-1.5,0.1-1.7
						c0.1-0.1,0.2-0.1,0.3-0.1c0,0,0.1,0,0.1,0c0,0.1,0,0.3,0,0.5c0,0.2,0,0.5,0,0.9c0,0.4,0,0.7,0,0.9c0.6-0.1,1.1-0.1,1.6-0.1
						c0.5,0,0.9,0,1.3,0c0-0.2,0-0.4,0-0.8S60.8,175.5,60.8,174.9z"/>
					<path class="st2" d="M64.3,174.7l1.1,0c0.4,0,0.6,0,0.8,0.1c0,0.1-0.1,0.2-0.1,0.3c-0.1,0-0.2,0.1-0.4,0.1l-1.5,0
						c-0.4,0-0.7,0-1,0c-0.1,0.3-0.1,0.6-0.1,1.1l0,0.3c0,0.1,0,0.3,0,0.4c0.2,0,0.5,0.1,0.9,0.1l0.8,0c0.3,0,0.5,0,0.6,0.1
						c0,0,0.1,0.1,0.1,0.1c0,0.2-0.2,0.3-0.7,0.3l-1.6,0c0,0.1,0,0.3,0,0.6c0,0.6,0,1-0.1,1.3c0.3,0,0.5,0,0.7,0c0.1,0,0.3,0,0.4,0
						c0.1,0,0.4,0,0.8,0c0.4,0,0.7,0,0.9,0c0.2,0,0.3,0,0.4,0c0.1,0,0.1,0.1,0.1,0.2c0,0.1,0,0.1,0,0.1c0,0-0.1,0-0.1,0
						c0,0-0.1,0-0.1,0c0,0-0.1,0-0.1,0c0,0-0.1,0-0.1,0c0,0-0.1,0-0.1,0c0,0-0.1,0-0.1,0h-0.1c-0.9,0-1.5,0.1-1.8,0.1
						c-0.8,0-1.2-0.1-1.2-0.3c0-0.4,0-0.9,0-1.3c0-1.3,0-2.4,0.1-3.3c0.1-0.2,0.4-0.2,0.9-0.3C63.8,174.7,64.1,174.7,64.3,174.7z"/>
					<path class="st2" d="M72,174.9c0.1-0.1,0.2-0.2,0.3-0.2c0.1,0,0.1,0,0.2,0c0,0.5,0,1,0,1.5c0,0.5,0,1.1,0,1.9
						c0,0.8,0,1.3,0,1.5c-0.1,0.1-0.2,0.1-0.3,0.1c-0.1,0-0.1,0-0.2,0c0-0.3,0-0.5,0-0.8l0-1.6c-0.4,0-0.9-0.1-1.4-0.1
						c-0.5,0-1,0-1.6,0.1c0,0.9-0.1,1.6-0.1,2.1c-0.1,0.1-0.2,0.1-0.3,0.1c-0.1,0-0.1,0-0.2,0c0-0.2,0-0.6,0-1c0-0.4,0-1.1,0.1-2.1
						c0.1-1,0.1-1.5,0.1-1.7c0.1-0.1,0.2-0.1,0.3-0.1c0,0,0.1,0,0.1,0c0,0.1,0,0.3,0,0.5c0,0.2,0,0.5,0,0.9c0,0.4,0,0.7,0,0.9
						c0.6-0.1,1.1-0.1,1.6-0.1s0.9,0,1.3,0c0-0.2,0-0.4,0-0.8S72,175.5,72,174.9z"/>
					<path class="st2" d="M78.3,176.2c0.1,0.3,0.2,0.7,0.2,1.1c0,0.4-0.1,0.8-0.2,1.1c-0.2,0.4-0.4,0.6-0.6,0.8
						c-0.5,0.4-1.1,0.6-1.8,0.6c-0.7,0-1.2-0.2-1.7-0.6c-0.5-0.4-0.7-1-0.7-1.8c0-0.4,0.1-0.8,0.2-1.2c0.1-0.3,0.3-0.6,0.6-0.8
						c0.5-0.4,1.1-0.7,1.7-0.7c0.7,0,1.2,0.2,1.8,0.6C78,175.7,78.2,175.9,78.3,176.2z M73.9,177.6c0,0.6,0.2,1.1,0.5,1.5
						c0.3,0.4,0.8,0.5,1.4,0.5c0.7,0,1.2-0.2,1.6-0.6c0.4-0.4,0.6-0.9,0.6-1.6c0-0.6-0.2-1.1-0.6-1.5c-0.4-0.4-0.9-0.6-1.5-0.6
						c-0.6,0-1.1,0.2-1.5,0.6C74.1,176.3,73.9,176.8,73.9,177.6z"/>
					<path class="st2" d="M79.6,177c0-0.8,0-1.5-0.1-2.1c0-0.1,0.1-0.1,0.2-0.1c0.1,0,0.3,0.1,0.5,0.4c0.2,0.3,0.4,0.6,0.7,0.9
						c0.2,0.3,0.4,0.6,0.6,0.9c0.2,0.3,0.4,0.4,0.5,0.4c0.1,0,0.2-0.1,0.4-0.4s0.4-0.6,0.6-0.9c0.2-0.3,0.4-0.6,0.6-0.9
						c0.2-0.3,0.4-0.4,0.6-0.4c0.1,0,0.2,0,0.2,0.1c0,0.6,0.1,1.1,0.1,1.6s0,0.8,0,1.1c0,0.3,0,0.5,0,0.6c0,0.1,0,0.4,0,0.9
						c0,0.5,0,0.7,0,0.8c-0.1,0.1-0.2,0.1-0.3,0.1c-0.1,0-0.1,0-0.1,0c0-0.6,0-1.3,0-2.1c0-0.8,0-1.6,0-2.5
						c-0.1,0.1-0.2,0.3-0.4,0.5c-0.2,0.3-0.3,0.6-0.5,0.8c-0.2,0.3-0.3,0.5-0.5,0.7c-0.2,0.2-0.4,0.3-0.6,0.3
						c-0.2,0-0.4-0.1-0.6-0.4c-0.2-0.3-0.5-0.6-0.7-1c-0.3-0.4-0.5-0.7-0.5-0.8c0,0.4,0,0.8,0,1.2c0,0.4,0,0.7,0,0.9
						c0,0.8,0,1.4,0,2.1c-0.1,0.1-0.2,0.1-0.4,0.1c0,0-0.1,0-0.1,0L79.6,177z"/>
					<path class="st2" d="M87.4,174.7l1.1,0c0.4,0,0.6,0,0.8,0.1c0,0.1-0.1,0.2-0.1,0.3c-0.1,0-0.2,0.1-0.4,0.1l-1.5,0
						c-0.4,0-0.7,0-1,0c-0.1,0.3-0.1,0.6-0.1,1.1l0,0.3c0,0.1,0,0.3,0,0.4c0.2,0,0.5,0.1,0.9,0.1l0.8,0c0.3,0,0.5,0,0.6,0.1
						c0,0,0.1,0.1,0.1,0.1c0,0.2-0.2,0.3-0.7,0.3l-1.6,0c0,0.1,0,0.3,0,0.6c0,0.6,0,1-0.1,1.3c0.3,0,0.5,0,0.7,0s0.3,0,0.4,0
						c0.1,0,0.4,0,0.8,0c0.4,0,0.7,0,0.9,0c0.2,0,0.3,0,0.4,0c0.1,0,0.1,0.1,0.1,0.2c0,0.1,0,0.1,0,0.1c0,0-0.1,0-0.1,0
						c0,0-0.1,0-0.1,0c0,0-0.1,0-0.1,0c0,0-0.1,0-0.1,0c0,0-0.1,0-0.1,0c0,0-0.1,0-0.1,0h-0.1c-0.9,0-1.5,0.1-1.8,0.1
						c-0.8,0-1.2-0.1-1.2-0.3c0-0.4,0-0.9,0-1.3c0-1.3,0-2.4,0.1-3.3c0.1-0.2,0.4-0.2,0.9-0.3C86.9,174.7,87.2,174.7,87.4,174.7z"/>
					<path class="st2" d="M90.6,175l0,3.1c0,0.5,0,0.9,0,1.4c0.3,0,0.5,0,0.8,0l1.5,0c0.2,0,0.3,0.1,0.3,0.2c0,0.2-0.5,0.2-1.5,0.2
						c-0.2,0-0.6,0-0.9,0c-0.4,0-0.6-0.1-0.7-0.1c0-0.5,0-1.3,0-2.5l0-2.5c0.1-0.1,0.2-0.1,0.3-0.1C90.6,174.7,90.6,174.8,90.6,175z
						"/>
					<path class="st2" d="M95.7,174.7l1.1,0c0.4,0,0.6,0,0.8,0.1c0,0.1-0.1,0.2-0.1,0.3c-0.1,0-0.2,0.1-0.4,0.1l-1.5,0
						c-0.4,0-0.7,0-1,0c-0.1,0.3-0.1,0.6-0.1,1.1l0,0.3c0,0.1,0,0.3,0,0.4c0.2,0,0.5,0.1,0.9,0.1l0.8,0c0.3,0,0.5,0,0.6,0.1
						c0,0,0.1,0.1,0.1,0.1c0,0.2-0.2,0.3-0.7,0.3l-1.6,0c0,0.1,0,0.3,0,0.6c0,0.6,0,1-0.1,1.3c0.3,0,0.5,0,0.7,0s0.3,0,0.4,0
						c0.1,0,0.4,0,0.8,0c0.4,0,0.7,0,0.9,0c0.2,0,0.3,0,0.4,0c0.1,0,0.1,0.1,0.1,0.2c0,0.1,0,0.1,0,0.1c0,0-0.1,0-0.1,0
						c0,0-0.1,0-0.1,0c0,0-0.1,0-0.1,0c0,0-0.1,0-0.1,0c0,0-0.1,0-0.1,0c0,0-0.1,0-0.1,0h-0.1c-0.9,0-1.5,0.1-1.8,0.1
						c-0.8,0-1.2-0.1-1.2-0.3c0-0.4,0-0.9,0-1.3c0-1.3,0-2.4,0.1-3.3c0.1-0.2,0.4-0.2,0.9-0.3C95.2,174.7,95.4,174.7,95.7,174.7z"/>
					<path class="st2" d="M98.7,175c0.2-0.1,0.4-0.2,0.6-0.3c0.2-0.1,0.4-0.1,0.6-0.1c0.2,0,0.4,0,0.6,0c0.2,0,0.4,0.1,0.6,0.1
						c0.2,0.1,0.3,0.2,0.5,0.3c0.1,0.1,0.2,0.3,0.2,0.5c0,0.1,0,0.1-0.1,0.2c-0.1,0-0.1,0.1-0.2,0.1c-0.1,0-0.1,0-0.2-0.1
						c0,0-0.1-0.1-0.1-0.2c-0.2-0.4-0.6-0.5-1.2-0.5c-0.4,0-0.7,0.1-1,0.3c-0.3,0.2-0.4,0.4-0.4,0.8c0,0.2,0.1,0.4,0.2,0.5
						c0.1,0.1,0.3,0.2,0.5,0.3c0.2,0.1,0.4,0.1,0.6,0.2c0.2,0.1,0.5,0.1,0.7,0.2c0.2,0.1,0.4,0.2,0.6,0.3c0.2,0.1,0.3,0.2,0.5,0.4
						c0.1,0.2,0.2,0.4,0.2,0.7c0,0.4-0.2,0.7-0.6,1c-0.4,0.3-0.8,0.4-1.4,0.4c-0.4,0-0.9-0.1-1.3-0.3c-0.4-0.2-0.6-0.4-0.6-0.6
						c0-0.1,0-0.1,0.1-0.1c0.1,0,0.1-0.1,0.2-0.1c0.1,0,0.1,0,0.2,0.1s0.1,0.1,0.2,0.1c0.1,0.1,0.1,0.1,0.2,0.1
						c0.4,0.2,0.8,0.3,1.2,0.3c0.3,0,0.6-0.1,0.9-0.3c0.3-0.2,0.4-0.4,0.4-0.8c0-0.2-0.1-0.4-0.2-0.5c-0.2-0.1-0.4-0.2-0.6-0.3
						c-0.2-0.1-0.5-0.1-0.8-0.2c-0.3-0.1-0.5-0.2-0.8-0.2c-0.2-0.1-0.4-0.2-0.6-0.4c-0.2-0.2-0.2-0.4-0.2-0.7c0-0.3,0.1-0.5,0.2-0.7
						C98.4,175.3,98.5,175.1,98.7,175z"/>
					<path class="st2" d="M103.2,175c0.2-0.1,0.4-0.2,0.6-0.3c0.2-0.1,0.4-0.1,0.6-0.1c0.2,0,0.4,0,0.6,0c0.2,0,0.4,0.1,0.6,0.1
						c0.2,0.1,0.3,0.2,0.5,0.3c0.1,0.1,0.2,0.3,0.2,0.5c0,0.1,0,0.1-0.1,0.2c-0.1,0-0.1,0.1-0.2,0.1c-0.1,0-0.1,0-0.2-0.1
						s-0.1-0.1-0.1-0.2c-0.2-0.4-0.6-0.5-1.2-0.5c-0.4,0-0.7,0.1-1,0.3c-0.3,0.2-0.4,0.4-0.4,0.8c0,0.2,0.1,0.4,0.2,0.5
						c0.1,0.1,0.3,0.2,0.5,0.3c0.2,0.1,0.4,0.1,0.6,0.2c0.2,0.1,0.5,0.1,0.7,0.2c0.2,0.1,0.4,0.2,0.6,0.3c0.2,0.1,0.3,0.2,0.5,0.4
						c0.1,0.2,0.2,0.4,0.2,0.7c0,0.4-0.2,0.7-0.6,1c-0.4,0.3-0.8,0.4-1.4,0.4c-0.4,0-0.9-0.1-1.3-0.3c-0.4-0.2-0.6-0.4-0.6-0.6
						c0-0.1,0-0.1,0.1-0.1c0.1,0,0.1-0.1,0.2-0.1c0.1,0,0.1,0,0.2,0.1s0.1,0.1,0.2,0.1c0.1,0.1,0.1,0.1,0.2,0.1
						c0.4,0.2,0.8,0.3,1.2,0.3c0.3,0,0.6-0.1,0.9-0.3c0.3-0.2,0.4-0.4,0.4-0.8c0-0.2-0.1-0.4-0.2-0.5c-0.2-0.1-0.4-0.2-0.6-0.3
						c-0.2-0.1-0.5-0.1-0.8-0.2c-0.3-0.1-0.5-0.2-0.8-0.2c-0.2-0.1-0.4-0.2-0.6-0.4c-0.2-0.2-0.2-0.4-0.2-0.7c0-0.3,0.1-0.5,0.2-0.7
						C102.8,175.3,103,175.1,103.2,175z"/>
				</g>
				<g>
					<path class="st2" d="M126.5,175.8c-0.1,0.1-0.1,0.1-0.2,0.1c-0.1,0-0.1,0-0.2,0c0,0-0.1,0-0.1-0.1c0,0-0.1-0.1-0.1-0.1
						c-0.1-0.1-0.1-0.1-0.1-0.1c-0.2-0.3-0.6-0.4-0.9-0.4c-0.4,0-0.7,0.1-1.1,0.4c-0.3,0.2-0.6,0.6-0.8,1c-0.2,0.4-0.3,0.8-0.3,1.2
						c0,0.5,0.2,1,0.5,1.3c0.4,0.3,0.8,0.5,1.4,0.5c0.6,0,1.1-0.2,1.5-0.5c0.1-0.1,0.1-0.1,0.2-0.2c0.1-0.1,0.2-0.2,0.2-0.2
						c0.1,0,0.1-0.1,0.2-0.1c0.1,0,0.1,0,0.2,0c-0.2,0.4-0.5,0.7-1,0.9c-0.5,0.2-1,0.3-1.6,0.3c-0.6,0-1.1-0.2-1.5-0.5
						c-0.4-0.3-0.6-0.8-0.6-1.5c0-0.4,0.1-0.8,0.2-1.2c0.1-0.4,0.3-0.7,0.6-1c0.2-0.3,0.5-0.5,0.9-0.7c0.4-0.2,0.7-0.3,1.1-0.3
						C125.7,174.8,126.2,175.1,126.5,175.8z"/>
					<path class="st2" d="M131.1,174.9c0.1-0.1,0.2-0.2,0.3-0.2c0.1,0,0.1,0,0.2,0c0,0.5,0,1,0,1.5c0,0.5,0,1.1,0,1.9
						c0,0.8,0,1.3,0,1.5c-0.1,0.1-0.2,0.1-0.3,0.1c-0.1,0-0.1,0-0.2,0c0-0.3,0-0.5,0-0.8l0-1.6c-0.4,0-0.9-0.1-1.4-0.1
						c-0.5,0-1,0-1.6,0.1c0,0.9-0.1,1.6-0.1,2.1c-0.1,0.1-0.2,0.1-0.3,0.1c-0.1,0-0.1,0-0.2,0c0-0.2,0-0.6,0-1c0-0.4,0-1.1,0.1-2.1
						c0.1-1,0.1-1.5,0.1-1.7c0.1-0.1,0.2-0.1,0.3-0.1c0,0,0.1,0,0.1,0c0,0.1,0,0.3,0,0.5c0,0.2,0,0.5,0,0.9c0,0.4,0,0.7,0,0.9
						c0.6-0.1,1.1-0.1,1.6-0.1s0.9,0,1.3,0c0-0.2,0-0.4,0-0.8S131.1,175.5,131.1,174.9z"/>
					<path class="st2" d="M133.4,174.8c0,2.1-0.1,3.8-0.1,5c-0.1,0.1-0.1,0.1-0.2,0.1c-0.1,0-0.1,0-0.1,0c-0.1-0.1-0.2-0.2-0.2-0.4
						c0-2.3,0-3.6,0-4c0-0.4,0.1-0.6,0.1-0.7c0-0.1,0.1-0.1,0.2-0.1C133.2,174.7,133.3,174.8,133.4,174.8z"/>
					<path class="st2" d="M135.1,175l0,3.1c0,0.5,0,0.9,0,1.4c0.3,0,0.5,0,0.8,0l1.5,0c0.2,0,0.3,0.1,0.3,0.2c0,0.2-0.5,0.2-1.5,0.2
						c-0.2,0-0.6,0-0.9,0c-0.4,0-0.6-0.1-0.7-0.1c0-0.5,0-1.3,0-2.5l0-2.5c0.1-0.1,0.2-0.1,0.3-0.1C135,174.7,135.1,174.8,135.1,175
						z"/>
					<path class="st2" d="M139.6,179.8l-0.6,0c-0.3,0-0.5,0-0.6-0.1c-0.1,0-0.1-0.1-0.1-0.2c0-0.5,0-1.2,0.1-2.1
						c0-0.9,0.1-1.5,0.1-2c0-0.2,0.2-0.4,0.5-0.5c0.4-0.1,0.7-0.2,1.2-0.2c0.8,0,1.4,0.2,1.9,0.7c0.5,0.4,0.8,1,0.8,1.7
						c0,0.4-0.1,0.7-0.2,1c-0.1,0.3-0.3,0.6-0.5,0.8c-0.2,0.2-0.4,0.4-0.7,0.6C140.9,179.7,140.3,179.8,139.6,179.8z M142.3,177.3
						c0-0.6-0.2-1.1-0.6-1.5c-0.4-0.4-1-0.6-1.6-0.6c-0.3,0-0.7,0.1-1.2,0.3c0,0.4,0,1-0.1,1.7s-0.1,1.3-0.1,1.6c0,0.3,0,0.5,0,0.6
						c0.3,0.1,0.5,0.1,0.9,0.1c0.8,0,1.4-0.2,1.9-0.6C142.1,178.5,142.3,178,142.3,177.3z"/>
					<path class="st2" d="M144.2,178.4l0,1.1c0,0.1,0,0.2-0.1,0.3c-0.1,0.1-0.1,0.1-0.2,0.1s-0.1,0-0.2,0c-0.1-0.5-0.1-1-0.1-1.5
						c0-0.5,0-1,0-1.6c0-0.6,0-1.1,0.1-1.4c0-0.4,0.5-0.6,1.5-0.6c0.5,0,1,0.1,1.5,0.3c0.2,0.1,0.4,0.3,0.6,0.5
						c0.2,0.2,0.2,0.4,0.2,0.7c0,0.3-0.1,0.5-0.2,0.7c-0.1,0.2-0.3,0.4-0.4,0.5c-0.2,0.1-0.4,0.3-0.6,0.4c-0.4,0.2-0.8,0.3-1.2,0.3
						c0.2,0.1,0.6,0.4,1.1,0.9c0.2,0.1,0.3,0.3,0.6,0.4c0.2,0.1,0.5,0.2,0.7,0.2c0,0,0.1,0,0.1,0c0.1,0,0.1,0,0.2,0
						c0.1,0,0.1,0,0.1,0c0,0,0.1,0.1,0.1,0.1c0,0.2-0.2,0.2-0.6,0.2c-0.5,0-0.9-0.2-1.4-0.5c-0.2-0.2-0.4-0.3-0.6-0.5
						c-0.5-0.4-0.9-0.7-1.3-0.8C144.2,178.2,144.2,178.3,144.2,178.4z M147.1,176.3c0-0.4-0.2-0.7-0.5-0.9c-0.4-0.2-0.8-0.3-1.4-0.3
						c-0.3,0-0.7,0-1,0.1c0,0.4,0,0.8,0,1.2c0,0.5,0,0.8,0,0.9c0,0.2,0,0.3,0,0.4c0.7-0.1,1.2-0.1,1.6-0.2c0.4-0.1,0.7-0.3,0.9-0.4
						C147,176.9,147.1,176.6,147.1,176.3z"/>
					<path class="st2" d="M150.4,174.7l1.1,0c0.4,0,0.6,0,0.8,0.1c0,0.1-0.1,0.2-0.1,0.3c-0.1,0-0.2,0.1-0.4,0.1l-1.5,0
						c-0.4,0-0.7,0-1,0c-0.1,0.3-0.1,0.6-0.1,1.1l0,0.3c0,0.1,0,0.3,0,0.4c0.2,0,0.5,0.1,0.9,0.1l0.8,0c0.3,0,0.5,0,0.6,0.1
						c0,0,0.1,0.1,0.1,0.1c0,0.2-0.2,0.3-0.7,0.3l-1.6,0c0,0.1,0,0.3,0,0.6c0,0.6,0,1-0.1,1.3c0.3,0,0.5,0,0.7,0c0.1,0,0.3,0,0.4,0
						c0.1,0,0.4,0,0.8,0c0.4,0,0.7,0,0.9,0s0.3,0,0.4,0c0.1,0,0.1,0.1,0.1,0.2c0,0.1,0,0.1,0,0.1c0,0-0.1,0-0.1,0c0,0-0.1,0-0.1,0
						c0,0-0.1,0-0.1,0c0,0-0.1,0-0.1,0c0,0-0.1,0-0.1,0c0,0-0.1,0-0.1,0h-0.1c-0.9,0-1.5,0.1-1.8,0.1c-0.8,0-1.2-0.1-1.2-0.3
						c0-0.4,0-0.9,0-1.3c0-1.3,0-2.4,0.1-3.3c0.1-0.2,0.4-0.2,0.9-0.3C149.9,174.7,150.2,174.7,150.4,174.7z"/>
					<path class="st2" d="M156.9,179.2l0.1-4.4c0.1-0.1,0.2-0.1,0.2-0.1c0.1,0,0.2,0,0.2,0c0,0.6,0,1.1,0,1.6l-0.1,3.3
						c0,0.1,0,0.2,0,0.3c-0.2,0.1-0.3,0.2-0.4,0.2l-0.1,0c0,0-0.1,0-0.1-0.1c0,0-0.1,0-0.1-0.1c0-0.1-0.1-0.1-0.1-0.1
						c0,0,0-0.1-0.1-0.2c0-0.1-0.1-0.1-0.1-0.2c0,0-0.2-0.2-0.4-0.6s-0.4-0.7-0.5-0.7c-0.1-0.1-0.2-0.3-0.4-0.6
						c-0.2-0.3-0.4-0.6-0.5-0.7c-0.4-0.5-0.7-0.8-1-1.1c0,0.6,0,1.3,0,2c0,0.7,0,1.5,0,2.3c-0.1,0.1-0.2,0.1-0.5,0.1
						c0-2.7,0-4.3,0-4.9c0.1-0.1,0.2-0.1,0.3-0.1c0.1,0,0.2,0,0.2,0.1c0.1,0.1,0.3,0.2,0.4,0.3c0.5,0.5,1,1.1,1.4,1.7
						C155.9,177.6,156.4,178.4,156.9,179.2z"/>
					<path class="st2" d="M159.1,175c0,0.1,0,0.3-0.1,0.6c-0.1,0.3-0.1,0.4-0.1,0.5c0,0.1-0.1,0.2-0.2,0.2l-0.2,0
						c-0.1,0-0.1-0.1-0.1-0.2c0-0.1,0-0.3,0.1-0.6c0.1-0.3,0.1-0.5,0.1-0.6c0-0.1,0.1-0.2,0.2-0.2l0.1,0
						C159.1,174.9,159.1,174.9,159.1,175z"/>
					<path class="st2" d="M160.4,175c0.2-0.1,0.4-0.2,0.6-0.3c0.2-0.1,0.4-0.1,0.6-0.1c0.2,0,0.4,0,0.6,0c0.2,0,0.4,0.1,0.6,0.1
						c0.2,0.1,0.3,0.2,0.5,0.3c0.1,0.1,0.2,0.3,0.2,0.5c0,0.1,0,0.1-0.1,0.2c-0.1,0-0.1,0.1-0.2,0.1c-0.1,0-0.1,0-0.2-0.1
						s-0.1-0.1-0.1-0.2c-0.2-0.4-0.6-0.5-1.2-0.5c-0.4,0-0.7,0.1-1,0.3c-0.3,0.2-0.4,0.4-0.4,0.8c0,0.2,0.1,0.4,0.2,0.5
						c0.1,0.1,0.3,0.2,0.5,0.3c0.2,0.1,0.4,0.1,0.6,0.2c0.2,0.1,0.5,0.1,0.7,0.2c0.2,0.1,0.4,0.2,0.6,0.3c0.2,0.1,0.3,0.2,0.5,0.4
						c0.1,0.2,0.2,0.4,0.2,0.7c0,0.4-0.2,0.7-0.6,1c-0.4,0.3-0.8,0.4-1.4,0.4c-0.4,0-0.9-0.1-1.3-0.3c-0.4-0.2-0.6-0.4-0.6-0.6
						c0-0.1,0-0.1,0.1-0.1c0.1,0,0.1-0.1,0.2-0.1c0.1,0,0.1,0,0.2,0.1c0.1,0,0.1,0.1,0.2,0.1c0.1,0.1,0.1,0.1,0.2,0.1
						c0.4,0.2,0.8,0.3,1.2,0.3c0.3,0,0.6-0.1,0.9-0.3c0.3-0.2,0.4-0.4,0.4-0.8c0-0.2-0.1-0.4-0.2-0.5c-0.2-0.1-0.4-0.2-0.6-0.3
						c-0.2-0.1-0.5-0.1-0.8-0.2c-0.3-0.1-0.5-0.2-0.8-0.2c-0.2-0.1-0.4-0.2-0.6-0.4c-0.2-0.2-0.2-0.4-0.2-0.7c0-0.3,0.1-0.5,0.2-0.7
						C160.1,175.3,160.2,175.1,160.4,175z"/>
					<path class="st2" d="M166.1,177.5c0-0.7,0-1.4-0.1-2c0-0.1,0.1-0.3,0.2-0.4c0.1-0.1,0.3-0.2,0.5-0.2c0.4-0.1,0.9-0.2,1.3-0.2
						c0.6,0,1.1,0.1,1.5,0.4c0.4,0.3,0.5,0.7,0.5,1.3c0,0.6-0.2,1-0.7,1.4c-0.5,0.3-1,0.5-1.7,0.5c-0.3,0-0.7-0.1-1.1-0.2
						c0,0.2,0,0.5,0,0.9l0,0.3c0,0.1,0,0.2,0,0.4c0,0,0,0.1-0.1,0.1c0,0,0,0-0.1,0c0,0,0,0-0.1,0c0,0,0,0,0,0c0,0-0.1,0-0.1,0h-0.1
						c0-0.4,0-0.7,0-1L166.1,177.5z M166.6,177.6c0.3,0.2,0.8,0.3,1.2,0.3c0.5,0,0.9-0.2,1.2-0.4c0.3-0.3,0.5-0.7,0.5-1.1
						c0-0.4-0.2-0.8-0.5-1c-0.3-0.2-0.7-0.3-1.2-0.3c-0.5,0-0.9,0.1-1.3,0.3C166.6,175.8,166.6,176.5,166.6,177.6z"/>
					<path class="st2" d="M171.3,178.4l0,1.1c0,0.1,0,0.2-0.1,0.3c-0.1,0.1-0.1,0.1-0.2,0.1s-0.1,0-0.2,0c-0.1-0.5-0.1-1-0.1-1.5
						c0-0.5,0-1,0-1.6c0-0.6,0-1.1,0.1-1.4c0-0.4,0.5-0.6,1.5-0.6c0.5,0,1,0.1,1.5,0.3c0.2,0.1,0.4,0.3,0.6,0.5
						c0.2,0.2,0.2,0.4,0.2,0.7c0,0.3-0.1,0.5-0.2,0.7c-0.1,0.2-0.3,0.4-0.4,0.5c-0.2,0.1-0.4,0.3-0.6,0.4c-0.4,0.2-0.8,0.3-1.2,0.3
						c0.2,0.1,0.6,0.4,1.1,0.9c0.2,0.1,0.3,0.3,0.6,0.4c0.2,0.1,0.5,0.2,0.7,0.2c0,0,0.1,0,0.1,0c0.1,0,0.1,0,0.2,0
						c0.1,0,0.1,0,0.1,0c0,0,0.1,0.1,0.1,0.1c0,0.2-0.2,0.2-0.6,0.2c-0.5,0-0.9-0.2-1.4-0.5c-0.2-0.2-0.4-0.3-0.6-0.5
						c-0.5-0.4-0.9-0.7-1.3-0.8C171.3,178.2,171.3,178.3,171.3,178.4z M174.2,176.3c0-0.4-0.2-0.7-0.5-0.9c-0.4-0.2-0.8-0.3-1.4-0.3
						c-0.3,0-0.7,0-1,0.1c0,0.4,0,0.8,0,1.2c0,0.5,0,0.8,0,0.9c0,0.2,0,0.3,0,0.4c0.7-0.1,1.2-0.1,1.6-0.2c0.4-0.1,0.7-0.3,0.9-0.4
						C174.1,176.9,174.2,176.6,174.2,176.3z"/>
					<path class="st2" d="M180.4,176.2c0.1,0.3,0.2,0.7,0.2,1.1c0,0.4-0.1,0.8-0.2,1.1c-0.2,0.4-0.4,0.6-0.6,0.8
						c-0.5,0.4-1.1,0.6-1.8,0.6c-0.7,0-1.2-0.2-1.7-0.6c-0.5-0.4-0.7-1-0.7-1.8c0-0.4,0.1-0.8,0.2-1.2c0.1-0.3,0.3-0.6,0.6-0.8
						c0.5-0.4,1.1-0.7,1.7-0.7c0.7,0,1.2,0.2,1.8,0.6C180,175.7,180.2,175.9,180.4,176.2z M176,177.6c0,0.6,0.2,1.1,0.5,1.5
						c0.3,0.4,0.8,0.5,1.4,0.5c0.7,0,1.2-0.2,1.6-0.6c0.4-0.4,0.6-0.9,0.6-1.6c0-0.6-0.2-1.1-0.6-1.5c-0.4-0.4-0.9-0.6-1.5-0.6
						c-0.6,0-1.1,0.2-1.5,0.6C176.2,176.3,176,176.8,176,177.6z"/>
					<path class="st2" d="M183.6,174.8c0,0.4,0,0.9,0.1,1.6c0.1,0.7,0.1,1.3,0.1,1.7c0,0.6-0.1,1-0.3,1.3c-0.2,0.3-0.6,0.4-1.1,0.4
						c-0.3,0-0.6-0.1-0.9-0.2c-0.3-0.1-0.5-0.3-0.6-0.5c0.1-0.1,0.2-0.1,0.3-0.1c0.1,0,0.2,0,0.2,0.1c0.1,0.1,0.1,0.1,0.2,0.2
						c0.1,0.1,0.2,0.1,0.3,0.2c0.1,0.1,0.3,0.1,0.6,0.1c0.2,0,0.4-0.1,0.5-0.3c0.1-0.2,0.2-0.5,0.2-0.9s0-0.9-0.1-1.5
						c0-0.6-0.1-1-0.1-1.3c0-0.3,0-0.5,0.1-0.5c0-0.1,0.1-0.1,0.2-0.1C183.4,174.8,183.5,174.8,183.6,174.8z"/>
					<path class="st2" d="M186.6,174.7l1.1,0c0.4,0,0.6,0,0.8,0.1c0,0.1-0.1,0.2-0.1,0.3c-0.1,0-0.2,0.1-0.4,0.1l-1.5,0
						c-0.4,0-0.7,0-1,0c-0.1,0.3-0.1,0.6-0.1,1.1l0,0.3c0,0.1,0,0.3,0,0.4c0.2,0,0.5,0.1,0.9,0.1l0.8,0c0.3,0,0.5,0,0.6,0.1
						c0,0,0.1,0.1,0.1,0.1c0,0.2-0.2,0.3-0.7,0.3l-1.6,0c0,0.1,0,0.3,0,0.6c0,0.6,0,1-0.1,1.3c0.3,0,0.5,0,0.7,0c0.1,0,0.3,0,0.4,0
						c0.1,0,0.4,0,0.8,0c0.4,0,0.7,0,0.9,0s0.3,0,0.4,0c0.1,0,0.1,0.1,0.1,0.2c0,0.1,0,0.1,0,0.1c0,0-0.1,0-0.1,0c0,0-0.1,0-0.1,0
						c0,0-0.1,0-0.1,0c0,0-0.1,0-0.1,0c0,0-0.1,0-0.1,0c0,0-0.1,0-0.1,0h-0.1c-0.9,0-1.5,0.1-1.8,0.1c-0.8,0-1.2-0.1-1.2-0.3
						c0-0.4,0-0.9,0-1.3c0-1.3,0-2.4,0.1-3.3c0.1-0.2,0.4-0.2,0.9-0.3C186.1,174.7,186.4,174.7,186.6,174.7z"/>
					<path class="st2" d="M193.1,175.8c-0.1,0.1-0.1,0.1-0.2,0.1c-0.1,0-0.1,0-0.2,0c0,0-0.1,0-0.1-0.1c0,0-0.1-0.1-0.1-0.1
						c-0.1-0.1-0.1-0.1-0.1-0.1c-0.2-0.3-0.6-0.4-0.9-0.4c-0.4,0-0.7,0.1-1.1,0.4c-0.3,0.2-0.6,0.6-0.8,1c-0.2,0.4-0.3,0.8-0.3,1.2
						c0,0.5,0.2,1,0.5,1.3c0.4,0.3,0.8,0.5,1.4,0.5c0.6,0,1.1-0.2,1.5-0.5c0.1-0.1,0.1-0.1,0.2-0.2c0.1-0.1,0.2-0.2,0.2-0.2
						c0.1,0,0.1-0.1,0.2-0.1c0.1,0,0.1,0,0.2,0c-0.2,0.4-0.5,0.7-1,0.9c-0.5,0.2-1,0.3-1.6,0.3c-0.6,0-1.1-0.2-1.5-0.5
						c-0.4-0.3-0.6-0.8-0.6-1.5c0-0.4,0.1-0.8,0.2-1.2c0.1-0.4,0.3-0.7,0.6-1c0.2-0.3,0.5-0.5,0.9-0.7c0.4-0.2,0.7-0.3,1.1-0.3
						C192.4,174.8,192.9,175.1,193.1,175.8z"/>
					<path class="st2" d="M193.4,175.1c0-0.2,0.8-0.3,2.4-0.3c0.4,0,0.9,0,1.4,0c0.6,0,0.9,0.1,0.9,0.1c0,0.2-0.2,0.3-0.6,0.3
						c-0.1,0-0.3,0-0.5,0c-0.3,0-0.5,0-0.7,0c-0.2,0-0.3,0-0.3,0.1c0,1,0,2.5-0.1,4.6c-0.1,0.1-0.2,0.1-0.4,0.1c0-0.2,0-0.5,0-0.7
						l0-3.1c0-0.4,0-0.7,0-0.9c-0.1,0-0.2,0-0.4,0c-0.2,0-0.4,0-0.7,0s-0.6,0-0.7,0C193.6,175.2,193.4,175.2,193.4,175.1z"/>
				</g>
			</g>
			<g>
				<path class="st2" d="M94.4,105.6c0.4-1.6-0.3-3.3,0.2-3.8c0.1-0.1,0-0.4-0.1-0.4c-0.6-0.2-1.3,0.1-1.6,0.3
					c-0.1,0.1-0.3,0-0.4-0.1c-0.4-0.7-0.4-2.3,0.3-3.2c0.2-0.2,0-0.5-0.2-0.5c-3.8-0.1-4.8,3.6-5.4,4.7c-0.1,0.2-0.3,0.2-0.4,0.1
					c-0.2-0.3-0.4-0.7-0.5-1.1c0-0.2-0.4-0.3-0.5-0.1c-0.9,1.4-0.8,3.1-0.2,4.4c-7.3,2.1-12.7,8.9-12.7,17c0,9.8,7.9,17.7,17.7,17.7
					s17.7-7.9,17.7-17.7C108.1,114.5,102.2,107.4,94.4,105.6z M90.4,138.7c-8.7,0-15.8-7.1-15.8-15.8c0-7.5,5.2-13.7,12.1-15.4
					c0,0,0,0,0,0c1.7,1.2,4.2,0.9,5.2,0.5c0.5-0.2,1-0.5,1.3-0.7c7.4,1.3,13,7.8,13,15.5C106.2,131.6,99.1,138.7,90.4,138.7z"/>
				<path class="st2" d="M99.3,126.6c-0.4-0.3-1-0.2-1.3,0.3c-1.8,2.6-4.7,4.2-7.9,4.2c-3,0-5.9-1.5-7.7-4c-0.3-0.4-0.9-0.5-1.3-0.2
					c-0.4,0.3-0.5,0.9-0.2,1.3c2.1,3,5.6,4.7,9.2,4.7c3.8,0,7.3-1.9,9.4-5C99.9,127.5,99.7,126.9,99.3,126.6z"/>
				<path class="st2" d="M82.6,122.1c0.5,0.1,0.9-0.2,1.3-0.4c0.6-0.5,0.8-1.3,0.5-2c-0.1,0.3-0.4,0.4-0.7,0.4
					c-0.4,0-0.8-0.4-0.8-0.8c0-0.3,0.2-0.6,0.4-0.7c-1-0.4-2.4,0.5-2.3,1.6c0,0.1,0,0.2,0,0.2C80.9,121.3,81.8,122.1,82.6,122.1z"/>
				<path class="st2" d="M99.2,120.1c-0.4,0-0.8-0.4-0.8-0.8c0-0.3,0.2-0.6,0.4-0.7c-1-0.4-2.4,0.5-2.3,1.6c0,0.1,0,0.2,0,0.2
					c-0.1,0.9,0.8,1.6,1.6,1.7c0.5,0.1,0.9-0.2,1.3-0.4c0.6-0.5,0.8-1.3,0.5-2C99.7,120,99.5,120.1,99.2,120.1z"/>
			</g>
			<g>
				<path class="st2" d="M155.1,121c-0.4-0.3-1-0.4-1.5-0.5c-1.3-0.4-2.7-0.8-4-1.3c-0.2,0-0.3,0.1-0.4,0.3
					c-0.2,0.3,0.1,0.6,0.3,0.7c1.1,0.3,2.2,0.7,3.3,1c0,0,0,0.1,0,0.2c-0.6,0.1-1.2,0.3-1.7,0.5c-0.6,0.2-1.3,0.3-1.8,0.6
					c-0.4,0.3-0.1,0.8,0.3,0.9c1.8-0.6,3.7-1.1,5.5-1.7C155.1,121.5,155.2,121.2,155.1,121z"/>
				<path class="st2" d="M169,122.5c-0.6-0.3-1.2-0.4-1.8-0.6c-0.6-0.2-1.1-0.4-1.7-0.5c0,0,0-0.1,0-0.2c1.1-0.3,2.2-0.7,3.3-1
					c0.3-0.1,0.6-0.4,0.3-0.7c-0.1-0.2-0.2-0.3-0.4-0.3c-1.3,0.4-2.7,0.9-4,1.3c-0.5,0.2-1,0.2-1.5,0.5c-0.1,0.2,0,0.4,0,0.7
					c1.8,0.6,3.7,1.1,5.5,1.7C169.1,123.3,169.4,122.8,169,122.5z"/>
				<path class="st2" d="M169.6,108.5c0.1-0.2,0.2-0.3,0.2-0.5V97.9c0-0.1,0-0.1,0-0.2c-0.1-0.6-0.9-0.8-1.3-0.4l-8.6,5.2
					c-0.3-0.2-0.7-0.3-1.2-0.3c-0.4,0-0.8,0.1-1.2,0.3l-8.6-5.2c-0.5-0.4-1.2-0.2-1.3,0.4c0,0.1,0,0.1,0,0.2V108
					c0,0.5,0.4,0.9,0.8,0.9c-4.2,3.2-6.8,8.3-6.8,13.9c0,9.8,7.9,17.7,17.7,17.7c9.8,0,17.7-7.9,17.7-17.7
					C177,117,174.1,111.8,169.6,108.5z M159.3,138.7c-8.7,0-15.8-7.1-15.8-15.8c0-7.3,5-13.5,11.7-15.3c-0.7,1.5,0.1,3.3-0.3,3.8
					c-0.1,0.1,0,0.3,0.1,0.4c0.6,0.2,1.1-0.1,1.4-0.3c0.1-0.1,0.3,0,0.3,0.1c0.3,0.6,0.3,2.1-0.3,2.8c-0.1,0.2,0,0.4,0.2,0.4
					c3.4,0.1,4.3-3.2,4.8-4.1c0.1-0.1,0.3-0.2,0.4-0.1c0.2,0.2,0.4,0.6,0.5,1c0,0.2,0.3,0.3,0.5,0.1c0.9-1.4,0.7-3.1,0-4.3
					c7,1.6,12.3,7.9,12.3,15.4C175.1,131.6,168,138.7,159.3,138.7z"/>
				<path class="st2" d="M167.5,128.1l-15.5,0.3c-0.2,0-0.4,0.1-0.6,0.3s-0.2,0.4-0.1,0.6c1,3.5,5,5.5,8.4,5.5c3.7,0,8-2.4,8.5-5.9
					c0-0.2,0-0.4-0.2-0.6C167.9,128.2,167.7,128.1,167.5,128.1z M159.7,133.4c-2.4,0-5.4-1.4-6.6-3.6l13.5-0.3
					C165.6,131.9,162.4,133.4,159.7,133.4z"/>
			</g>
			<g>
				<path class="st2" d="M133.9,107.7c0.1-0.3,0.2-0.5,0.2-0.8c0.1-1.3-0.9-2.4-2.2-2.5c-0.5,0-1,0.1-1.4,0.4c-0.2-1.1-1-2-2.2-2
					c-0.9,0-1.7,0.5-2.1,1.3c-0.2-1-1.1-1.8-2.1-1.9c-1.1,0-2,0.7-2.3,1.7c-0.4-0.5-1-0.8-1.7-0.9c-1.3-0.1-2.3,1-2.4,2.3
					c0,0,0,0,0,0c-0.3-0.2-0.7-0.3-1.1-0.4c-1.3-0.1-2.3,1-2.4,2.3c0,0.4,0.1,0.9,0.3,1.2c-4.5,3.2-7.5,8.5-7.5,14.5
					c0,9.8,7.9,17.7,17.7,17.7s17.7-7.9,17.7-17.7C142.5,116.4,139,110.8,133.9,107.7z M124.8,138.7c-8.7,0-15.8-7.1-15.8-15.8
					c0-5.5,2.9-10.4,7.2-13.3c0.1,0,0.2,0,0.3,0c0.8,0,1.6-0.4,2-1.1c0,0.1,0,0.2-0.1,0.4c-0.1,1.3,0.9,2.4,2.2,2.5
					c0.6,0,1.2-0.2,1.6-0.6c0.4,0.6,1.1,1.1,1.8,1.1c0.9,0,1.8-0.5,2.1-1.3c0.4,0.4,0.9,0.7,1.5,0.7c1.3,0.1,2.3-1,2.4-2.3
					c0-0.2,0-0.4-0.1-0.6c0.4,0.5,1,0.8,1.6,0.8c0.3,0,0.5,0,0.8-0.1c4.9,2.7,8.2,7.9,8.2,13.9C140.6,131.6,133.5,138.7,124.8,138.7
					z"/>
				<path class="st2" d="M124.9,124.6c-2.3,0-4.2,1.9-4.2,4.2c0,2.3,1.9,4.2,4.2,4.2c2.3,0,4.2-1.9,4.2-4.2
					C129.1,126.5,127.2,124.6,124.9,124.6z M124.9,131.3c-1.4,0-2.6-1.1-2.6-2.6c0-1.4,1.1-2.6,2.6-2.6s2.6,1.1,2.6,2.6
					C127.5,130.2,126.3,131.3,124.9,131.3z"/>
				<path class="st2" d="M117.9,120.1c-0.4,0-0.8-0.4-0.8-0.8c0-0.3,0.2-0.6,0.5-0.7c-1-0.3-2.3,0.5-2.2,1.6c0,0.1,0,0.2,0,0.2
					c-0.1,0.9,0.8,1.6,1.6,1.7c0.5,0.1,0.9-0.2,1.3-0.4c0.7-0.5,0.8-1.5,0.5-2.2C118.6,119.9,118.3,120.1,117.9,120.1z"/>
				<path class="st2" d="M133.4,120.1c-0.4,0-0.8-0.4-0.8-0.8c0-0.3,0.2-0.6,0.5-0.7c-1-0.3-2.3,0.5-2.2,1.6c0,0.1,0,0.2,0,0.2
					c-0.1,0.9,0.8,1.6,1.6,1.7c0.5,0.1,0.9-0.2,1.3-0.4c0.7-0.5,0.8-1.5,0.5-2.2C134.1,119.9,133.8,120.1,133.4,120.1z"/>
			</g>
			<path class="st2" d="M199.3,103L128,69.6c-0.6-0.3-1.2-0.3-1.8,0l-75.4,33.2c-0.8,0.4-1.3,1.1-1.3,2l0,17.2c0,1.2,1,2.2,2.2,2.2
				l7.2,0l0,20.2c0,1.2,1,2.2,2.2,2.2c1.2,0,2.2-1,2.2-2.2l0-22.4c0-1.2-1-2.2-2.2-2.2l-7.2,0l0-13.5L127.1,74l69.1,32.4l0,14.3
				l-6.8,0c-1.2,0-2.2,1-2.2,2.2l0,21.3h-28.5c-2,0-3.7,1.7-3.7,3.7v0.2c0,2,1.7,3.7,3.7,3.7h30.5c0.1,0,0.1,0,0.1,0
				c0,0,0.1,0,0.1,0c1.2,0,2.2-1,2.2-2.2l0-24.5l6.8,0c1.2,0,2.2-1,2.2-2.2l0-17.9C200.5,104.1,200,103.3,199.3,103z M165.2,148.5
				c-0.1,0.3-0.1,0.6-0.3,0.9c-0.1,0.3-0.3,0.5-0.5,0.7c-0.2,0.2-0.5,0.3-0.8,0.3c-0.2,0-0.4-0.1-0.6-0.2c-0.2-0.1-0.3-0.2-0.4-0.4
				c-0.1-0.1-0.2-0.3-0.3-0.5c0,0,0-0.1,0-0.1c0,0.1-0.1,0.2-0.1,0.3c-0.3,0.6-0.8,0.9-1.3,0.9h0c-0.4,0-0.7-0.2-0.9-0.4
				c-0.2-0.2-0.3-0.5-0.3-0.9c0-0.2,0-0.3,0-0.5c0-0.6,0.1-1.5,0.3-2.4c0-0.1,0.1-0.1,0.1-0.2c0.1-0.1,0.3-0.1,0.4-0.1
				c0.1,0,0.2,0,0.2,0c0.1,0,0.2,0.2,0.2,0.3c0,0.1,0,0.3-0.1,0.5c0,0.2-0.1,0.4-0.1,0.6c-0.1,0.4-0.1,0.8-0.1,1.1
				c0,0.3,0,0.5,0,0.7c0,0.1,0,0.3,0.1,0.4c0,0.1,0.1,0.2,0.1,0.2c0,0,0.1,0.1,0.1,0.1c0,0,0.1,0,0.2-0.2c0.1-0.2,0.2-0.4,0.3-0.6
				c0.1-0.3,0.1-0.6,0.2-0.9l0.2-0.9c0.1-0.3,0.1-0.5,0.2-0.6l0,0l0.1-0.1c0.1-0.1,0.3-0.1,0.4-0.1c0.1,0,0.2,0,0.2,0
				c0.1,0,0.1,0.1,0.2,0.2c0,0.2,0,0.5,0.1,1c0,0.5,0.1,0.8,0.1,1.1c0,0.2,0.1,0.5,0.2,0.6c0.1,0.1,0.1,0.3,0.2,0.4
				c0.1,0.1,0.2,0.1,0.3,0.1c0.1,0,0.1,0,0.2-0.1c0.1-0.1,0.2-0.3,0.2-0.6c0.1-0.5,0.1-1,0.1-1.5c0-0.5,0-0.9-0.1-1.2
				c0-0.1,0-0.2,0.1-0.3c0.1-0.1,0.3-0.2,0.4-0.2c0.1,0,0.3,0.1,0.4,0.3c0.1,0.1,0.1,0.3,0.1,0.5c0,0.4,0.1,0.7,0.1,1
				C165.3,147.9,165.2,148.2,165.2,148.5z M166.8,150c0,0.1,0,0.1-0.1,0.2c-0.1,0.1-0.2,0.2-0.3,0.2c-0.1,0-0.2,0-0.2-0.1
				c-0.1-0.1-0.3-0.2-0.3-0.5c0-1.8,0-2.9,0-3.2c0-0.4,0.1-0.6,0.1-0.7c0.1-0.1,0.2-0.2,0.3-0.2c0.1,0,0.2,0,0.3,0.1
				c0.1,0,0.1,0.1,0.1,0.2C166.8,147.8,166.8,149.1,166.8,150z M170.3,150.1c-0.3,0.2-0.8,0.4-1.3,0.4c-0.4,0-0.8-0.1-1.1-0.2
				c-0.4-0.2-0.6-0.4-0.6-0.7c0-0.1,0-0.2,0.2-0.3c0.1-0.1,0.2-0.1,0.3-0.1c0.1,0,0.2,0,0.3,0.1c0.1,0,0.1,0.1,0.2,0.1
				c0,0,0.1,0.1,0.1,0.1c0.2,0.2,0.5,0.2,0.8,0.2c0.2,0,0.4-0.1,0.6-0.2c0.2-0.1,0.2-0.2,0.2-0.4c0-0.1,0-0.2-0.1-0.2
				c-0.1-0.1-0.2-0.2-0.4-0.2c-0.2-0.1-0.4-0.1-0.6-0.2c-0.2-0.1-0.4-0.1-0.6-0.2c-0.2-0.1-0.4-0.2-0.6-0.4
				c-0.2-0.2-0.3-0.4-0.3-0.7c0-0.3,0.1-0.5,0.2-0.7c0.1-0.2,0.3-0.3,0.4-0.5c0.2-0.1,0.3-0.2,0.5-0.2c0.2-0.1,0.4-0.1,0.6-0.1
				c0.2,0,0.3,0,0.5,0c0.2,0,0.3,0.1,0.5,0.1c0.2,0.1,0.4,0.2,0.5,0.3c0.1,0.1,0.2,0.3,0.2,0.5c0,0.2-0.1,0.3-0.2,0.4
				c-0.1,0.1-0.2,0.1-0.3,0.1c-0.2,0-0.3-0.1-0.3-0.1c-0.1-0.1-0.1-0.1-0.1-0.2c-0.1-0.2-0.3-0.3-0.7-0.3c-0.3,0-0.5,0.1-0.7,0.2
				c-0.1,0.1-0.2,0.2-0.2,0.4c0,0.1,0,0.2,0.1,0.2c0.1,0.1,0.2,0.1,0.3,0.2c0.1,0.1,0.3,0.1,0.5,0.2c0.2,0,0.4,0.1,0.6,0.2
				c0.2,0.1,0.4,0.1,0.5,0.2c0.2,0.1,0.3,0.2,0.5,0.4c0.1,0.2,0.2,0.4,0.2,0.7C170.8,149.5,170.7,149.8,170.3,150.1z M174.9,148.8
				c0,0,0,1,0,1.2c0,0.1,0,0.2-0.1,0.2c-0.1,0.1-0.3,0.1-0.4,0.1c-0.1,0-0.2,0-0.2,0c-0.1,0-0.2-0.1-0.2-0.2c0-0.2,0-0.4,0-0.6l0-1
				c-0.2,0-0.5,0-0.8,0c-0.3,0-0.6,0-1,0.1c0,0.6,0,1.1,0,1.4c0,0.1,0,0.2-0.1,0.2c-0.1,0.1-0.3,0.2-0.4,0.2c-0.1,0-0.2,0-0.3-0.1
				c-0.1,0-0.1-0.1-0.1-0.2c0-0.2,0-0.4,0-0.8c0-0.3,0-0.9,0.1-1.7c0-0.8,0.1-1.2,0.1-1.3l0,0l0-0.1c0.1-0.1,0.2-0.2,0.5-0.2
				c0.1,0,0.1,0,0.2,0c0.1,0,0.1,0.1,0.2,0.2c0,0.1,0,0.3,0,0.4c0,0.2,0,0.4,0,0.8c0,0.1,0,0.3,0,0.4c0.3,0,0.7-0.1,1-0.1
				c0.3,0,0.5,0,0.8,0c0-0.1,0-0.2,0-0.3c0-0.3,0-0.6,0-1.1l0,0l0-0.1c0.1-0.2,0.3-0.3,0.5-0.3c0.1,0,0.2,0,0.3,0.1
				c0.1,0,0.1,0.1,0.1,0.2c0,0.4,0,0.8,0,1.2C174.9,147.7,174.9,148.2,174.9,148.8z M177.2,150.4c-0.2,0-0.4,0-0.8,0
				c-0.4,0-0.6-0.1-0.7-0.1c-0.1,0-0.1-0.1-0.1-0.2c0-0.4,0-1,0-2l0-2c0-0.1,0-0.2,0.1-0.2c0.1-0.1,0.3-0.2,0.4-0.2
				c0.2,0,0.4,0.1,0.4,0.5l0,2.5c0,0.3,0,0.6,0,0.8c0.1,0,0.3,0,0.4,0l1.2,0c0.5,0,0.5,0.3,0.5,0.4
				C178.7,150.3,178.2,150.4,177.2,150.4z M179.9,150c0,0.1,0,0.1-0.1,0.2c-0.1,0.1-0.2,0.2-0.3,0.2c-0.1,0-0.2,0-0.2-0.1
				c-0.1-0.1-0.3-0.2-0.3-0.5c0-1.8,0-2.9,0-3.2c0-0.4,0.1-0.6,0.1-0.7c0.1-0.1,0.2-0.2,0.3-0.2c0.1,0,0.2,0,0.3,0.1
				c0.1,0,0.1,0.1,0.1,0.2C179.9,147.8,179.9,149.1,179.9,150z M183.4,150.1c-0.3,0.2-0.8,0.4-1.3,0.4c-0.4,0-0.8-0.1-1.1-0.2
				c-0.4-0.2-0.6-0.4-0.6-0.7c0-0.1,0.1-0.2,0.2-0.3c0.1-0.1,0.2-0.1,0.3-0.1c0.1,0,0.2,0,0.3,0.1c0.1,0,0.1,0.1,0.2,0.1
				c0,0,0.1,0.1,0.1,0.1c0.2,0.2,0.5,0.2,0.8,0.2c0.2,0,0.4-0.1,0.6-0.2c0.2-0.1,0.2-0.2,0.2-0.4c0-0.1,0-0.2-0.1-0.2
				c-0.1-0.1-0.2-0.2-0.4-0.2c-0.2-0.1-0.4-0.1-0.6-0.2c-0.2-0.1-0.4-0.1-0.6-0.2c-0.2-0.1-0.4-0.2-0.6-0.4
				c-0.2-0.2-0.3-0.4-0.3-0.7c0-0.3,0.1-0.5,0.2-0.7c0.1-0.2,0.3-0.3,0.4-0.5c0.2-0.1,0.3-0.2,0.5-0.2c0.2-0.1,0.4-0.1,0.6-0.1
				c0.2,0,0.3,0,0.5,0c0.2,0,0.3,0.1,0.5,0.1c0.2,0.1,0.4,0.2,0.5,0.3c0.1,0.1,0.2,0.3,0.2,0.5c0,0.2-0.1,0.3-0.2,0.4
				c-0.1,0.1-0.2,0.1-0.3,0.1c-0.1,0-0.2,0-0.3-0.1c-0.1-0.1-0.1-0.1-0.1-0.2c-0.1-0.2-0.3-0.3-0.7-0.3c-0.3,0-0.5,0.1-0.7,0.2
				c-0.1,0.1-0.2,0.2-0.2,0.4c0,0.1,0,0.2,0.1,0.2c0.1,0.1,0.2,0.1,0.3,0.2c0.1,0.1,0.3,0.1,0.5,0.2c0.2,0,0.4,0.1,0.6,0.2
				c0.2,0.1,0.4,0.1,0.5,0.2c0.2,0.1,0.3,0.2,0.5,0.4c0.1,0.2,0.2,0.4,0.2,0.7C183.9,149.5,183.7,149.8,183.4,150.1z M187.5,146.7
				c-0.1,0-0.2,0-0.5,0c-0.2,0-0.3,0-0.5,0c0,0.7,0,1.7,0,3.4c0,0.1,0,0.2-0.1,0.2c-0.1,0.1-0.3,0.1-0.5,0.1c-0.1,0-0.3-0.1-0.3-0.3
				c0-0.2,0-0.4,0-0.6l0-2.4c0-0.2,0-0.3,0-0.5l-0.1,0c-0.1,0-0.3,0-0.6,0c-0.3,0-0.5,0-0.6,0c-0.5,0-0.6-0.3-0.6-0.4
				c0-0.4,0.3-0.5,2.2-0.5c0.3,0,0.7,0,1.2,0c0.7,0,0.9,0.1,0.9,0.3C188.2,146.3,188.1,146.7,187.5,146.7z"/>
		</g>
	</g>
</g>
<g id="Layer_3">
</g>
<g id="Layer_2">
</g>
<g id="Layer_1">
</g>
</svg>
