<?xml version="1.0" encoding="utf-8"?>
<!-- Generator: Adobe Illustrator 22.0.1, SVG Export Plug-In . SVG Version: 6.00 Build 0)  -->
<svg version="1.1" xmlns="http://www.w3.org/2000/svg" xmlns:xlink="http://www.w3.org/1999/xlink" x="0px" y="0px"
	 viewBox="0 0 250 250" style="enable-background:new 0 0 250 250;" xml:space="preserve">
<style type="text/css">
	.st0{fill:#5763AB;}
	.st1{fill:#FFFFFF;}
</style>
<g id="Layer_4">
</g>
<g id="Layer_3">
	<g>
		<g>
			<path class="st0" d="M80,91C80,91.1,80.1,91.1,80,91C80.1,91.1,80,91.1,80,91z"/>
			<path class="st0" d="M101.8,139.5C101.8,139.5,101.9,139.5,101.8,139.5C101.9,139.5,101.8,139.5,101.8,139.5z"/>
			<path class="st0" d="M92.4,148.4C92.4,148.3,92.4,148.3,92.4,148.4C92.4,148.3,92.4,148.3,92.4,148.4z"/>
			<path class="st0" d="M68.6,155.7c0.1,0,0.2,0.1,0.3,0.2l-0.1,0.1l-0.2-0.1L68.6,155.7z"/>
			<path class="st0" d="M78.2,155.8c0.1,0,0.2-0.1,0.3-0.2c0,0.1-0.1,0.2-0.2,0.2L78.2,155.8z"/>
			<g>
				<path class="st1" d="M41.8,181.7c0,0.2-0.2,4.9-5.5,4.9c-5.3,0-5.5-4.7-5.5-4.9v-16.6c0-0.1-0.1-5.3,6.4-5.3h6.5
					c7.8,0,13,3,13,9.8c0,6.4-4.4,9.4-13,9.4h-1.8V181.7z M41.7,172.4h2.6c2,0,2.6-1.7,2.6-2.9c0-1.3-0.6-2.9-2.6-2.9h-2.6V172.4z"
					/>
				<path class="st1" d="M69.8,163.2v19.3c0,0.2,0,4.1-5.5,4.1c-5.5,0-5.5-4-5.5-4.1v-19.3c0-0.2,0-4.1,5.5-4.1
					C69.8,159.1,69.8,163.1,69.8,163.2z"/>
				<path class="st1" d="M82.3,166.8c6.6,0,11.1,2.3,11.1,8.7v6.7c0,4.1-4.6,4.4-5.9,4.4c-5,0-5.2-2.7-5.2-2.7
					c-0.8,1.7-2.4,2.7-5.2,2.7c-3.9,0-5.7-2.3-5.7-5.5s3.1-5.5,7.3-5.5c1.1,0,2.4,0.1,3.5,0.4c0-1.9-1.6-3.1-4.1-3.1
					c-1.4,0-2.6,0.7-3.8,0.7c-1.6,0-2-1.4-2-2.4C72.5,167.4,80.1,166.8,82.3,166.8z M81.1,182.1c1.2,0,1.8-0.9,1.8-2
					c0-1.1-0.7-2-1.8-2c-1.2,0-1.9,0.9-1.9,2C79.2,181.2,79.9,182.1,81.1,182.1z"/>
				<path class="st1" d="M111.1,182.4c-0.9,1.1-3.5,4.2-8.5,4.2c-4.3,0-7-2.6-7-6.6v-9.2c0-0.2,0-4.1,5.5-4.1c5.5,0,5.5,4,5.5,4.1
					v5.3c0,0.6,0,2.8,2.2,2.8c2.2,0,2.2-1.9,2.2-2.6v-5.5c0-0.2,0-4.1,5.5-4.1c5.5,0,5.5,4,5.5,4.1v16.5c0,6.4-4.4,10.4-11,10.4
					c-2.3,0-9.9-0.8-9.9-4.6c0-1,0.4-2.2,2-2.2c1.3,0,2.4,0.7,3.8,0.7c2.4,0,4.1-1.2,4.1-3.1V182.4z"/>
				<path class="st1" d="M124.5,167.5c8.8-6.7,10.9-8.6,11.6-8.6c0.6,0,0.8,0.5,0.8,2.2v3.9h2.4c0.5,0,2.5,0.2,2.5,2.4
					c0,2.4-2,2.6-2.5,2.6h-2.4v6.9c0,1.2,0,2.4,1.6,2.4h1.5c1.8,0,2.3,1.6,2.3,2.7c0,3.7-3.6,4.5-7.3,4.5c-5.6,0-9.2-2.8-9.2-9.6
					v-6.9H125c-1.2,0-2-0.1-2-0.9C123,168.5,124.5,167.5,124.5,167.5z"/>
				<path class="st1" d="M154.7,170.9v11.6c0,0.2,0,4.1-5.5,4.1c-5.5,0-5.5-4-5.5-4.1v-11.6c0-0.2,0-4.1,5.5-4.1
					C154.7,166.8,154.7,170.7,154.7,170.9z M149.1,165.9c-2.4,0-4.4-1.4-4.4-3.6c0-2.3,2-3.6,4.4-3.6s4.4,1.3,4.4,3.6
					C153.6,164.7,151.6,165.9,149.1,165.9z"/>
				<path class="st1" d="M167.9,171c0.8-1.9,3.3-4.3,6.8-4.3c4.2,0,6.1,2.2,6.7,5c1.3-2.9,3.8-5,6.9-5c5.1,0,6.9,2.6,6.9,6.6v9.2
					c0,0.2,0,4.1-5.5,4.1c-5.5,0-5.5-4-5.5-4.1v-6.3c0-0.6,0-1.8-1.2-1.8c-1.1,0-1.3,0.7-1.4,1.4v6.7c0,0.2,0,4.1-5.5,4.1
					c-5.5,0-5.5-4-5.5-4.1v-6.3c0-0.6,0-1.8-1.2-1.8c-1.2,0-1.4,0.9-1.4,1.6v6.5c0,0.2,0,4.1-5.5,4.1c-5.5,0-5.5-4-5.5-4.1v-11.6
					c0-0.2,0-4.1,5.5-4.1C166.4,166.7,167.7,169.4,167.9,171z"/>
				<path class="st1" d="M207.7,178.1c0.6,2.4,2.3,3.6,5.5,3.6c2,0,3-0.7,4.4-0.7c0.6,0,1.3,0.4,1.3,1.1c0,0.2-0.1,0.4-0.2,0.6
					c-1.3,3.2-5.7,4.3-9.4,4.3c-7.4,0-12.5-3.3-12.5-10.4c0-6,4.8-10.1,11.4-10.1c7.6,0,11.4,5.7,11.4,9.7c0,1.1-0.6,1.9-2.7,1.9
					H207.7z M213.2,174.7c0-2-1.2-3.1-2.7-3.1c-1.3,0-2.5,1.3-2.5,3.1H213.2z"/>
			</g>
			<g>
				<g>
					<path class="st1" d="M24.2,194.3c0-0.3,1.1-0.5,3.4-0.5c0.5,0,1.2,0,2,0.1c0.8,0,1.2,0.1,1.3,0.2c0,0.3-0.3,0.4-0.8,0.4
						c-0.2,0-0.4,0-0.8,0c-0.4,0-0.7,0-0.9,0c-0.3,0-0.4,0.1-0.4,0.2c0,1.4,0,3.5-0.1,6.3c-0.1,0.1-0.3,0.1-0.6,0.1c0-0.3,0-0.6,0-1
						l0-4.2c0-0.5,0-0.9,0-1.3c-0.1,0-0.3,0-0.5,0c-0.2,0-0.6,0-1,0.1c-0.5,0-0.8,0.1-1,0.1C24.3,194.6,24.2,194.5,24.2,194.3z"/>
					<path class="st1" d="M36.1,194.1c0.1-0.2,0.2-0.2,0.5-0.2c0.1,0,0.2,0,0.2,0.1c0,0.7,0.1,1.4,0.1,2.1c0,0.7,0,1.6,0,2.6
						c0,1.1,0,1.8-0.1,2.1c-0.2,0.1-0.3,0.2-0.4,0.2c-0.1,0-0.2,0-0.2,0c0-0.3-0.1-0.7-0.1-1.1l0.1-2.2c-0.6-0.1-1.2-0.1-1.9-0.1
						c-0.7,0-1.4,0.1-2.2,0.2C32,199,32,200,32,200.6c-0.2,0.1-0.3,0.2-0.4,0.2c-0.1,0-0.2,0-0.2,0c0-0.3,0-0.8,0-1.4
						c0-0.6,0-1.5,0.1-2.9c0.1-1.3,0.1-2.1,0.1-2.3c0.1-0.1,0.2-0.2,0.4-0.2c0.1,0,0.1,0,0.2,0c0,0.2,0,0.4,0,0.7
						c0,0.3,0,0.7-0.1,1.3c0,0.6-0.1,1-0.1,1.2c0.8-0.1,1.5-0.2,2.2-0.2s1.3,0,1.8,0.1c0-0.2,0-0.6,0-1.1
						C36.2,195.5,36.1,194.9,36.1,194.1z"/>
					<path class="st1" d="M40.9,193.8l1.5,0c0.5,0,0.9,0.1,1,0.2c0,0.2-0.1,0.3-0.2,0.4c-0.1,0.1-0.3,0.1-0.5,0.1l-2.1,0
						c-0.5,0-1,0-1.4,0c-0.1,0.4-0.1,0.9-0.1,1.6l0,0.4c0,0.2,0,0.4,0,0.6c0.3,0.1,0.7,0.1,1.2,0.1l1.2,0c0.4,0,0.7,0,0.8,0.1
						c0.1,0,0.1,0.1,0.1,0.1c0,0.2-0.3,0.4-1,0.4l-2.2-0.1c0,0.2,0,0.4,0,0.8c0,0.8,0,1.4-0.1,1.8c0.4,0,0.7,0,0.9,0
						c0.2,0,0.4,0,0.6,0c0.2,0,0.6,0,1.1-0.1c0.5,0,0.9,0,1.2,0c0.3,0,0.4,0,0.5,0.1c0.1,0,0.1,0.1,0.1,0.2c0,0.1,0,0.1-0.1,0.2
						c0,0-0.1,0.1-0.1,0.1c0,0-0.1,0-0.1,0c0,0-0.1,0-0.1,0c0,0-0.1,0-0.1,0c-0.1,0-0.1,0-0.1,0c0,0-0.1,0-0.1,0h-0.1
						c-1.3,0.1-2.1,0.1-2.5,0.1c-1.1,0-1.6-0.2-1.6-0.5c0-0.6,0-1.2,0-1.7c0-1.8,0.1-3.3,0.2-4.5c0.1-0.2,0.5-0.3,1.2-0.4
						C40.3,193.8,40.6,193.8,40.9,193.8z"/>
					<path class="st1" d="M51.6,194.1c0.1-0.2,0.2-0.2,0.5-0.2c0.1,0,0.2,0,0.2,0.1c0,0.7,0.1,1.4,0.1,2.1c0,0.7,0,1.6,0,2.6
						c0,1.1,0,1.8-0.1,2.1c-0.2,0.1-0.3,0.2-0.4,0.2c-0.1,0-0.2,0-0.2,0c0-0.3-0.1-0.7-0.1-1.1l0.1-2.2c-0.6-0.1-1.2-0.1-1.9-0.1
						c-0.7,0-1.4,0.1-2.2,0.2c-0.1,1.3-0.1,2.3-0.1,2.9c-0.2,0.1-0.3,0.2-0.4,0.2c-0.1,0-0.2,0-0.2,0c0-0.3,0-0.8,0-1.4
						c0-0.6,0-1.5,0.1-2.9c0.1-1.3,0.1-2.1,0.1-2.3c0.1-0.1,0.2-0.2,0.4-0.2c0.1,0,0.1,0,0.2,0c0,0.2,0,0.4,0,0.7
						c0,0.3,0,0.7-0.1,1.3c0,0.6-0.1,1-0.1,1.2c0.8-0.1,1.5-0.2,2.2-0.2s1.3,0,1.8,0.1c0-0.2,0-0.6,0-1.1
						C51.7,195.5,51.7,194.9,51.6,194.1z"/>
					<path class="st1" d="M60.4,195.9c0.2,0.4,0.3,0.9,0.3,1.5c0,0.6-0.1,1.1-0.3,1.6c-0.2,0.5-0.5,0.9-0.9,1.2
						c-0.8,0.6-1.6,0.9-2.5,0.9c-0.9,0-1.7-0.3-2.3-0.9c-0.6-0.6-1-1.4-1-2.4c0-0.6,0.1-1.1,0.3-1.6c0.2-0.5,0.5-0.9,0.8-1.1
						c0.7-0.6,1.5-0.9,2.4-0.9c0.9,0,1.7,0.3,2.4,0.8C59.9,195.2,60.2,195.5,60.4,195.9z M54.3,197.8c0,0.8,0.2,1.5,0.7,2
						c0.5,0.5,1.1,0.8,1.9,0.8c0.9,0,1.7-0.3,2.2-0.9c0.6-0.6,0.8-1.3,0.8-2.2c0-0.9-0.3-1.6-0.8-2.1c-0.6-0.5-1.2-0.8-2.1-0.8
						c-0.8,0-1.5,0.3-2,0.8C54.6,196,54.3,196.8,54.3,197.8z"/>
					<path class="st1" d="M62.1,197c0-1.1-0.1-2-0.2-2.9c0-0.1,0.1-0.2,0.3-0.2c0.2,0,0.4,0.2,0.8,0.5c0.3,0.4,0.6,0.8,0.9,1.2
						c0.3,0.4,0.6,0.8,0.9,1.2c0.3,0.4,0.5,0.5,0.6,0.5c0.1,0,0.3-0.2,0.6-0.6c0.3-0.4,0.6-0.8,0.8-1.3c0.3-0.5,0.6-0.9,0.9-1.3
						c0.3-0.4,0.6-0.6,0.8-0.6c0.2,0,0.3,0.1,0.3,0.2c0.1,0.8,0.1,1.5,0.1,2.2s0,1.2,0,1.5c0,0.4,0,0.7,0,0.9c0,0.2,0,0.6,0,1.2
						c0,0.6,0,1,0,1.1c-0.1,0.1-0.2,0.2-0.4,0.2c-0.1,0-0.1,0-0.2-0.1c0-0.8-0.1-1.8-0.1-2.9c0-1.1,0-2.2,0-3.4
						c-0.1,0.1-0.3,0.3-0.6,0.7c-0.2,0.4-0.5,0.8-0.7,1.1c-0.2,0.4-0.5,0.7-0.8,1c-0.3,0.3-0.5,0.5-0.8,0.5c-0.2,0-0.5-0.2-0.8-0.5
						c-0.3-0.4-0.7-0.8-1-1.4c-0.4-0.6-0.6-1-0.7-1.1c0,0.6,0,1.1,0,1.7c0,0.6,0,1,0,1.2c0,1,0,2-0.1,2.9c-0.1,0.1-0.3,0.2-0.5,0.2
						c-0.1,0-0.1,0-0.2,0L62.1,197z"/>
					<path class="st1" d="M72.9,193.8l1.5,0c0.5,0,0.9,0.1,1,0.2c0,0.2-0.1,0.3-0.2,0.4c-0.1,0.1-0.3,0.1-0.5,0.1l-2.1,0
						c-0.5,0-1,0-1.4,0c-0.1,0.4-0.1,0.9-0.1,1.6l0,0.4c0,0.2,0,0.4,0,0.6c0.3,0.1,0.7,0.1,1.2,0.1l1.2,0c0.4,0,0.7,0,0.8,0.1
						c0.1,0,0.1,0.1,0.1,0.1c0,0.2-0.3,0.4-1,0.4l-2.2-0.1c0,0.2,0,0.4,0,0.8c0,0.8,0,1.4-0.1,1.8c0.4,0,0.7,0,0.9,0
						c0.2,0,0.4,0,0.6,0c0.2,0,0.6,0,1.1-0.1c0.5,0,0.9,0,1.2,0s0.4,0,0.5,0.1c0.1,0,0.1,0.1,0.1,0.2c0,0.1,0,0.1-0.1,0.2
						c0,0-0.1,0.1-0.1,0.1c0,0-0.1,0-0.1,0c0,0-0.1,0-0.1,0c0,0-0.1,0-0.1,0c-0.1,0-0.1,0-0.1,0c0,0-0.1,0-0.1,0h-0.1
						c-1.3,0.1-2.1,0.1-2.5,0.1c-1.1,0-1.6-0.2-1.6-0.5c0-0.6,0-1.2,0-1.7c0-1.8,0.1-3.3,0.2-4.5c0.1-0.2,0.5-0.3,1.2-0.4
						C72.3,193.8,72.6,193.8,72.9,193.8z"/>
					<path class="st1" d="M77.4,194.2l0,4.4c0,0.7,0,1.3,0.1,1.9c0.4,0,0.8,0,1.1,0l2.1,0c0.3,0,0.5,0.1,0.5,0.3
						c0,0.2-0.7,0.3-2.1,0.3c-0.3,0-0.8,0-1.3,0c-0.5,0-0.8-0.1-1-0.2c0-0.7,0-1.8,0-3.4l0-3.5c0.2-0.1,0.3-0.2,0.4-0.2
						C77.3,193.8,77.4,193.9,77.4,194.2z"/>
					<path class="st1" d="M84.4,193.8l1.5,0c0.5,0,0.9,0.1,1,0.2c0,0.2-0.1,0.3-0.2,0.4c-0.1,0.1-0.3,0.1-0.5,0.1l-2.1,0
						c-0.5,0-1,0-1.4,0c-0.1,0.4-0.1,0.9-0.1,1.6l0,0.4c0,0.2,0,0.4,0,0.6c0.3,0.1,0.7,0.1,1.2,0.1l1.2,0c0.4,0,0.7,0,0.8,0.1
						c0.1,0,0.1,0.1,0.1,0.1c0,0.2-0.3,0.4-1,0.4l-2.2-0.1c0,0.2,0,0.4,0,0.8c0,0.8,0,1.4-0.1,1.8c0.4,0,0.7,0,0.9,0
						c0.2,0,0.4,0,0.6,0c0.2,0,0.6,0,1.1-0.1c0.5,0,0.9,0,1.2,0s0.4,0,0.5,0.1c0.1,0,0.1,0.1,0.1,0.2c0,0.1,0,0.1-0.1,0.2
						c0,0-0.1,0.1-0.1,0.1c0,0-0.1,0-0.1,0c0,0-0.1,0-0.1,0c0,0-0.1,0-0.1,0c-0.1,0-0.1,0-0.1,0c0,0-0.1,0-0.1,0H86
						c-1.3,0.1-2.1,0.1-2.5,0.1c-1.1,0-1.6-0.2-1.6-0.5c0-0.6,0-1.2,0-1.7c0-1.8,0.1-3.3,0.2-4.5c0.1-0.2,0.5-0.3,1.2-0.4
						C83.7,193.8,84.1,193.8,84.4,193.8z"/>
					<path class="st1" d="M88.6,194.2c0.2-0.2,0.5-0.3,0.8-0.4c0.3-0.1,0.6-0.1,0.9-0.1c0.3,0,0.6,0,0.8,0.1c0.3,0,0.5,0.1,0.8,0.2
						c0.3,0.1,0.5,0.2,0.7,0.4c0.2,0.2,0.3,0.4,0.3,0.6c0,0.1,0,0.2-0.1,0.2c-0.1,0-0.2,0.1-0.3,0.1c-0.1,0-0.2,0-0.2-0.1
						c0,0-0.1-0.1-0.1-0.2c-0.2-0.5-0.8-0.8-1.6-0.8c-0.6,0-1,0.1-1.4,0.4c-0.4,0.2-0.5,0.6-0.5,1.1c0,0.3,0.1,0.5,0.2,0.7
						c0.2,0.2,0.4,0.3,0.6,0.4c0.3,0.1,0.6,0.2,0.9,0.3c0.3,0.1,0.6,0.2,1,0.3c0.3,0.1,0.6,0.2,0.9,0.4c0.3,0.1,0.5,0.3,0.6,0.6
						c0.2,0.3,0.2,0.6,0.2,0.9c0,0.5-0.3,1-0.8,1.3c-0.5,0.4-1.2,0.6-1.9,0.6c-0.6,0-1.2-0.1-1.8-0.4c-0.6-0.3-0.9-0.5-0.9-0.8
						c0-0.1,0-0.1,0.1-0.2c0.1-0.1,0.2-0.1,0.3-0.1s0.2,0,0.2,0.1c0.1,0,0.2,0.1,0.2,0.2c0.1,0.1,0.2,0.2,0.2,0.2
						c0.5,0.3,1.1,0.5,1.7,0.5c0.4,0,0.9-0.1,1.3-0.4c0.4-0.3,0.6-0.6,0.6-1.1c0-0.3-0.1-0.6-0.3-0.8c-0.2-0.2-0.5-0.3-0.8-0.4
						c-0.3-0.1-0.7-0.2-1.1-0.3c-0.4-0.1-0.8-0.2-1.1-0.3c-0.3-0.1-0.6-0.3-0.8-0.6c-0.2-0.3-0.3-0.6-0.3-0.9c0-0.4,0.1-0.7,0.2-1
						C88.2,194.6,88.4,194.4,88.6,194.2z"/>
					<path class="st1" d="M94.8,194.2c0.2-0.2,0.5-0.3,0.8-0.4c0.3-0.1,0.6-0.1,0.9-0.1c0.3,0,0.6,0,0.8,0.1c0.3,0,0.5,0.1,0.8,0.2
						c0.3,0.1,0.5,0.2,0.7,0.4c0.2,0.2,0.3,0.4,0.3,0.6c0,0.1,0,0.2-0.1,0.2c-0.1,0-0.2,0.1-0.3,0.1c-0.1,0-0.2,0-0.2-0.1
						c0,0-0.1-0.1-0.1-0.2c-0.2-0.5-0.8-0.8-1.6-0.8c-0.6,0-1,0.1-1.4,0.4c-0.4,0.2-0.5,0.6-0.5,1.1c0,0.3,0.1,0.5,0.2,0.7
						c0.2,0.2,0.4,0.3,0.6,0.4c0.3,0.1,0.6,0.2,0.9,0.3c0.3,0.1,0.6,0.2,1,0.3c0.3,0.1,0.6,0.2,0.9,0.4c0.3,0.1,0.5,0.3,0.6,0.6
						c0.2,0.3,0.2,0.6,0.2,0.9c0,0.5-0.3,1-0.8,1.3c-0.5,0.4-1.2,0.6-1.9,0.6c-0.6,0-1.2-0.1-1.8-0.4c-0.6-0.3-0.9-0.5-0.9-0.8
						c0-0.1,0-0.1,0.1-0.2c0.1-0.1,0.2-0.1,0.3-0.1s0.2,0,0.2,0.1c0.1,0,0.2,0.1,0.2,0.2c0.1,0.1,0.2,0.2,0.2,0.2
						c0.5,0.3,1.1,0.5,1.7,0.5c0.4,0,0.9-0.1,1.3-0.4c0.4-0.3,0.6-0.6,0.6-1.1c0-0.3-0.1-0.6-0.3-0.8c-0.2-0.2-0.5-0.3-0.8-0.4
						c-0.3-0.1-0.7-0.2-1.1-0.3c-0.4-0.1-0.8-0.2-1.1-0.3c-0.3-0.1-0.6-0.3-0.8-0.6c-0.2-0.3-0.3-0.6-0.3-0.9c0-0.4,0.1-0.7,0.2-1
						C94.3,194.6,94.5,194.4,94.8,194.2z"/>
				</g>
				<g>
					<path class="st1" d="M127,195.3c-0.1,0.1-0.2,0.2-0.3,0.2c-0.1,0-0.1,0-0.2,0c-0.1,0-0.1-0.1-0.1-0.1c0,0-0.1-0.1-0.2-0.2
						c-0.1-0.1-0.1-0.2-0.1-0.2c-0.3-0.4-0.8-0.6-1.3-0.6s-1,0.2-1.5,0.5c-0.5,0.3-0.8,0.8-1.1,1.3c-0.3,0.6-0.4,1.1-0.4,1.7
						c0,0.7,0.2,1.3,0.7,1.8c0.5,0.5,1.1,0.7,1.9,0.7c0.8,0,1.5-0.2,2.1-0.7c0.1-0.1,0.2-0.2,0.3-0.3c0.1-0.1,0.2-0.2,0.3-0.3
						c0.1-0.1,0.2-0.1,0.2-0.1c0.1,0,0.2,0,0.3,0.1c-0.3,0.6-0.8,1-1.4,1.3c-0.7,0.3-1.4,0.5-2.2,0.5c-0.8,0-1.5-0.2-2.1-0.7
						c-0.6-0.5-0.9-1.1-0.9-2c0-0.6,0.1-1.1,0.3-1.6c0.2-0.5,0.4-1,0.8-1.4c0.3-0.4,0.7-0.7,1.2-0.9c0.5-0.2,1-0.4,1.6-0.4
						C126,193.9,126.7,194.4,127,195.3z"/>
					<path class="st1" d="M133.5,194.1c0.1-0.2,0.2-0.2,0.5-0.2c0.1,0,0.2,0,0.2,0.1c0,0.7,0.1,1.4,0.1,2.1c0,0.7,0,1.6,0,2.6
						c0,1.1,0,1.8-0.1,2.1c-0.2,0.1-0.3,0.2-0.4,0.2c-0.1,0-0.2,0-0.2,0c0-0.3-0.1-0.7-0.1-1.1l0.1-2.2c-0.6-0.1-1.2-0.1-1.9-0.1
						c-0.7,0-1.4,0.1-2.2,0.2c-0.1,1.3-0.1,2.3-0.1,2.9c-0.2,0.1-0.3,0.2-0.4,0.2c-0.1,0-0.2,0-0.2,0c0-0.3,0-0.8,0-1.4
						c0-0.6,0-1.5,0.1-2.9c0.1-1.3,0.1-2.1,0.1-2.3c0.1-0.1,0.2-0.2,0.4-0.2c0.1,0,0.1,0,0.2,0c0,0.2,0,0.4,0,0.7
						c0,0.3,0,0.7-0.1,1.3c0,0.6-0.1,1-0.1,1.2c0.8-0.1,1.5-0.2,2.2-0.2c0.7,0,1.3,0,1.8,0.1c0-0.2,0-0.6,0-1.1
						C133.5,195.5,133.5,194.9,133.5,194.1z"/>
					<path class="st1" d="M136.6,193.9c-0.1,3-0.1,5.3-0.1,6.9c-0.1,0.1-0.2,0.2-0.3,0.2c-0.1,0-0.1,0-0.2,0
						c-0.2-0.1-0.2-0.3-0.2-0.6c0-3.2,0-5,0.1-5.5c0-0.5,0.1-0.8,0.1-0.9c0.1-0.1,0.1-0.1,0.2-0.1
						C136.4,193.8,136.5,193.9,136.6,193.9z"/>
					<path class="st1" d="M139,194.2l0,4.4c0,0.7,0,1.3,0.1,1.9c0.4,0,0.8,0,1.1,0l2.1,0c0.3,0,0.5,0.1,0.5,0.3
						c0,0.2-0.7,0.3-2.1,0.3c-0.3,0-0.8,0-1.3,0c-0.5,0-0.8-0.1-1-0.2c0-0.7,0-1.8,0-3.4l0-3.5c0.2-0.1,0.3-0.2,0.4-0.2
						C138.9,193.8,139,193.9,139,194.2z"/>
					<path class="st1" d="M145.3,200.9l-0.8,0c-0.5,0-0.8-0.1-0.9-0.2c-0.1-0.1-0.1-0.2-0.1-0.3c0-0.7,0-1.7,0.1-2.9
						c0.1-1.2,0.1-2.1,0.1-2.8c0-0.3,0.2-0.5,0.7-0.6c0.5-0.2,1-0.2,1.6-0.2c1.1,0,2,0.3,2.7,0.9c0.7,0.6,1.1,1.4,1.1,2.3
						c0,0.5-0.1,0.9-0.3,1.3c-0.2,0.4-0.4,0.8-0.7,1.1c-0.3,0.3-0.6,0.6-1,0.8C147,200.7,146.2,200.9,145.3,200.9z M149,197.4
						c0-0.8-0.3-1.6-0.9-2.1c-0.6-0.6-1.3-0.9-2.2-0.9c-0.4,0-1,0.1-1.6,0.4c0,0.5,0,1.3-0.1,2.4c-0.1,1.1-0.1,1.8-0.1,2.2
						c0,0.4,0,0.7,0,0.9c0.4,0.1,0.8,0.1,1.2,0.1c1.1,0,1.9-0.3,2.6-0.8C148.6,199.1,149,198.3,149,197.4z"/>
					<path class="st1" d="M151.6,199l0,1.5c0,0.2,0,0.3-0.1,0.4c-0.1,0.1-0.2,0.1-0.3,0.1c-0.1,0-0.2,0-0.2,0
						c-0.1-0.7-0.1-1.4-0.1-2.1c0-0.7,0-1.4,0.1-2.3c0-0.8,0.1-1.5,0.1-2c0-0.5,0.7-0.8,2.1-0.8c0.7,0,1.4,0.2,2.1,0.5
						c0.3,0.2,0.6,0.4,0.8,0.7c0.2,0.3,0.3,0.6,0.3,1c0,0.4-0.1,0.7-0.2,0.9c-0.2,0.3-0.4,0.5-0.6,0.7c-0.2,0.2-0.5,0.3-0.8,0.5
						c-0.5,0.2-1.1,0.4-1.7,0.5c0.3,0.2,0.8,0.6,1.5,1.3c0.2,0.2,0.5,0.4,0.8,0.5c0.3,0.2,0.7,0.2,1,0.2c0,0,0.1,0,0.2,0
						c0.1,0,0.2,0,0.3,0c0.1,0,0.1,0,0.2,0c0.1,0,0.1,0.1,0.1,0.2c0,0.2-0.3,0.3-0.8,0.3c-0.6,0-1.3-0.2-1.9-0.7
						c-0.3-0.2-0.6-0.4-0.8-0.6c-0.7-0.6-1.3-0.9-1.9-1.1C151.6,198.7,151.6,198.8,151.6,199z M155.6,196c0-0.6-0.2-1-0.7-1.2
						c-0.5-0.3-1.1-0.4-1.9-0.4c-0.5,0-0.9,0.1-1.3,0.2c0,0.5,0,1.1,0,1.7c0,0.6,0,1.1,0,1.3c0,0.2,0,0.4,0,0.5
						c1-0.1,1.7-0.2,2.3-0.3c0.6-0.2,1-0.4,1.3-0.6C155.5,196.8,155.6,196.5,155.6,196z"/>
					<path class="st1" d="M160.2,193.8l1.5,0c0.5,0,0.9,0.1,1,0.2c0,0.2-0.1,0.3-0.2,0.4c-0.1,0.1-0.3,0.1-0.5,0.1l-2.1,0
						c-0.5,0-1,0-1.4,0c-0.1,0.4-0.1,0.9-0.1,1.6l0,0.4c0,0.2,0,0.4,0,0.6c0.3,0.1,0.7,0.1,1.2,0.1l1.2,0c0.4,0,0.7,0,0.8,0.1
						c0.1,0,0.1,0.1,0.1,0.1c0,0.2-0.3,0.4-1,0.4l-2.2-0.1c0,0.2,0,0.4,0,0.8c0,0.8,0,1.4-0.1,1.8c0.4,0,0.7,0,0.9,0
						c0.2,0,0.4,0,0.6,0c0.2,0,0.6,0,1.1-0.1c0.5,0,0.9,0,1.2,0c0.3,0,0.4,0,0.5,0.1c0.1,0,0.1,0.1,0.1,0.2c0,0.1,0,0.1-0.1,0.2
						c0,0-0.1,0.1-0.1,0.1c0,0-0.1,0-0.1,0c0,0-0.1,0-0.1,0c0,0-0.1,0-0.1,0c-0.1,0-0.1,0-0.1,0c0,0-0.1,0-0.1,0h-0.1
						c-1.3,0.1-2.1,0.1-2.5,0.1c-1.1,0-1.6-0.2-1.6-0.5c0-0.6,0-1.2,0-1.7c0-1.8,0.1-3.3,0.2-4.5c0.1-0.2,0.5-0.3,1.2-0.4
						C159.5,193.8,159.9,193.8,160.2,193.8z"/>
					<path class="st1" d="M169.2,200.1l0.1-6.1c0.1-0.1,0.2-0.2,0.3-0.2c0.1,0,0.2,0,0.3,0.1c0,0.9,0.1,1.6,0.1,2.2l-0.1,4.6
						c0,0.1,0,0.3,0,0.4c-0.2,0.1-0.4,0.2-0.6,0.2l-0.1,0c-0.1,0-0.1-0.1-0.2-0.1c0,0-0.1-0.1-0.1-0.1c-0.1-0.1-0.1-0.1-0.1-0.2
						c0,0-0.1-0.1-0.1-0.2c-0.1-0.1-0.1-0.2-0.1-0.2c0,0-0.2-0.3-0.6-0.9s-0.6-0.9-0.7-1c-0.1-0.1-0.3-0.4-0.6-0.9
						c-0.3-0.4-0.5-0.8-0.7-1c-0.5-0.6-1-1.2-1.4-1.6c0,0.9,0,1.8,0,2.8s0,2-0.1,3.1c-0.1,0.1-0.3,0.2-0.7,0.2c0-3.7,0-6,0-6.8
						c0.1-0.1,0.2-0.2,0.4-0.2c0.1,0,0.2,0,0.3,0.1c0.2,0.1,0.4,0.3,0.6,0.5c0.7,0.7,1.4,1.5,2,2.4
						C167.8,197.9,168.5,198.9,169.2,200.1z"/>
					<path class="st1" d="M172.2,194.2c0,0.2,0,0.5-0.1,0.8c-0.1,0.4-0.1,0.6-0.1,0.8c0,0.2-0.1,0.3-0.3,0.3l-0.2,0
						c-0.1-0.1-0.2-0.1-0.2-0.2c0-0.2,0-0.5,0.1-0.8c0.1-0.4,0.1-0.6,0.1-0.8c0-0.1,0.1-0.2,0.3-0.2l0.2,0
						C172.2,194.1,172.2,194.1,172.2,194.2z"/>
					<path class="st1" d="M174,194.2c0.2-0.2,0.5-0.3,0.8-0.4c0.3-0.1,0.6-0.1,0.9-0.1c0.3,0,0.6,0,0.8,0.1c0.3,0,0.5,0.1,0.8,0.2
						c0.3,0.1,0.5,0.2,0.7,0.4c0.2,0.2,0.3,0.4,0.3,0.6c0,0.1,0,0.2-0.1,0.2c-0.1,0-0.2,0.1-0.3,0.1c-0.1,0-0.2,0-0.2-0.1
						c0,0-0.1-0.1-0.1-0.2c-0.2-0.5-0.8-0.8-1.6-0.8c-0.6,0-1,0.1-1.4,0.4c-0.4,0.2-0.5,0.6-0.5,1.1c0,0.3,0.1,0.5,0.2,0.7
						c0.2,0.2,0.4,0.3,0.6,0.4c0.3,0.1,0.6,0.2,0.9,0.3c0.3,0.1,0.6,0.2,1,0.3c0.3,0.1,0.6,0.2,0.9,0.4c0.3,0.1,0.5,0.3,0.6,0.6
						c0.2,0.3,0.2,0.6,0.2,0.9c0,0.5-0.3,1-0.8,1.3c-0.5,0.4-1.2,0.6-1.9,0.6c-0.6,0-1.2-0.1-1.8-0.4c-0.6-0.3-0.9-0.5-0.9-0.8
						c0-0.1,0-0.1,0.1-0.2c0.1-0.1,0.2-0.1,0.3-0.1s0.2,0,0.2,0.1c0.1,0,0.2,0.1,0.2,0.2c0.1,0.1,0.2,0.2,0.2,0.2
						c0.5,0.3,1.1,0.5,1.7,0.5c0.4,0,0.9-0.1,1.3-0.4c0.4-0.3,0.6-0.6,0.6-1.1c0-0.3-0.1-0.6-0.3-0.8c-0.2-0.2-0.5-0.3-0.8-0.4
						c-0.3-0.1-0.7-0.2-1.1-0.3c-0.4-0.1-0.8-0.2-1.1-0.3c-0.3-0.1-0.6-0.3-0.8-0.6c-0.2-0.3-0.3-0.6-0.3-0.9c0-0.4,0.1-0.7,0.2-1
						C173.6,194.6,173.8,194.4,174,194.2z"/>
					<path class="st1" d="M181.9,197.7c0-1,0-1.9-0.1-2.7c0-0.2,0.1-0.4,0.3-0.5c0.2-0.2,0.4-0.3,0.7-0.3c0.6-0.1,1.2-0.2,1.9-0.2
						c0.9,0,1.6,0.2,2.1,0.6c0.5,0.4,0.8,1,0.8,1.8c0,0.8-0.3,1.4-1,1.9c-0.6,0.5-1.4,0.7-2.3,0.7c-0.5,0-1-0.1-1.5-0.3
						c0,0.3,0,0.7,0,1.3l0,0.5c0,0.2,0,0.3,0,0.5c0,0-0.1,0.1-0.1,0.1c0,0-0.1,0-0.1,0c0,0,0,0-0.1,0c0,0-0.1,0-0.1,0
						c0,0-0.1,0-0.1,0h-0.2c0-0.5,0-0.9,0-1.3L181.9,197.7z M182.6,197.9c0.5,0.3,1.1,0.5,1.7,0.5c0.7,0,1.2-0.2,1.7-0.6
						c0.5-0.4,0.7-0.9,0.7-1.5c0-0.6-0.2-1-0.7-1.3c-0.5-0.3-1-0.4-1.7-0.4c-0.7,0-1.2,0.2-1.7,0.5
						C182.6,195.3,182.6,196.3,182.6,197.9z"/>
					<path class="st1" d="M189.1,199l0,1.5c0,0.2,0,0.3-0.1,0.4c-0.1,0.1-0.2,0.1-0.3,0.1s-0.2,0-0.2,0c-0.1-0.7-0.1-1.4-0.1-2.1
						c0-0.7,0-1.4,0.1-2.3c0-0.8,0.1-1.5,0.1-2c0-0.5,0.7-0.8,2.1-0.8c0.7,0,1.4,0.2,2.1,0.5c0.3,0.2,0.6,0.4,0.8,0.7
						c0.2,0.3,0.3,0.6,0.3,1c0,0.4-0.1,0.7-0.2,0.9c-0.2,0.3-0.4,0.5-0.6,0.7c-0.2,0.2-0.5,0.3-0.8,0.5c-0.5,0.2-1.1,0.4-1.7,0.5
						c0.3,0.2,0.8,0.6,1.5,1.3c0.2,0.2,0.5,0.4,0.8,0.5c0.3,0.2,0.7,0.2,1,0.2c0,0,0.1,0,0.2,0c0.1,0,0.2,0,0.3,0c0.1,0,0.1,0,0.2,0
						c0.1,0,0.1,0.1,0.1,0.2c0,0.2-0.3,0.3-0.8,0.3c-0.6,0-1.3-0.2-1.9-0.7c-0.3-0.2-0.6-0.4-0.8-0.6c-0.7-0.6-1.3-0.9-1.9-1.1
						C189.1,198.7,189.1,198.8,189.1,199z M193.2,196c0-0.6-0.2-1-0.7-1.2c-0.5-0.3-1.1-0.4-1.9-0.4c-0.5,0-0.9,0.1-1.3,0.2
						c0,0.5,0,1.1,0,1.7c0,0.6,0,1.1,0,1.3c0,0.2,0,0.4,0,0.5c1-0.1,1.7-0.2,2.3-0.3c0.6-0.2,1-0.4,1.3-0.6
						C193,196.8,193.2,196.5,193.2,196z"/>
					<path class="st1" d="M201.7,195.9c0.2,0.4,0.3,0.9,0.3,1.5c0,0.6-0.1,1.1-0.3,1.6c-0.2,0.5-0.5,0.9-0.9,1.2
						c-0.8,0.6-1.6,0.9-2.5,0.9c-0.9,0-1.7-0.3-2.3-0.9c-0.6-0.6-1-1.4-1-2.4c0-0.6,0.1-1.1,0.3-1.6c0.2-0.5,0.5-0.9,0.8-1.1
						c0.7-0.6,1.5-0.9,2.4-0.9c0.9,0,1.7,0.3,2.4,0.8C201.2,195.2,201.5,195.5,201.7,195.9z M195.6,197.8c0,0.8,0.2,1.5,0.7,2
						c0.5,0.5,1.1,0.8,1.9,0.8c0.9,0,1.7-0.3,2.2-0.9c0.6-0.6,0.8-1.3,0.8-2.2c0-0.9-0.3-1.6-0.8-2.1c-0.6-0.5-1.2-0.8-2.1-0.8
						c-0.8,0-1.5,0.3-2,0.8C195.9,196,195.6,196.8,195.6,197.8z"/>
					<path class="st1" d="M206.1,194c0,0.5,0,1.3,0.1,2.3c0.1,1,0.1,1.8,0.1,2.3c0,0.8-0.1,1.3-0.4,1.7c-0.3,0.4-0.8,0.6-1.5,0.6
						c-0.4,0-0.8-0.1-1.2-0.3c-0.4-0.2-0.6-0.4-0.8-0.7c0.2-0.1,0.3-0.2,0.4-0.2c0.1,0,0.2,0,0.3,0.1c0.1,0.1,0.2,0.2,0.3,0.3
						c0.1,0.1,0.2,0.2,0.4,0.3c0.2,0.1,0.5,0.1,0.8,0.1c0.3,0,0.6-0.1,0.7-0.4c0.1-0.3,0.2-0.7,0.2-1.3c0-0.6,0-1.2-0.1-2.1
						c-0.1-0.8-0.1-1.4-0.1-1.8c0-0.4,0-0.6,0.1-0.7c0.1-0.1,0.2-0.2,0.3-0.2C205.9,193.9,206,194,206.1,194z"/>
					<path class="st1" d="M210.3,193.8l1.5,0c0.5,0,0.9,0.1,1,0.2c0,0.2-0.1,0.3-0.2,0.4c-0.1,0.1-0.3,0.1-0.5,0.1l-2.1,0
						c-0.5,0-1,0-1.4,0c-0.1,0.4-0.1,0.9-0.1,1.6l0,0.4c0,0.2,0,0.4,0,0.6c0.3,0.1,0.7,0.1,1.2,0.1l1.2,0c0.4,0,0.7,0,0.8,0.1
						c0.1,0,0.1,0.1,0.1,0.1c0,0.2-0.3,0.4-1,0.4l-2.2-0.1c0,0.2,0,0.4,0,0.8c0,0.8,0,1.4-0.1,1.8c0.4,0,0.7,0,0.9,0s0.4,0,0.6,0
						c0.2,0,0.6,0,1.1-0.1c0.5,0,0.9,0,1.2,0s0.4,0,0.5,0.1c0.1,0,0.1,0.1,0.1,0.2c0,0.1,0,0.1-0.1,0.2c0,0-0.1,0.1-0.1,0.1
						c0,0-0.1,0-0.1,0c0,0-0.1,0-0.1,0c0,0-0.1,0-0.1,0c-0.1,0-0.1,0-0.1,0c0,0-0.1,0-0.1,0h-0.1c-1.3,0.1-2.1,0.1-2.5,0.1
						c-1.1,0-1.6-0.2-1.6-0.5c0-0.6,0-1.2,0-1.7c0-1.8,0.1-3.3,0.2-4.5c0.1-0.2,0.5-0.3,1.2-0.4C209.6,193.8,210,193.8,210.3,193.8z
						"/>
					<path class="st1" d="M219.3,195.3c-0.1,0.1-0.2,0.2-0.3,0.2c-0.1,0-0.1,0-0.2,0c-0.1,0-0.1-0.1-0.1-0.1c0,0-0.1-0.1-0.2-0.2
						c-0.1-0.1-0.1-0.2-0.1-0.2c-0.3-0.4-0.8-0.6-1.3-0.6c-0.5,0-1,0.2-1.5,0.5c-0.5,0.3-0.8,0.8-1.1,1.3c-0.3,0.6-0.4,1.1-0.4,1.7
						c0,0.7,0.2,1.3,0.7,1.8c0.5,0.5,1.1,0.7,1.9,0.7c0.8,0,1.5-0.2,2.1-0.7c0.1-0.1,0.2-0.2,0.3-0.3c0.1-0.1,0.2-0.2,0.3-0.3
						c0.1-0.1,0.2-0.1,0.2-0.1c0.1,0,0.2,0,0.3,0.1c-0.3,0.6-0.8,1-1.4,1.3c-0.7,0.3-1.4,0.5-2.2,0.5c-0.8,0-1.5-0.2-2.1-0.7
						c-0.6-0.5-0.9-1.1-0.9-2c0-0.6,0.1-1.1,0.3-1.6c0.2-0.5,0.4-1,0.8-1.4c0.3-0.4,0.7-0.7,1.2-0.9c0.5-0.2,1-0.4,1.6-0.4
						C218.3,193.9,219,194.4,219.3,195.3z"/>
					<path class="st1" d="M219.7,194.3c0-0.3,1.1-0.5,3.4-0.5c0.5,0,1.2,0,2,0.1c0.8,0,1.2,0.1,1.3,0.2c0,0.3-0.3,0.4-0.8,0.4
						c-0.2,0-0.4,0-0.8,0c-0.4,0-0.7,0-0.9,0c-0.3,0-0.4,0.1-0.4,0.2c0,1.4,0,3.5-0.1,6.3c-0.1,0.1-0.3,0.1-0.6,0.1c0-0.3,0-0.6,0-1
						l0-4.2c0-0.5,0-0.9,0-1.3c-0.1,0-0.3,0-0.5,0c-0.2,0-0.6,0-1,0.1s-0.8,0.1-1,0.1C219.9,194.6,219.7,194.5,219.7,194.3z"/>
				</g>
			</g>
			<g>
				<path class="st1" d="M82.6,98.2c0.6-2.2-0.4-4.6,0.2-5.3c0.2-0.2,0-0.5-0.2-0.6c-0.9-0.3-1.7,0.2-2.2,0.5
					c-0.2,0.1-0.4,0.1-0.5-0.1c-0.5-0.9-0.5-3.2,0.5-4.4c0.2-0.2,0.1-0.6-0.3-0.6c-5.3-0.1-6.7,5-7.4,6.4c-0.1,0.2-0.4,0.3-0.6,0.1
					c-0.3-0.4-0.6-1-0.7-1.6c-0.1-0.3-0.5-0.4-0.7-0.1c-1.3,2-1.2,4.3-0.3,6.1c-10.2,3-17.6,12.4-17.6,23.5
					c0,13.5,11,24.5,24.5,24.5s24.5-11,24.5-24.5C101.6,110.4,93.5,100.7,82.6,98.2z M77.1,144c-12.1,0-21.9-9.8-21.9-21.9
					c0-10.3,7.2-19,16.8-21.3c0,0,0,0,0,0c2.4,1.7,5.8,1.3,7.2,0.8c0.7-0.3,1.3-0.6,1.8-1c10.2,1.9,18,10.8,18,21.5
					C99,134.1,89.2,144,77.1,144z"/>
				<path class="st1" d="M89.4,127.2c-0.6-0.4-1.4-0.2-1.8,0.4c-2.4,3.6-6.5,5.8-10.9,5.8c-4.2,0-8.2-2.1-10.6-5.5
					c-0.4-0.6-1.2-0.7-1.8-0.3c-0.6,0.4-0.7,1.2-0.3,1.8c2.9,4.1,7.7,6.6,12.7,6.6c5.2,0,10.1-2.6,13-7
					C90.2,128.4,90,127.6,89.4,127.2z"/>
				<path class="st1" d="M66.3,121c0.6,0.1,1.2-0.3,1.7-0.6c0.8-0.6,1.1-1.8,0.7-2.8c-0.2,0.3-0.5,0.6-1,0.6c-0.6,0-1.1-0.5-1.1-1.1
					c0-0.4,0.2-0.8,0.6-1c-1.4-0.6-3.3,0.6-3.2,2.2c0,0.1,0,0.2,0,0.3C64,119.9,65.2,120.9,66.3,121z"/>
				<path class="st1" d="M89.2,118.3c-0.6,0-1.1-0.5-1.1-1.1c0-0.4,0.2-0.8,0.6-1c-1.4-0.6-3.3,0.6-3.2,2.2c0,0.1,0,0.2,0,0.3
					c-0.1,1.2,1.1,2.2,2.2,2.3c0.6,0.1,1.2-0.3,1.7-0.6c0.8-0.6,1.1-1.8,0.7-2.8C90,118,89.6,118.3,89.2,118.3z"/>
			</g>
			<g>
				<path class="st1" d="M166.7,119.5c-0.6-0.4-1.4-0.5-2-0.8c-1.8-0.6-3.7-1.2-5.5-1.8c-0.2,0.1-0.4,0.2-0.5,0.4
					c-0.3,0.4,0.1,0.8,0.5,1c1.5,0.5,3,1,4.6,1.4c0,0.1,0,0.2,0,0.3c-0.8,0.2-1.6,0.4-2.4,0.7c-0.8,0.3-1.7,0.4-2.6,0.8
					c-0.6,0.4-0.1,1.1,0.5,1.2c2.5-0.8,5.1-1.5,7.6-2.3C166.7,120.1,166.8,119.8,166.7,119.5z"/>
				<path class="st1" d="M185.9,121.5c-0.8-0.4-1.7-0.5-2.6-0.8c-0.8-0.3-1.6-0.5-2.4-0.7c0-0.1,0-0.2,0-0.3c1.6-0.4,3-0.9,4.6-1.4
					c0.4-0.1,0.8-0.6,0.5-1c-0.1-0.2-0.3-0.4-0.5-0.4c-1.8,0.6-3.7,1.2-5.5,1.8c-0.7,0.3-1.4,0.3-2,0.8c-0.1,0.3,0,0.6,0,0.9
					c2.5,0.8,5.1,1.5,7.6,2.3C186,122.6,186.5,121.9,185.9,121.5z"/>
				<path class="st1" d="M186.8,102.2c0.1-0.2,0.2-0.5,0.2-0.7v-14c0-0.1,0-0.1,0-0.2c-0.1-0.8-1.2-1.1-1.9-0.6l-11.9,7.2
					c-0.5-0.3-1-0.4-1.6-0.4c-0.6,0-1.1,0.2-1.6,0.4l-11.9-7.2c-0.6-0.5-1.7-0.2-1.9,0.6c0,0.1,0,0.1,0,0.2v14
					c0,0.7,0.5,1.2,1.1,1.3c-5.8,4.5-9.5,11.5-9.5,19.3c0,13.5,11,24.5,24.5,24.5c13.5,0,24.5-11,24.5-24.5
					C197,113.9,192.9,106.7,186.8,102.2z M172.5,144c-12.1,0-21.9-9.8-21.9-21.9c0-10.1,6.9-18.6,16.2-21.1c-1,2.1,0.2,4.6-0.4,5.3
					c-0.1,0.2,0,0.5,0.2,0.5c0.8,0.3,1.5-0.2,2-0.4c0.2-0.1,0.4-0.1,0.5,0.1c0.5,0.8,0.4,2.9-0.4,3.9c-0.2,0.2-0.1,0.6,0.2,0.6
					c4.7,0.1,6-4.4,6.6-5.7c0.1-0.2,0.4-0.2,0.5-0.1c0.3,0.3,0.6,0.9,0.7,1.4c0.1,0.3,0.5,0.4,0.6,0.1c1.2-1.9,1-4.3,0-5.9
					c9.7,2.2,17,10.9,17,21.3C194.4,134.1,184.6,144,172.5,144z"/>
				<path class="st1" d="M183.8,129.3l-21.5,0.4c-0.3,0-0.6,0.2-0.8,0.4c-0.2,0.2-0.2,0.6-0.2,0.9c1.4,4.8,6.9,7.7,11.6,7.7
					c5.1,0,11.1-3.3,11.8-8.2c0-0.3,0-0.6-0.2-0.8C184.4,129.4,184.1,129.3,183.8,129.3z M173,136.6c-3.4,0-7.5-1.9-9.2-5l18.7-0.4
					C181.2,134.5,176.8,136.6,173,136.6z"/>
			</g>
			<g>
				<path class="st1" d="M137.3,101c0.1-0.4,0.2-0.7,0.3-1.1c0.1-1.8-1.3-3.3-3-3.4c-0.7,0-1.4,0.2-1.9,0.6c-0.2-1.5-1.4-2.7-3-2.8
					c-1.3-0.1-2.4,0.7-2.9,1.8c-0.3-1.4-1.5-2.5-2.9-2.6c-1.5-0.1-2.7,0.9-3.1,2.3c-0.5-0.7-1.4-1.2-2.3-1.2
					c-1.7-0.1-3.2,1.3-3.3,3.1c0,0,0,0,0,0c-0.4-0.3-1-0.5-1.5-0.5c-1.7-0.1-3.2,1.3-3.3,3.1c0,0.6,0.1,1.2,0.4,1.7
					c-6.3,4.4-10.4,11.7-10.4,20c0,13.5,11,24.5,24.5,24.5s24.5-11,24.5-24.5C149.2,113.1,144.4,105.3,137.3,101z M124.8,144
					c-12.1,0-21.9-9.8-21.9-21.9c0-7.7,4-14.4,10-18.4c0.1,0,0.3,0.1,0.4,0.1c1.2,0.1,2.2-0.6,2.8-1.5c0,0.2-0.1,0.3-0.1,0.5
					c-0.1,1.8,1.3,3.3,3,3.4c0.9,0,1.7-0.3,2.3-0.9c0.5,0.9,1.5,1.5,2.5,1.5c1.3,0.1,2.4-0.7,3-1.8c0.5,0.6,1.3,0.9,2.1,0.9
					c1.7,0.1,3.2-1.3,3.3-3.1c0-0.3,0-0.6-0.1-0.9c0.5,0.6,1.3,1,2.2,1.1c0.4,0,0.7,0,1-0.2c6.8,3.7,11.4,10.9,11.4,19.2
					C146.6,134.1,136.8,144,124.8,144z"/>
				<path class="st1" d="M124.9,124.5c-3.2,0-5.8,2.6-5.8,5.8c0,3.2,2.6,5.8,5.8,5.8c3.2,0,5.8-2.6,5.8-5.8
					C130.7,127.1,128.1,124.5,124.9,124.5z M124.9,133.8c-2,0-3.5-1.6-3.5-3.5c0-2,1.6-3.5,3.5-3.5c2,0,3.5,1.6,3.5,3.5
					C128.4,132.2,126.9,133.8,124.9,133.8z"/>
				<path class="st1" d="M115.2,118.3c-0.6,0-1.1-0.5-1.1-1.1c0-0.4,0.3-0.8,0.7-1c-1.4-0.4-3.2,0.7-3.1,2.3c0,0.1,0,0.2,0,0.3
					c-0.1,1.2,1.1,2.2,2.2,2.3c0.6,0.1,1.2-0.3,1.7-0.6c0.9-0.7,1.1-2,0.6-3.1C116.2,117.9,115.8,118.3,115.2,118.3z"/>
				<path class="st1" d="M136.6,118.3c-0.6,0-1.1-0.5-1.1-1.1c0-0.4,0.3-0.8,0.7-1c-1.4-0.4-3.2,0.7-3.1,2.3c0,0.1,0,0.2,0,0.3
					c-0.1,1.2,1.1,2.2,2.2,2.3c0.6,0.1,1.2-0.3,1.7-0.6c0.9-0.7,1.1-2,0.6-3.1C137.6,117.9,137.2,118.3,136.6,118.3z"/>
			</g>
			<path class="st1" d="M227.8,94.5l-98.6-46.2c-0.8-0.4-1.7-0.4-2.5,0l-104.4,46c-1.1,0.5-1.8,1.6-1.8,2.8l0,23.8
				c0,1.7,1.4,3.1,3.1,3.1l10,0l0,27.9c0,1.7,1.4,3.1,3.1,3.1c1.7,0,3.1-1.4,3.1-3.1l0-31c0-1.7-1.4-3.1-3.1-3.1l-10,0l0-18.7
				l101.3-44.6l95.6,44.8l0,19.8l-9.4,0c-1.7,0-3.1,1.4-3.1,3.1l0,29.5h-39.5c-2.8,0-5.1,2.3-5.1,5.1v0.3c0,2.8,2.3,5.1,5.1,5.1
				h42.2c0.1,0,0.1,0,0.2,0c0,0,0.1,0,0.1,0c1.7,0,3.1-1.4,3.1-3.1l0-33.9l9.4,0c1.7,0,3.1-1.4,3.1-3.1l0-24.8
				C229.6,96.1,228.9,95,227.8,94.5z M180.6,157.6c-0.1,0.4-0.2,0.8-0.4,1.2c-0.2,0.4-0.4,0.7-0.8,0.9c-0.3,0.2-0.7,0.4-1.2,0.4
				c-0.3,0-0.6-0.1-0.8-0.2c-0.2-0.1-0.4-0.3-0.6-0.5c-0.1-0.2-0.3-0.4-0.4-0.7c0-0.1,0-0.1-0.1-0.2c-0.1,0.2-0.1,0.3-0.2,0.4
				c-0.4,0.8-1,1.2-1.8,1.3h0c-0.5,0-1-0.2-1.2-0.6c-0.2-0.3-0.4-0.8-0.4-1.3c0-0.2,0-0.5,0-0.7c0-0.9,0.1-2,0.4-3.4
				c0-0.1,0.1-0.2,0.2-0.2c0.2-0.1,0.4-0.2,0.5-0.2c0.1,0,0.2,0,0.3,0c0.2,0.1,0.2,0.2,0.2,0.4c0,0.1,0,0.4-0.1,0.7
				c0,0.3-0.1,0.6-0.1,0.8c-0.1,0.6-0.1,1.1-0.1,1.5c0,0.4,0,0.7,0,0.9c0,0.2,0.1,0.4,0.1,0.6c0,0.1,0.1,0.3,0.2,0.3
				c0.1,0.1,0.1,0.1,0.2,0.1c0,0,0.2,0,0.3-0.2c0.2-0.2,0.3-0.5,0.4-0.9c0.1-0.4,0.2-0.8,0.3-1.2l0.2-1.2c0.1-0.4,0.1-0.7,0.2-0.9
				l0-0.1l0.1-0.1c0.2-0.1,0.4-0.2,0.5-0.2c0.1,0,0.2,0,0.3,0.1c0.1,0,0.2,0.2,0.2,0.3c0,0.3,0.1,0.7,0.1,1.4c0,0.6,0.1,1.1,0.1,1.5
				c0.1,0.3,0.1,0.6,0.2,0.9c0.1,0.2,0.2,0.4,0.3,0.5c0.1,0.1,0.3,0.2,0.4,0.2c0.1,0,0.2,0,0.3-0.2c0.1-0.2,0.2-0.5,0.3-0.8
				c0.1-0.7,0.2-1.4,0.2-2.1c0-0.7-0.1-1.2-0.2-1.6c0-0.1,0-0.3,0.1-0.4c0.2-0.1,0.4-0.2,0.6-0.2c0.2,0,0.4,0.1,0.6,0.5
				c0.1,0.2,0.2,0.5,0.2,0.8c0.1,0.5,0.1,0.9,0.1,1.3C180.7,156.7,180.7,157.2,180.6,157.6z M182.8,159.6c0,0.1,0,0.2-0.1,0.2
				c-0.2,0.2-0.3,0.2-0.5,0.2c-0.1,0-0.2,0-0.3-0.1c-0.2-0.1-0.3-0.3-0.3-0.7c0-2.5,0-4,0.1-4.4c0-0.6,0.1-0.8,0.2-0.9
				c0.1-0.2,0.3-0.2,0.5-0.2c0.1,0,0.3,0,0.4,0.1c0.1,0.1,0.2,0.2,0.2,0.3C182.8,156.5,182.8,158.3,182.8,159.6z M187.7,159.7
				c-0.5,0.3-1.1,0.5-1.7,0.5c-0.5,0-1-0.1-1.5-0.3c-0.6-0.3-0.9-0.6-0.9-0.9c0-0.1,0-0.3,0.2-0.4c0.1-0.1,0.3-0.1,0.4-0.1
				c0.1,0,0.3,0,0.4,0.1c0.1,0,0.2,0.1,0.2,0.2c0.1,0,0.1,0.1,0.1,0.1c0.3,0.2,0.7,0.3,1.1,0.3c0.3,0,0.5-0.1,0.8-0.3
				c0.2-0.1,0.3-0.3,0.3-0.5c0-0.1,0-0.2-0.1-0.3c-0.1-0.1-0.3-0.2-0.5-0.3c-0.3-0.1-0.6-0.2-0.9-0.2c-0.3-0.1-0.6-0.2-0.9-0.3
				c-0.3-0.1-0.6-0.3-0.8-0.6c-0.2-0.3-0.3-0.6-0.3-1c0-0.3,0.1-0.7,0.2-0.9c0.1-0.3,0.3-0.5,0.6-0.6c0.2-0.1,0.5-0.3,0.7-0.3
				c0.3-0.1,0.5-0.1,0.8-0.1c0.2,0,0.5,0,0.7,0c0.2,0,0.4,0.1,0.7,0.2c0.3,0.1,0.5,0.2,0.7,0.4c0.2,0.2,0.3,0.4,0.3,0.7
				c0,0.2-0.1,0.4-0.3,0.5c-0.1,0.1-0.3,0.1-0.4,0.1c-0.2,0-0.4-0.1-0.4-0.2c-0.1-0.1-0.1-0.2-0.2-0.3c-0.1-0.3-0.4-0.4-1-0.4
				c-0.4,0-0.7,0.1-0.9,0.2c-0.2,0.1-0.3,0.3-0.3,0.5c0,0.1,0,0.2,0.1,0.3c0.1,0.1,0.2,0.2,0.4,0.2c0.2,0.1,0.4,0.1,0.7,0.2
				c0.3,0.1,0.5,0.1,0.8,0.2c0.3,0.1,0.5,0.2,0.8,0.3c0.3,0.1,0.5,0.3,0.6,0.6c0.2,0.3,0.2,0.6,0.2,0.9
				C188.5,158.9,188.2,159.4,187.7,159.7z M194.1,157.9c0,0,0,1.4,0,1.6c0,0.1-0.1,0.2-0.2,0.3c-0.2,0.1-0.3,0.2-0.5,0.2
				c-0.1,0-0.2,0-0.3,0c-0.1,0-0.2-0.2-0.2-0.3c0-0.3,0-0.6,0-0.9l0-1.4c-0.3,0-0.7,0-1.1,0c-0.4,0-0.9,0-1.4,0.1c0,0.9,0,1.5,0,2
				c0,0.1,0,0.2-0.1,0.3c-0.2,0.2-0.4,0.2-0.5,0.2c-0.1,0-0.3,0-0.4-0.1c-0.1-0.1-0.2-0.2-0.2-0.3c0-0.3,0-0.6,0-1.1
				c0-0.5,0-1.3,0.1-2.3c0.1-1.1,0.1-1.7,0.1-1.8l0-0.1l0-0.1c0.1-0.1,0.3-0.3,0.7-0.3c0.1,0,0.2,0,0.3,0.1c0.1,0.1,0.2,0.2,0.2,0.3
				c0,0.2,0,0.3,0,0.6c0,0.2,0,0.6,0,1c0,0.2,0,0.4,0,0.5c0.5-0.1,0.9-0.1,1.4-0.1c0.4,0,0.7,0,1.1,0c0-0.1,0-0.3,0-0.5
				c0-0.4,0-0.9,0-1.5l0-0.1l0.1-0.1c0.1-0.2,0.4-0.4,0.7-0.4c0.1,0,0.2,0,0.4,0.1c0.1,0.1,0.2,0.2,0.2,0.3c0,0.6,0.1,1.1,0.1,1.7
				C194.1,156.4,194.1,157.1,194.1,157.9z M197.3,160.1c-0.3,0-0.6,0-1,0c-0.6,0-0.8-0.1-0.9-0.2c-0.1-0.1-0.2-0.2-0.2-0.3
				c0-0.6,0-1.4,0-2.7l0-2.7c0-0.1,0.1-0.2,0.1-0.3c0.2-0.2,0.4-0.2,0.5-0.2c0.3,0,0.6,0.2,0.6,0.7l0,3.4c0,0.4,0,0.8,0,1.2
				c0.2,0,0.3,0,0.5,0l1.6,0c0.7,0,0.7,0.4,0.7,0.6C199.3,160,198.7,160.1,197.3,160.1z M200.9,159.6c0,0.1,0,0.2-0.1,0.2
				c-0.2,0.2-0.3,0.2-0.5,0.2c-0.1,0-0.2,0-0.3-0.1c-0.2-0.1-0.3-0.3-0.3-0.7c0-2.5,0-4,0.1-4.4c0-0.6,0.1-0.8,0.2-0.9
				c0.1-0.2,0.3-0.2,0.5-0.2c0.1,0,0.3,0,0.4,0.1c0.1,0.1,0.2,0.2,0.2,0.3C201,156.5,200.9,158.3,200.9,159.6z M205.8,159.7
				c-0.5,0.3-1.1,0.5-1.7,0.5c-0.5,0-1-0.1-1.5-0.3c-0.6-0.3-0.9-0.6-0.9-0.9c0-0.2,0.1-0.3,0.2-0.5c0.1-0.1,0.3-0.1,0.4-0.1
				c0.1,0,0.3,0,0.4,0.1c0.1,0,0.2,0.1,0.2,0.2c0.1,0,0.1,0.1,0.1,0.1c0.3,0.2,0.7,0.3,1.1,0.3c0.3,0,0.5-0.1,0.8-0.3
				c0.2-0.1,0.3-0.3,0.3-0.5c0-0.1,0-0.2-0.1-0.3c-0.1-0.1-0.3-0.2-0.5-0.3c-0.3-0.1-0.6-0.2-0.9-0.2c-0.3-0.1-0.6-0.2-0.9-0.3
				c-0.3-0.1-0.6-0.3-0.8-0.6c-0.2-0.3-0.3-0.6-0.3-1c0-0.3,0.1-0.7,0.2-0.9c0.2-0.3,0.3-0.5,0.6-0.6c0.2-0.1,0.5-0.3,0.7-0.3
				c0.3-0.1,0.5-0.1,0.8-0.1c0.2,0,0.5,0,0.7,0c0.2,0,0.4,0.1,0.7,0.2c0.3,0.1,0.5,0.2,0.7,0.4c0.2,0.2,0.3,0.4,0.3,0.7
				c0,0.2-0.1,0.4-0.3,0.5c-0.1,0.1-0.3,0.1-0.4,0.1c-0.2,0-0.3-0.1-0.4-0.2c-0.1-0.1-0.1-0.2-0.2-0.3c-0.1-0.3-0.4-0.4-1-0.4
				c-0.4,0-0.7,0.1-0.9,0.2c-0.2,0.1-0.3,0.3-0.3,0.5c0,0.1,0,0.2,0.1,0.3c0.1,0.1,0.2,0.2,0.4,0.2c0.2,0.1,0.4,0.1,0.7,0.2
				c0.3,0.1,0.5,0.1,0.8,0.2c0.3,0.1,0.5,0.2,0.8,0.3c0.3,0.1,0.5,0.3,0.6,0.6c0.2,0.3,0.2,0.6,0.2,0.9
				C206.6,158.9,206.3,159.4,205.8,159.7z M211.5,155c-0.1,0-0.3,0-0.6,0c-0.2,0-0.5,0-0.6,0c0,1,0,2.4-0.1,4.8
				c0,0.1-0.1,0.2-0.2,0.3c-0.2,0.1-0.4,0.2-0.7,0.2c-0.2,0-0.4-0.2-0.4-0.4c0-0.2,0-0.5,0-0.8l0-3.4c0-0.2,0-0.5,0-0.7l-0.1,0
				c-0.2,0-0.4,0-0.8,0c-0.4,0-0.6,0-0.8,0c-0.7,0-0.8-0.4-0.8-0.6c0-0.5,0.5-0.7,3-0.7c0.4,0,0.9,0,1.6,0.1c1,0.1,1.2,0.1,1.3,0.4
				C212.5,154.5,212.3,155,211.5,155z"/>
		</g>
	</g>
</g>
<g id="Layer_2">
</g>
<g id="Layer_1">
</g>
</svg>
